<svg xmlns="http://www.w3.org/2000/svg" viewBox="219 11 499 559" width="100%" height="auto">
    <g id="Layer_1">
    <g id="Layer_1-1" fill="#000" fill-opacity="1" fill-rule="nonzero" stroke="none">
        <g id="Okinawa_group" class="region-group">
        <path id="Okinawa" fill="#191970" d="m333.7 84.4-.6.6-.2.5v.6l.5.5.3 1-.6.7-.5.5-.3.3-1 2.2v2h-.4l-.2-.3-.3.2-2.8 4.4-1.6 1.8-2.2.8H320l-1 .6q-.4 0-.6.5l-1.7 2.8q0 0 .3.2.3 0 .5.3l.3.3v.8l-.2.5-.3.3h-.3l-2 .8-1.6.3q-.6-.3-1.3-.3l-1.4-.5-1.7 2-4 4.6-1.2.5h-.8l-.8.5-.3 1.5-.6.2h-5.3q-.4 0-.8.3-.4 0-.8.3l-.8 1.4.2.8.9.3.8.5.5 1.4.3 2.5.3 1 .8 1.2 1.7 1.5.8 1.1-1.4.4-1.6-.5-1.7-.7-1.6-.5-1 .8-4 7.3-.5 1.4q0 1-.3 2l.6 1h1.3l1.4-.5 1.1.3-.8 2-1.4 2-1.6 1.8q-.9 0-1.7-.3l-1 .8-1.5 2.5-1 .3h-4.7l.2-3.3-1.6-6q0-1.2.3-2.3l1.6.3q.8-.7 1.4-1.7l1.4-2.4.5-1.7q.8 0 1.4.3l1-1.4.6-2 .3-1-.3-1.6-1-4.1q0-1-.3-2v-2l.8-1h5l1-.5.3-1h.3l1.3-2.3v-.2l2.8-1.7 3-1 2.8-1.5 1.9-2.7q0-1 .3-1.6l-.6-1.2-1.4-.8-3.5-.5-.9-1.2v-3l-.5-2.7v-.8h3.3l3.6-.3 1.9.5 1 1v.6l-.7.9-.3 1 .5 1 .9.8h.8l3.3-1.2 4.4-2.5-.6-1.6.6-1 3.8-3.2.3-1.5.5-.6h.6l.3-.2.8-1.5 3-2 .6-1 1.6-4.7v-2l6.3 6.8z" opacity="1"/>
        </g>
        <g id="Kyushu_group" class="region-group">
        <path id="Kagoshima" fill="#191970" d="M280.1 546.5h-.5l-.6.1-1 .6-.5.4-.4.4-.5.8-.4 1.4.4.3q.5 0 1 .3l1.3.5v.6l-.7.5-.2.5q.3 0 .5.3l1-.4.2.3-2 1.8-.9-.1q-.4 0-.8.3v.7l-.3.4-.5 1-.3.6-.4.3-.4.4q-.2 0-.5.3h-.5l-1 .5q-.4 0-.8.3h-.8l-1.3.8-.2.3-1.2.3-1 1-.4.4h-.6l.2-2.2.7-.7 1.2-.7.4-.4.6-2.2q0-.2-.3-.5l.8-1.4q0-.7.3-1.1l.2-1.7v-.7l-.5-1-.3-1-.7-1.1-1.3-.9-.3-1 .4-1.4-.3-.6-1.7-.2-.5-.3-.3-.1-.4-.2-.2-.6.7-1 .7-.1h1.5q.3 0 .7.3l.3.6v1.1l.4.1h.4l.2-.1.6-.5.6-1.1.4-1.4-.2-1.2-.8-.8h-1.2l-1.5-.6q-.6 0-1.2.4l-1 1v1.4l-.2.1-.8 1-.5 1.5-.5 1-.4.9-.3 1.3v.8l.1.7.8 2 .4 1.4.3.6 1 .5.5.9h1v.6l-.2 1v.6l-.3.8q-.2 0-.5.3h-.6l-.5.8-.4-.5h-.3l-.3.3h-.5l-.4-.2-.4-1.6-.4-.5-1.3-.7-4.5-.2h-.6q-.3 0-.8.4l-.8-.1q0-.2-.3-.5v-.6l-.2-.5q0-.4-.3-.8l-.4-.5h.8v-.2l-.3-.6-.8-.9-1-.6-.5-.5q.5 0 .8-.4h1l.1.3h.4l.5.8.4.4.5-.8 1.4-1.5.4-1 .3-.6.3-1.2.2-1.2-.3-1 .4-.5v-.6l-.3-.6-1-1-1-1.7-.4-.4-1.3-.7-.5-.2v-.3l-.4-.9.3-1.1.3-.4 1 .4.3.1-.8-.7q0-.2-.3-.5l.5-1 .2-1.5-.2-.7-.6-1.2-.6-.5v-.6l.4-.4.5-.7v-.8l-.7-.7.8-1 1.2-.4 1 1h.5l.6-.5q0-.4.3-.4v-.2l.4-1 .4.4.7.8.3.4.5.1h1.2l.6-.5 2-.6h.4l.3-.2.3-.3h.5l.6.2 2 1.5 1 .7-.4 1 .3.5.3.3 2 3 .4.6.7.6.6.3.8.8.2.6v2.3l.3.4.2.2 2 .8.3.5.8.8v.4l.2.2v.7l1.1 1.7h.7l1 .6h.6q.4 0 1 .2 0 .3.4.5l.4.4v2l-.2.6-.7 1v.3z" opacity="1"/>
        <path id="Miyazaki" fill="#191970" d="m280.1 546.5.2-.2v-.1l.8-1.1.2-.5v-2.1l-.4-.5-.5-.5h-1.2l-.3-.2-1-.5h-.7l-.3-.4-.6-1v-.4l-.2-.2v-.6l-.2-.4-.8-.9q0-.2-.3-.5l-2-.7-.2-.2q0-.2-.3-.5v-2.2l-.2-.6-.8-.9-.6-.2-.7-.6-.5-.7-2-3-.2-.2-.3-.6.4-1h3.2l1-.2.8-.6h.8l.8.1 1-.6q0-.5.4-.9l.6-.2q.8 0 1.4.4h.3l.3-.2.2-.2v-.7l-.3-.6-.5-.7v-.8q0-.4.2-.7l.6-.8.2-.5v-.9l-.6-.7v-.5l-.4-.6-.3-.4-.7-.6-.2-.4-.2-.6v-.4l-.2-.4v-1l.7-1.6.3-.6.4-.4h.8l.6-.5v-.2l.3-1 .2-.6.4-.6.6-.6.4-.3.4-1 .2-.2 1-1 .3-.7.3-1 .2-.2.8-.6 1.6-.4q.3 0 .5.4.3 0 .5.2h2l.7-.5h.8l.4.3.2.3v.3l.2.3v.3l-.2.3v.3q.2 0 .3.2l.2.2h1.3l.3-.4h.6l2.7-.3h.4v-.2l.3-.3.4-1h.2l.2-.5h.8l.6.3h.4l.7.6.3 1v1l.3.1h1l-.1.4h-.1l-.1.1h-.1l-.1.8v.4l-.3.3-.4-.6-.3-.2-.2.4-.4.4-.4.6-.6.6v.8l-.6 1-.1.2-.4.1h-.8l-.1.7-.5 1v.5l.4.4h.7l.5.7-.6.5-.6.3-1.1-.3-.1.6.5.5.5.8-.8.5-.3.1h-.3l-.2.3-.2.3-.2 1-.1.7v.2h-.2l-.2.3-.3.7-1.3 4.5-.6 2.3-2 7q-.3.4-.4 1v1l.3.7.3.6q.4 0 .8.4v.3l-.5.6v.3l-.8 3.8v1l-.8.8-.3.4-.2.5-.4.8-.2.4v.6h.2v1.1l-.5.4v.3l-.3 1.7-.7 1v.5h-.7l.2-.2v-.3l-1 .1h-.7l-.5-.1v-.8l-.3-.6-.6-.6-.2-.2v-.1h-1l-.5-.4z" opacity="1"/>
        <path id="Oita" fill="#191970" d="m281.7 472.1.5.1h1l1 1h1.1l1.3.2q.8 0 1.4-.2l.2-.3 1-1 .5-.6.3-.6.4-.5.7-.3q.4 0 1-.2h1.5l.6.5h1.2l.6 1 .7 1.2.5.8.2.7v.8l-.2 1 .2 1-.3.5-.5 1-.1 1h-.3q-.3 0-.6-.2l-.5-.2-.5.1-.2.5v1l-.7.3h-.3v.6h-1.6l-.4-.5h-.8l-.2.8.4 2.3q.5.5 1 .6h1.9l1.3-.4 1.3.6.3-.6 1.5.6 1.8.3q.4 0 .8-.3l1-.5h.5l-.6 1-.3.8v.6l-.6.3-.6.6-.1.7-.5 1 1 .3.8-.4h1.2l-.8.6-.4.6-.2.4.5.2.3-.2h.4l.3.4h.4v-.4l.2-.4h.2l.3.6.2.3.2.2h.6v-.2l.3-.8.5.8-.1.6-.8.1H303l-.2.6-.4.6-.1 1 .3.3.6.5h.4l.3.5h.3l.3-.2h.2v.4h.3l.4-.2v.4h.3l.4-.6 1.4.3v.4l-.5-.2-.6.4h-.6l-1.2 1.3v.3h.4v.4l-.2.4-.3.4-.7.6h1.2l.2.2-.2.5-1 .6h-.4l-.6.4h-1.3l-.3.5v1h-1.2l-.1-.5v-.6l-.3-1-.7-.7h-.4l-.6-.2h-.8l-.4.6-.4 1-.3.4h-.4l-3.3.3q0 .3-.3.4H291l-.2-.2-.2-.2v-.6l.1-.4v-.2l-.2-.4-.2-.2-.4-.2h-.8q-.8.1-1.4.4h-1.3l-.5-.2-2.3-2-.5-1v-.4l-.2-1.6v-.8l-.5-1-.4-1-.2-.4-.6-.6-.2-.5-1.4-2.3-2-1.4h-.4l-.4.2-.7.3-.8.2-.2.3v.3l.4 1.2.5.8.2.3v.3l-.4.8-.2.4-.4.3-.7-.2-2.4-1.4-1-.3.6-2v-.8l-.7-2-.2-.6.5-1.4v-.7l-.2-1v-.7l1-1.4.1-.9.4-.5.7-.8.4-.7.4-.3.4-.4q.7 0 1.3-.4h2l1.8.3h.4q.1 0 .3-.2l.2-.3.5-.7.2-.4v-.4l-.2-.7v-.6l.2-.4.4-.5z" opacity="1"/>
        <path id="Kumamoto" fill="#191970" d="m267.4 525.1-1-.7-2-1.6-.6-.2h-.5l-.3.4h-.3l-.4.1-.4.3-1.6.4-.6.4-.7.1h-1q0-.3-.3-.5l-.7-1h-.4v-.3l.4-.2v-.6l2.2-2.4.2-1 .5-.2v-.2l.2-.4v-.6q0-.4.2-.6h.2l.8.7.2-.5v-1.7l1-1 .5-.5.3-1v-.7l-.7-.4q0-.3.3-.4h1.3l-.4-.6-.6-.5v-.8l2.1-2q.3 0 .5-.4l.3-1h-.8l-4.8 1-.5.4-.4-.2.8-1 2-1 .7-.6.3-.2h.5q.3 0 .4-.2h.6v-.2h-.4l-.4-.6-.2-.4v-.8l.5-.4v-.6l-.5-.8-2.3-1.9-1.3-1.4-.8-.6-.3-.6V494l1.4-.4.5-.2v-1.2l.3-.5.4-.4 1.2-1 .5-.4q.7 0 1.6-.2l.5-.2.6-.8h1.7l1.7 1.3 1.4.6 1 .3 3 1.5q.3 0 .5-.2l.2-.3.4-1v-.2l-.2-.3-.5-.9-.2-.2-.2-1v-.2l.2-.4h.8l.7-.5h.9l2 1.2.3.6 1 2 .2.2.6.8.2.4.4 1 .4.8v1l.2 1.5v.5l.6 1 1.8 1.5-1.6.4-.3.1-.5.5-.2.3-.3 1-.4.7-1 1v.2l-.5.8-.4.5-.6.6-.4.4-.2.7-.2 1v.3l-.7.3h-.8l-.4.4q0 .5-.3.8l-.6 1.6v1.3l.1.4.2.5.2.4.7.6.3.4.3.6v.5q.4.4.6.8v1.4l-.7.8-.3.6v1q.4 0 .6.7l.2.5v1h-.7l-1.7-.2q0 0-.3.2l-.5.8-1 .6-.7-.2h-.8l-1 .6-.8.4zm-7.8-17.6.2.3v1l-.2.3h-.4l-.2.2v.4-.2l-.5-.2v-.4l.1-.6v-.2h-.4v-.5l.4-.6h.2l.5-.2h.3l.2.3v.3z" opacity="1"/>
        <path id="Nagasaki" fill="#191970" d="M241.1 482v.2l-.6.3-1 1v.7l.2.4 1 1.3.1.4v.4l.3.4.4.3 1 .5 1.3.3.7.7.2.4v.4l-.2.4-.4.3v.3l.2.5 3.2 2.7.8.5 1.3.5 3 .5v.5l-.5.5-.8.3-.8.7-.6.3-.3.2.5.1.3.6.6.4h1.2l1.5-1h1.8l1 .5.3 1 .6 1.2v2l-.5.7v.4l.2.6-.6.8-1 .5h-1l-.4.3v.5h-.6l-.2.6-.2.1h-.8l-.5.6h-.4l.2-.4v-.7h-.5q0-.3-.3-.5h-.5v-1.7h.7l.4-.4.3-.4.4-.2.3-.3.3-.3v-.7q-.4 0-.7-.3v-.4l.1-.5-.3-.2h-1l-.2.1h-.4l-1-.2-.8.4-.4.3-.5.5h-.7l-.5.4h-.9v-.6l-.4.3.2.4-.4.5-.7 1-.4.8-.2.6-.6.4-.6.4h-.4v.3l-.3.4-.7.8-.6.4v.4l-.3-.2h-.4l-.4.2-.3.1q0 0-.2-.3l1-.6.2-.2.3-.2q0-.5.3-.8l.3-.7.3-.4v-.7l-.3.1h-.2v-.5h.3l.2-.2h.3l.3.2.3-.2.4-.8h-1v-.4l-.6-1.4-.3-.2h-.3l-.2-.3v-.6l-.2-.2-.5-.2-.3.3h-.3l-.3-.6-.7-.4-.3-.6-.3-.6v-.7l-.2-.4-.3-.5-.3-.2h-.4q0-.6-.2-1v-1q.3 0 .5-.3l.2-.6v-1h.2v-1q.6-.5.6-1l1 .5.6.6v.4h.1l.3-.2h.2v.4l-.5 1v.3l.1.6.3-.2.4-.8 1 .3q0 .3.3.5l.4.6-.3.3v1.6l-.2.3-.2-.3-.2-.8h-.2v1.1l.5.4v.5q0 .3-.3.4l.6.4.2.3.3.3.3.1v.3h.3v-.3l.5-.2.2-.3.2-.6 1.5.6 1.6.6h.4l-2-3v-1l.1-.6q0-.4.3-.7v-.7l-1-.7-.9-1q-.4 0-1 .4l-.4.4h-.3v-.7l-.8-.6-.3.3-.4.3h-.4l-.4-.2-.4-1.3h.2l.3.1v-.8l.3-.2v-.3h-.4l-.5.6-.2-.4v-1h-.4v1.8h-.8l-.2.2h-.2q0-.5-.2-.9h.7v-.8l-.3-.2-.3-.2-.3-.2v-.7l-.2-.2h-.3l-.3.2-.3-.2-.5-.4h-1q0-.3-.4-.6 0-.6.3-1v-.8h.6l.3-.2v-.3l-.2-.5-.4-.7v-1l.2-.6.4-.4.8.8h.7l1-1.5v1.4q.4 0 .7.3l1.2-.4 2 .6zm-7.6-2.8.2 1.5q0 .3-.2.5 0 .3-.4.6 0 .3-.4.4l.3.3q0 .3-.3.4h-.4v.5l-.4.3v.6q0 .3-.2.6l-1.4 1.6-1 .8-1 .3-.6-.2-.4-.2v-.3l.2-.9.3.6.7.6h.5l.2-.5q-.4 0-.7-.3l-.2-.4v-.4l.5-.4h.7l-.3-.5v-.8l1-.7v-1.8l1.5-.5.4-.7h.3l.2.5.4-.4-.4-.4v-.6z" opacity="1"/>
        <path id="Saga" fill="#191970" d="M247.6 477.5h3.7l1.4-.3h1.4l1 .3 1.7 1 .4.3 1.5 1.2h.3l.6-.6 1.2-.6h.9q0 .2.3.3l.2 1.3v1.1l-.3.4h-.5l-.4.3q0 .3-.3.4l-.2.3-.2.5-.2.3-.3.6-.3.1h-.6l-.2.3-.3.2-.4.1-.3.3-.2.3v.6l-.2.4h-.2l-.2.3-.2.3v.9l.1.4h-1.1l-.4-.3h-.3l-1-1-.4-.2-.6 1-1.3.8-.8 1-.6-.5v.6l.5.6.4 1 1.3 2.4.5.4v.8l-.5.1v.3l-3-.6-1.2-.5-.8-.5q-.2 0-.5-.4l-.6-.6-2-1.7-.3-.4v-.4l.4-.4v-.2l.2-.4-.2-.6-.7-.6-1.3-.2-1-.6-.4-.4-.2-.3v-.3l-.3-.5-1-1.4v-1l1-1 .4-.3v-.2l.3 1 .2.2.3.4.4.1v-.4l-.3-.9v-1l.5-.7.4-.4-.3-.4q.2 0 .2-.2l-1.5-1-.6-.7-.3-.3q0-.2.3-.5l.2-.5h.4l.5.5.2.5.2.4.4.1h.3l-.2-.7-.6-1-.2-1 .5-.6v-.7l.4.5h.5q.4 0 .7-.3l1 .4.5.8v.3l-.5.4v.4l.3.3.2-.3.2.3v.4l.6.5q.6 0 1.2-.2z" opacity="1"/>
        <path id="Fukuoka" fill="#191970" d="m281.7 472.1-.2.1-.4.4v.1l-.2.4v.6l.3.8v.3l-.6.8-.2.3-.2.3-.3.2h-.4q-.9 0-1.8-.4h-2l-1.3.6-.4.3-.4.3-.4.7-.7.8-.4.6-.2.8-.7 1v.3l-.2.3v.6l.2 1v.6l-.5 1.4.2.8.6 1.8v.6l-.5 2-1.4-.4-1.7-1.2-.4-.2h-1.4l-.6 1q-.2 0-.5.2l-1.6.1-.5.4-.5.4-.7.6-.4.3q0 .4-.3.7v1l-.4.3-1 .2-.6.3v-2.4l-.2-.7v-.6h-.2l-.2-.3h-.3l-.6-.4-.2-.4v-.6h-.2l-.4-.2-.2-.9v-.4l.3-.4.2-.2h.2v-.5l.2-.6.2-.4h.3l.7-.5.2-.2h.6l.3-.2.3-.6.2-.2.2-.6.2-.4.3-.2.4-.2h.3l.2-.2.2-.2v-2.5l-.4-.5h-.3l-.6.2-1.2.5-.6.5h-.3l-.4-.2-.7-.6-.4-.4h-.4l-1.8-1.3q-.4 0-1-.2h-1.3l-1.4.2h-3.7l.5-1.2 1.5-.6h.3q.1 0 .3-.2.3 0 .5-.2h.4l.3-.3.2-.6h-.3l-1 .4-.2-.2v-.4q-.4 0-.7-.2l-.2-.2v-.2l.5-.6h.6q.1 0 .3-.2.3 0 .5-.4v-.4l.1-.5h1.1l.2-.4v-.7h.5l.3.4.2.3-.3.3v.6l.5.1.2.3q.3 0 .6-.2v.3l-.2.4.2.4.4.2q.1 0 .3-.2h.2l.4-.7h2.2l.2-.6v-.5l.3-.7-.2-.2v-.4l-1.6 1-.7-.4v-.2h-.5q0 0-.3-.2l-.2-.6v-.3h.5v.5q.3 0 .5.3h.6l1.7-1q.3 0 .4-.3l.4-.5h.4q0-.2.3-.5l.4-.5v-1.2l-.6-.3v-.6h.2l.6-.4v-.4l.4-1 .3.3h.3l.7-.6h.2v-.5h2.8l1.5-1.9h.2l.4-.2h.3l.4.3.8-.5h1l1 .2v.6h1.1l.2.2.3.6q.3 0 .5.4.3 0 .5-.2.1 0 .3-.2l.5-.6.2-.9.8-.6q.4 0 1-.3l.3.3v.8l-.4.5v.3l-.4.6.3.3v.4h-.5v1l-.2.1-.5.3v.8l.7.2q.3 0 .6-.2v1.5l.1 1 .3.5 1 1.7q0 .6.3 1l.5.6q.3 0 .6.4h1.3l1.2.3z" opacity="1"/>
        </g>
        <g id="ChugokuShikoku_group" class="region-group">
        <path id="Kochi" fill="#191970" d="m353.3 463.5 2.8 1 1.2.2h.9l.5.2 1.6 1h1q.3 0 .4-.2 0-.3.3-.4 0 0 .3-.2.3 0 .6-.2l1.3.1q0 .3.3.4l.2.6.2.4.2.4v.4q0 1.4.3 2.6h1.2l.9.1.5.3q0 .3.3.4v1l-.1.6.7 1.6q0 .3.3.4l.8.3h.9l1.4.4-1.5 2.4-1 3-.1 1.4-.4 2.4-.1.8-.4.3-.5-1-.5-.8h-.4l-.6-.2v-.7l-.8-.8-1.2-1.6-.4-1.2-1.8-.6-.6-.9-.5-1.2h-2.1l-2.7-.8-.7-.7-2 .3-1.8.4-.6.5-1.2.5q-1.2.8-2.4 1.3l-.4.8v.6l-.4.3-.7.3h-1.1l-.6.5-.3.2-.5.8h-.2v-.5h-.1l-.2-.3-.6.3-.6.7-.5.8v.6l-.1.4v.3l.3.3v.1l.2.3v.5l-.1.2h-.1l-.1.1-.1 1q-.3 0-.4.3l-.4.4-.3.3v.8l.3.1-.5.3-.2-.3h-.4l-.7.8-1 1.8-.7 1-.3.3v1l-.2.1-.4-.4q-.4 0-.7-.3l-1 .5-.5 1.3-.2 1.3.4 1.6-.2 1.1-.3.4-1-.2v1.8l.4.3.2.4.2.3.6.4.4.5.3.6v.8q-.5 0-.8.3l-.5-.4h-.2l-.2-.3-.2-.7-.2-.2-.5-.4-.7-.4h-.7l-.3 1-.3-.6h-.4l-1.3 1h-.6l-1-.4-1-.8q0-.3-.4-.6l-1.3.4-1.1 1-.3-.7v-1l.8-1 .5-1 .9-1 .3-.3.2-.5h-2.1l.9-1v-.5l.2-.3-.1-.7v-.7l-.6-1-.1-.6v-.7l-.2-.4-.2-.4-.5-1.2-.1-.4v-.6h.5l.8.8.4.3h.4l.3-.3.8-1.3 1-.7v-.6l.2-.5v-.4l.6-.7.5-.4 2.2-1.5v-.9l-.3-.2-.3-.4-.3-.2-.2-.3-.2-.4-.3-.2-.2-.4-.1-.4-.1-.4-.2-.9.2-.2q0 0 .3-.2h4.4l.9-.9 1-1.4.2-.3v-1.4l.4-1v-.4l.3-.6.3-.4.6-.6.3-.4q0-.1.3-.5l.9-2 .5-.7.2-.4.2-.4h1.3l.4-.2.6-.6.3-.4h1q.4 0 1-.2h2.7l1.2-.3h.7l.7-.5 1.3-.6z" opacity="1"/>
        <path id="Ehime" fill="#191970" d="M353.7 458.6q0 1.2.3 2.3l-.1 1-.3 1-.3.5h-2.5l-1.3.8-.7.4-.7.1h-1.2l-1.3.3H344l-1 .3h-1l-.3.3-.6.6-.4.2h-1.4l-.1.3-.2.5-.5.8-1 2-.5.8-1 1-.1.6-.1.4-.3 1v1l-.1.4-.2.4-1 1.3-1 .8h-4.2l-.3.3-.2.3.2.8v.4l.2.4.2.3q0 .3.3.4l.2.3.2.3.3.3.3.3.3.3v.8l-.5.4-2.2 1.4-.4.5-.2.7-.1.4v.4l-.1.3-.2.2-.8.5-.3.4-.5.8-.3.3h-.4l-.4-.2-.8-.7h-.4l-.1.2v.7l.6 1.2.2.3.2.5v1.2l.7 1v1.8l-.1.4-.8 1h-.1l-.3.1h-.3l-1.3-1h-.4q0 .3.3.5h-.5l-.5-.2h-.4l-.2.7h.2q0 .4.3.4l-.4.3-.4-.2-.4-.2-.6-1 .7-.8-.4-.6.6-.8-.6-1-.3-.7-1.5-.4-.7 1.3h-.4l.5-1-.1-.6q0-.3.3-.4l1.3.7h.6q0-.4.3-.5h-.6l.2-.5v-.5l-.2-.3-.4-.2v-.2h1l.2-.3v-.3l-.3-.2H318l-.2-.7v-.3l.7-.2-.6-.6-.4-.4-.2.4h-.5l-.2-.6h.8l.7.1h.5v.4q.3 0 .5.4l.2.5.6-.5-.1-.6.3-.6h.7q0-.4.3-.4l-.3-.6-.4-.2.5-.4h-1l-.1-.2h-.3l-.2-.3v-.6l1-.6h.2l-1.2-.3-2 .4h-.5l-.6-.4v-.5q.2 0 .4-.2h.7v-1.4l-.4.5-.4-.5v-.7l.5-.7v-.2h-.4l.2-.2v-.3q.3 0 .6-.2l-1.1-.8H315l-.3.2h-.4q-.2 0-.4-.2l-1 .7-.6.1-2.1 1.3-1 .6-.2.5-.3.3h-.8l.2-.8-1.1.8-1.4.8h-.4l.6-.8 3-2 .6.3h.4l-.3-.5-.1-.2.5-.4q.4.1.8-.4h.7q.3 0 .5-.2h.7l.9-.7 3.5-1.9.4-.3.2-.7.2-.2.9-1 .2-.2.6-.6q1.5-.8 3-1.3l.5-.6q.4 0 .8-.4l.9-1 .6-1.5v-1l-.2-1q0-.6.3-1.2l.2-1 .2-1h1.2v-1l.5-.8-.1-1.3.9-.6 1.8-1.5 1.7-.5v-.5q0-.3.3-.4l-.1-.6h-1v-.4h1l.5-.6.3.5.4.5h.3l1.6 2 .8 2.4.3.6.2.3q0 .3.3.4l.6.3.6.3h.6l.7-.4q.4 0 1-.2.4 0 1-.2l.3-.6.8-.4h.7l.6-.2h.6l.5.3q.7 0 1.6-.2h.7l1.4.7h1.4l.4-.5.4-.4q0-.2.3-.4l.5-.5v-.1q.8 0 1.7.3z" opacity="1"/>
        <path id="Kagawa" fill="#191970" d="m376.6 451.2-.7 1.6q-.3 0-.3.2h-.4l-1-.2H370q-.9 0-1.4.2h-.7l-.3.5-.4.6q-.3 0-.5.4-.3 0-.5.3-.6 0-1.2.2h-.4l-1.1.8h-.4l-.6.2-.3-.2h-.4l-.3-.3-.3-.4-.6-.1-2.1.3q-.2 0-.3.2-.3 0-.4.4-.3 0-.4.3l-1 .3h-.3l-.3.5-2.2 1.5-.4-.5-1.6-.4.9-.7.3-.6.2-.5.2-1.7v-1.6l-.2-.6-.2-.4-.4-.5-.4-.5-.5-.2-.5-.3-.4-.7q.3 0 .6.4l.9.3.8.3.5-.2.6.6.8-.4.9-.6.7-.7.8-.7 1.8-1 .9-.4.2-.4q0-.2.3-.5l.2-.4 1.4-.4h.3l.4.3.5.3.4.3h.6l.4-.1h1.5l.4-1 .5.8v-.2q0-.3.2-.6v-.2l.6-.1h.2q0 .3.2.6v1.4q0 0 .2.3h.7l.7-.7v-.3l1.4.7.3.3-.4 1 1 .8h.5l.4.2.6.6h1.6v.4q0 0 .2.3l.3.3z" opacity="1"/>
        <path id="Tokushima" fill="#191970" d="M376.6 451.2h.8l.8-.7h1.9l.6-.2h.4l.3-.6v.3l-.2.4-.2.6.5-.2.5-.5.6-.2-.6.9v.8h-.6l.4.3.2.2.5-.1-.6 1-.1.3v.3l-.4.8v1.6h-.1l-.2.6v1.4l.3.3h.5v-.2l.4-.1.4.8.4.4.9.7-.1.3q0 .3.3.4v1l-.4.6h-.4l-.4.3-.4 1 .4.2q.7 0 1.6-.2v.3l-.7.3v.1q.5 0 .9-.2h.8l-.6.4-1 .3-1 .6q0 .3-.3.4h-1l-.3.8h-.8l-.2 1-.7.2-.3.4-2.4 1.6-1.5.6-.8.8q0 .3.3.4l-.7.8-.1.4-.2.3h-.8l-.4.3v1l-.5.4-1.4-.5h-1q-.4 0-.7-.2l-.3-.4-.7-1.6q0-.2.2-.5v-.7l-.1-.4-.3-.4q-.3 0-.5-.2h-2l-.1-.3-.2-2.4-.1-.4-.2-.5-.4-1-.3-.4h-1.9l-.3.3-.6.6h-1.1l-1.6-1q-.3 0-.5-.2H356l-2.8-1.3.3-.6q0-.6.3-1v-1l-.2-2.3 1.6-1.2.6-.3q0-.3.3-.4l.3-.1 1.8-1 .3-.2 2-.3h.7q0 .3.3.5l.3.3h.4l.3.2.6-.2h.4l1.5-.8 1.2-.2 1-.6q0-.4.4-.7 0-.3.3-.4l.7-.1 1.4-.2h4q.6 0 1 .3l.5-.1.3-.2z" opacity="1"/>
        <path id="Yamaguchi" fill="#191970" d="M295.6 434.7v1l.2.6v.4q.4.4.6 1.3v.3l-.1.3-.2.3-.4 1-.3.6-.1.4.2.6.3.4v.4l-.1.4v.3q.3 0 .5.3l2 .5.2.2v.3l-.5.7-.1.3v.8l.2.4.2.5.2.3.3.4h1.9l1.5-.4.3-.1h.4l.3.5h.4l.2-.4.2-.6v-.2l1.2-.7v-.4l-.3-.6-.1-.5v-.4l1.9-1.6.3.8.3 2.7 1.6 4 1 1h.3l.8.6q.5-.1 1 .4h.2v1.7l-.3.3q-.2 0-.5.4l-.3.4-.1 1.7.4 1.4v1l-1 1-.6.7h-.4l-.2.3-.1.7.2.8.6 1.3v.4l-.3.4-2.3 1.6q-.2.3-.5.3h-.4v-.5l.7-.4v-.2l.3-.6v-.2l.3.3h.4q.1 0 .3-.2v-1.2q-.2 0-.3-.2l-.4-.3-.8-.6-2-.7h-.5l-.2-.2-.7-1-1.4-.6-.7-.7-.5-.4h-.6l-.6 1h.4v.3h-1l-.4-.2v-.7l.8-.6.5-.5v-.2l-.3-.1-.4-.4-1.7-.6q-.5 0-1.1.4h-.4l-1.6.6h-1v-.2l-.2-.1-.3.3.3.4v.9l-.4.3h-.2l-.2-.2v-.5h-.5l-1-.4-.7-.5-.2-.2q-.2 0-.5.3l.2.3-.2.4-.3.3v.1h-.2v.4h-.5l-.2-.2v-.1l-.2-.2v.3h-.8l.3-.4v-1.1l-.4-.4-.2.3-.8 1.6-.7 1-.3.3-1.4.7h-.4l-.3-.4-.2.3h-.5v-.6h-.3l-.6.5h-.2l-.3.2-.2-.4-.3-.4v-.4l.2-.2v-.2h-.3l-1-.7-.6-1.1-2-.7-.6 1-1.3 1.8-1 .8-.2.8-.4.3-.4-.4-.2-.4h-.4v-.5h.6q0-.5.3-.7v-.6l.1-.4v-.7l-.3-.3q0-.6.3-1l-.3-.3h-.7l-.2-.4v-.5l-.3-.3v-.5l.3-.6 1.1-.8.3-.6v-1h-.2v-1l-.5-.7v-.3l-.2-.2-.4-.3v-.6l.2-.2v-.4l.2-1v-.4l.3-.4h1.2l.4-.4 1.2-.1.5-.4.6-.1-.5-.5h-.4l-1-.2h-.4l-.2.3-.4-.1v-.5l.7-.6.5-.4h.4l.4.4v.4h.2l.4.3 1.1-.6h.4l.7.3h1l.2 1.4.4.3h.6l.5-1-.5-.6v-.6q.3 0 .6.2l1.2-.4h.5l.4.3.4.6h-.4l-.4-.4h-.3q-.2 0-.4.2l-.5 1v.7l.1-.2.4-.2.2-.1 1.4-.2 1.2-.2q0-.6.3-.8h1l1.3-.3v-1l1.3-1.5v-.8l.1-.2.6-.2 1.2-1 .4-.3.4-.7.2-.2v-.8l.2-.2h1l-.1-.2v-1.2l.6-.2h.4l.8.4.5-.4z" opacity="1"/>
        <path id="Hiroshima" fill="#191970" d="m306.6 442.3-.1-.5-.1-.3-.1-.6.2-.4.5-.7 1.3-1.7.2-.6v-.7l.2-.4.2-.6.5-.6v-1l-.1-.2v-.6l.3-.4 2.2-1.6.4-.4.2-.2h.3l.5.5h.4l.5-.3 1.3-.5.8.3h.7q0-.4.3-.4l.3-.2h3.6l1.2-.7 2.6-1v-.4l-.1-.3-.4-.3-.5-.4-.1-.1v-.2l.3-.3.6-.7.3-.3.4-.4.6-.1 1-.7 1.8-2.3.6-1q0-.3.3-.5.2 0 .4-.2l.6-.1 1.9.3h.4l.8-.4h.4l.8.4.5.3h.5l1.2-.3h.9q.4 0 1 .3h2q.4 0 1 .4l1.2 1.8v3.3l.2 1v.8l.3.4 1.2 1.8v3l.3.8.6 1.4v2l.3.4.7 1 .6 1.3v1l-.2.6h-.3q-.3 0-.4.2l-.1.5.2.3-.3.7-2 2.6q-.3 0-.5.4l-1 .5h-.6l-.2-.2.2-.3.3-.2h.4l.3-.1q0-.4.3-.7l-.3-.4-.6-.1h-.8v-.2l.6-.5-.3-.6-.6-.4-.5 1.9q-.3 0-.5.4-.3 0-.5.4-.3 0-.4.4.3 0 .6.4l.2.9-.2.6q-.2 0-.5.3l-.2-.1-.4-.4h-.3l-.3.4-.6.3-.6.7h-.3l-.5-.2-.2-.6v-1.4h.2l.3-.3.5-.7.3-.2v1.3l.6-.1.4-1.2.6-.1v-.4q-.2 0-.5-.3l-.5-.3-.3-.2h-1q0 0-.3.2l.2 1-.8.8-1.2.3-3.1.3q-.6-.1-1 .4l-.7.6-.5-1q-.3-.1-.6.4l-.5.7q-.5 0-1.1.4v.3l.3.3.2.4-.2.3h-1.3l-.7.3-1.4 1h-.8l-.2-.2-.1-.1-.1-.4h-.3l-.2.2h-.1l-.8.8-.4-.1-.3-.4.5-.5-.8-1-.4-1-.4-.3-.1-.2v-.7l.2-.2-.2-.6h.2l.4-.1h.2l-.1-.4-.3-.2-.6-.4-.4.3H318l-1-.5h-.7l-1.1.6-1 .9-2.6 3 .3.5.2.8v.5h-.2l-1-.4-.8-.6h-.3l-.5-.3-.5-.7-1.6-4-.3-2.7z" opacity="1"/>
        <path id="Okayama" fill="#191970" d="m342 421.2.6-.6.2-.2.6-.1 1.5-.7.5-.4.2-.4v-1.2l.4-.2 1.5-.1 1.4-.5.2-.1v-1.2q0-.3.3-.5l.3-.2.4-.1.2-.4.2-.2.3-1.2.4-1 .2-.3.3-.1h.5l3.7.8.6.4.4.3.4.3.8 1 .4.2.3-.2q0-.4.3-.4v-.4l.4-.4.3-.1.9-.6.3-.1.2-.4.4-.4.6-.2h1q0 .3.4.4v.8h.2l2.2.5 1 .6.5.7q0 .3.2.6l.2.4q0 .2.2.5v.3l.2.4.2.4.3.3.4-.2 1.7-.7h1.8l.5-.2.6-.6 1.4-.7v.5l-.2 1q0 .3.2.6v1l-.3.4-.3.3-.3.4-1.5 2.5-1.4 1.3v1.4l-.2 1q0 .6.2 1.4v1l-.2.7v1l.9.9.5.6v.4q0 0 .2.3v1l-.2.8-1-.1-.7-.2q-.5 0-.8-.4h-.3q0 .3.2.7l1.6.6h-.8l-.6 1h-.3q-.3 0-.5.4l-1 .7h.8l-.4.8-.8.6q-.6 0-1 .4h-1.3l-.7-.7-.5-.1H363l-.7.4q-.3 0-.5.3l-.3.3v.6l.5.3.4-.4.8-1h1.5l.3.3v.8l-.4.4q-.3 0-.4.3-.3 0-.4.3v.2l.2.3-.8-.3-.5.8-.4 1.2-.5.8-2.3-.4h-1.1l.2.8-1-.2-.4-.7-.3-.8-.7-.7q-.3 0-.3.2l-.1-.2-.2-.3v-.4h-.2l-.5-.1q-.3 0-.5.3-.3 0-.4.4l-1 .3-1.2.7h-.3v.4h-.2l-1 .5-.2.3h-.1l-2 .8 1.3-1.4.4-.7-.7-.4h-.3l-.6.6h-.8l.2-.3v-1.1l-.2-.4-.4-1-.7-.8-.2-.6-.1-.4v-1.6l-.6-1.4-.2-.7-.1-.6v-2.4l-1.2-1.7-.2-.6-.1-.7-.1-1-.1-1V423z" opacity="1"/>
        <path id="Shimane" fill="#191970" d="M295.6 434.7v-.2h2q.8 0 1.4-.4l.9-.3.5-.3.5-.4.2-.7v-.4l.3-.5h.7v-.4l.8-.6.9-1 1.2-.7.7-1 .4-.4h.6l.2-.4v-.7l1.4-1.2.7-.6.7-.7 1.7-1.3.6-.7 1-.2.7-.3.7-.5q0-.6.3-1.1l1.5-1.2q0-.3.3-.4l-.1-.3.5-.5v-.5l1.9-1.4.8-.7 1-.4v-.5l.6-.2.7-.4 1.4-.4.5-.3.4-.7.3-.6q0-.6.3-1v-1l-.1-.6-.5-.2-.6-.4-.2-.5q0-.4.3-.4h.6l.8-.2h1.5l.4-.1.2-.1-.3-.4-.6-.2h.4l.4-.2.7-.1.9-.5.9-.4.8-.2 2.4-.4h.7v-.7l.6-.1h.7l.6-.2.2-.4.7-.7h.5l.2-.3v-.6l.5.3.4.4.6.5.5.3.9-.3h.5l.6-.5v.3l-.1.3v.2h.5l.2-.1.6-.4h1.2q.2 0 .5.3-.3 0-.4.3h-.4q-.5 0-.8.4l-.4.5h-.1q-.6 0-1.3.4h-.1l-.1.3.2.3q.1 0 .3.2h.2v.8h.2l.3.6.2.3.7.6.4.2.9.3v.2h.2v.3l-.1.2h-.5v.5l-.2 2v1.8l-.1.6-.7.4-2.4 1.3-.7.6v.3l.2.3v1l-.7 1.4-.6 1.8h-1q-.5 0-1.1.3h-.5l-.5-.2-.8-.6h-.4l-.8.4h-.4l-2-.2h-.5l-.4.4-.3.4-.6 1-1.8 2.3-1 .7h-.6l-.4.5-.3.3-.6.7-.2.3-.1.2.6.5.4.3.2.4-.1.3-.3.3-2.3.7-2 .8h-2l-.3-.1h-.8l-.3.6h-.7l-.8-.2q-.6 0-1.3.4-.2 0-.5.3h-.4l-.3-.2-.2-.3h-.3l-.2.3-.4.4-2.5 2v.4l.2.4v.5l-.1.4-.5.6-.2.6-.2 1-.2.6-.4.8-1 1q0 .4-.4.7l-.2.4v.6l.2.3v.5l-1.7 1.6-.1.4v.6q0 0 .3.3l.1.6-1 .6h-.1l-.1.3-.2.6-.2.4h-.4l-.3-.4h-.7l-1.5.5h-1.5l-.4-.1-.5-.6-.2-.6-.2-1v-.5l.6-.7v-.3l-.1-.2-2.1-.4-.4-.4-.1-.4v-.6l-.2-.5-.2-.6v-.4l.4-.6.4-1 .2-.4v-.6q0-.7-.4-1.2l-.1-.4-.1-.5v-1z" opacity="1"/>
        <path id="Tottori" fill="#191970" d="m338 420.6.7-2 .7-1.2v-1l-.2-.4v-.4l.7-.6 2.4-1.2.7-.4.2-.6v-.6l-.1-1.2.2-2v-.2l.2-.1.3-.2v-.6h-.1v-.1l-1-.3-.3-.2-.7-.6-.2-.4-.3-.4-.1-.1v-.4l-.1-.1-.1-.1-.1-.2-.3-.2-.2-.2v-.3l.2-.1 1.3-.4v.5l.2.4v.4l1 .7 1.9.7h1.6l.8-1.1 1.5-.7 1-.4 1.6-.4 4.4 1 5.3-.4 2.8-.7.8.6 4-.6 1.9-.4.7-.2.6-.4q0-.4.4-.8l1.4-.4h.3l.4-.1.9.8.6 1.2.8 3.8.7 1.4v.6l.3.8.7 1v1q0 .3.2.6v.6l-.2.5-.3.5-1.3.9h-.4l-.4-.2-.2-.2h-.6l-1.4.8-.6.4q-.3 0-.5.3h-1.8l-1.7.8h-.4l-.3-.1-.2-.5-.1-.5-.1-.2-.2-.5-.2-.4-.2-.6-.5-.6-1-.7-2.2-.4h-.1l-.1-.1v-1l-.3-.1-.5-.1h-.6l-.6.3q-.3 0-.4.3l-.2.4q-.1 0-.3.2l-1 .4-.2.3-.3.3-.1.3-.3.5q-.2 0-.3.2l-.4-.2-.8-1-.4-.3-.4-.4-.6-.2-3.7-1h-.5l-.3.3-.2.3-.4.8-.3 1.3-.2.3-.2.3h-.4l-.3.3-.2.4v.9l-.1.2h-.2l-1.4.8H346l-.3.3-.1.3v1l-.2.3q-.3 0-.5.3l-1.5.8h-.6l-.2.4-.5.4-1-.2-2-.1z" opacity="1"/>
        </g>
        <g id="Kinki_group" class="region-group">
        <path id="Wakayama" fill="#191970" d="M417.7 464.2v.7l.1.4.3.6 1.7 1.8.2.5.3.3.4.4.5.1.7.4-.4 1.3-.5.3v.6l-.7.3v.4l.6.4-.4.6-1.5 1.3-.3.3q-.6.4-1.6.6l-.6.4-.3.3-.4.8.1 1.1q-.2 0-.5-.2 0 .3-.3.4l-.2-.6.5-.5v-.5l-3-.3q-.5 0-.9-.2l-4.3-1.6q-.6 0-1.3-.4l-1-.7q-.3 0-.4-.3l-.3-.4v-1q0-.3-.2-.6l-.2-.2h-.2l-.3-.4q-.2 0-.5-.2l-.4-.5.5-.7h1l.7-.3-.3-.5-1.5-1q-.3 0-.6-.2 0-.2-.2-.5h-.6l-.8-.5h-1v-.7l-1-.6-.7-.7-.6-1.4-1-.6-1.7.5v-.4q.2 0 .2-.2v-.4h.4v-.4l-.3-.4.4-.4q.3 0 .5-.4l-.2-.2h-.5v-.6l.4-.5h.7l.4-.2.7-.4.3-.6v-.6l-.3-.2-.6-.3-.6-.4h-.5l.6-1.1v-.2h.3v-.1l.2-.2v-.4q0-.3-.3-.4h1.8l.2-.4-.3-.6q0-.4-.4-1h-.5q0-.6-.4-1.2l-.5-.6-.8-.6-1-.2.4-.7.4-.4.5.5.6.3h2l3.6-.8.6-.2 3.6-1.1h2l2.2-1.2 1.4-.2.3 1.8v1.4l.3.3.8 1 .4.8v.4l-.2.3h-1.2l-.3.2h-.3l-.2.5-.6 1-.8 1-.3.5-.7 1-.3.8v.5q.4 0 .4.3.3 0 .3.2.2 0 .2.2l.2.4.2.6.6.8.2.8v.6l-.3.7v1.5l.2.3.2.3h.6l.5-.7h1.2q.6 0 1.2.3h.3q.2 0 .3-.2.3 0 .4-.2h1l.4.3z" opacity="1"/>
        <path id="Nara" fill="#191970" d="M413.5 431.6q.3 0 .5.4l.5.4.4.4 2.3 1h.5l.7-.3.5-.5.6-.2h.6l1 .4.6.3q.4 0 .7.3l.6-.2.2-.4h.4l.2.4v.4l.2.4.2.9-.2.3q-.4 0-.7.2v.2q.2 0 .4.3v1.9l.2.3.4.4 1.2.6h1.1l.2.3.3.7h.9l.2.5v.8l-.2.5-.7.7-.6.3q-.6 0-1.3.2h-.5l-.4.5-.3.5v.6l.1.6.2.3.8 1.8v.4l-.2.3v.4l.3.6.2.4v.6l-.3 1.3v2.3l-.7 2.7.2.5.3.6h-1.9l-.6.4-.4.5-.4.8v.5l-.4.6-.5.6-1 .6v.3l-.3.2h-.4l-.3.1-.2.8-.2.4-.8.5-1-1.2-.4-.2h-.9l-.4.2h-.6l-1.2-.3h-.8l-.4.2-.5.4h-.8l-.2-.4v-1.7l.2-.4v-1.4l-.7-1-.2-.5-.2-.4-.5-.4-.3-.3v-.5q0-.4.2-.7l.7-1 .3-.6.8-1 .6-1 .2-.4.3-.1.3-.2h1.2l.2-.3v-.5l-.4-.7-.8-1-.2-.3V447l-.4-1.7h.3l.2-.2.2-.3v-.7l.1-1v-1q0-.6-.3-1l-.4-1-.3-.2-.4-.4-.2-.6.8-1.7.6-2.7.2-.5.3-.6z" opacity="1"/>
        <path id="Hyogo" fill="#191970" d="M375 414.8h.8q0 0 .2.3h.8l.4-.1 1.2-1.2q0-.3.2-.5v-.6l-.1-.7v-.6l-.1-.4-.7-1-.2-.7-.1-.6-.7-1.4-.8-3.8-.6-1.2-.8-.7-.1-.1q0-.3.3-.5.4 0 1-.4l1.6-.6.9-.5 1.2-.7 1.5.6 1.7-.2h1.3l2.1-.2h1.4l.6.3.2.6.6-.6.2 1.4v1.7l.1.6.3.4.8 1 .7.6h1.1l1-.5q.1 0 .2-.2h.3q.3 0 .4.3l.2.4v.6l.2 2.4v.4l-.2.4v.4q-.3 0-.4.3 0 0-.2.3h-1l-.7-.5-.4-.1h-.6v.6l-.2.4v1.6l.1.4.3.3q.3 0 .5.3.6 0 1 .3.3 0 .4.2.3 0 .4.3l.3.4q.6 0 1 .3.3 0 .5.4l.5-.2q.3 0 .6-.4h.4l1 .3.3 1 .5 1 .3.4.7.6h1.5l.3.4.2.5h1.5l1 .9h.3l.2.7.2.4v.4l-.7.6q-.1 0-.5.3l-.4.2h-.3v.7l.8.5v1.6l1 1 1 .6.2.3v2.4l-.2.6v.8l.3 1.3.2 1v.3h-.2q0 .3-.3.5l-1 .8h-.5l-.5-.1-.7-.7H401v1h-.8v-.7l-1 .3.6 1.4-1-.1v-.8h-.6v1q-1.2 0-2.2.3l-1 .5h-1l-.8-.5h-1l-.6-.1-.7-1-1-.2q.1-.3-.4-.6l-1.6-1q-.4 0-1-.4l-1-1-.6-.2-1.4-.3q-2 0-3.7.3h-.3l-.1-.1-.2-.2h-.2l-.1.3q-.3 0-.4.3h-.5l-.3-.2-.2-.4v-.5h-.2l-.1.3-.2.2-.1.5h-.4l-.7 1-.3.3h-.4l-.3-.2-.2-.2-.3-.1h-.4l-.4.7v.4h-1.4q0-.6.3-1v-.3l-.1-.6-.1-.4-.1-.2-.5-.7-.8-1-.1-.3v-.6q0-.4.2-.7v-1l-.2-1.3q0-.6.2-1.1v-1.4l1.4-1.2 2-3.3.4-.3v-1.2l-.2-.5q0-.6.2-1zm18 22 .8.7v.3l-.3.6-.5.4q0 .4-.2.9l-.3.8-.8.8-.7 1-1 1.3v2.3l.5.5v.6l.3.4.7.9.2.6-.6.3h-.8l-.7.6-1 .3q-.1 0-.5.3l-1 1-1.4.3h-.6l-.2-.7-.5-.4h-.1l.3-.6.3-.6q-.6 0-1 .4l-.6-.7-.3-.8q0-.3.4-.5 0-.6.4-1 .3 0 .6.2l.5-.2 2.1-4.2.8-.6.5-.2.3-.2v-.3l.6-1 .3-.6 1.2-.7.4-.2.8-1 .5-.7z" opacity="1"/>
        <path id="Osaka" fill="#191970" d="m405 433.9.5-.4q0-.3.3-.5v-.2l.2-.1-.2-1.2-.3-1.2v-1.4l.2-.6v-1.8l-.2-.4-1-.4-1-1v-1.8q.5 0 .8.3h1q.3 0 .5.3.3 0 .5.3l.3.6.5.6.5.6 1 .4h.5l.2-.1v-.4l-.2-.2.2-.2v-.4h.6l.4 1q.3 0 .4.3h.7l.4.4 1 2 .6.8.2.5.2.9-.3.8-.6 2-.3.5-.2.5-.6 2.6-.8 1.8v.4l.2.2q.3 0 .4.3l.3.4.4.8.3 1v1l-.2 1v1.1q-.2 0-.3.2h-.3q-.8 0-1.4.2l-2.2 1h-2L402 448l-3.6.8h-2l-.6-.2-.5-.6.6-.7 3-1 1.4-1.1.8-.7 1-1.2 1-1.3.6-.7V440l.6-.2.2-.4.3-.2.2-.6v-2l-.2-.7v-1z" opacity="1"/>
        <path id="Kyoto" fill="#191970" d="m403.5 423-.7-.5v-.6l.2-.1.4-.2.5-.3.6-.6v-.8l-.3-.6-.3-.1-1-1h-1.5q0 0-.2-.3 0-.3-.3-.4l-.5-.2h-1l-.7-.4-.3-.6-.5-1q0-.6-.4-1l-.4-.1-.5-.2h-.4l-.6.5h-.5l-.4-.2q-.5 0-1-.3l-.4-.5-.4-.2-.4-.2-1-.3-.5-.3q0-.3-.3-.4l-.2-.6V410l.2-.3v-.4l.3-.2h.8l.6.6h1.1l.2-.3.3-.4v-.2l.3-.4v-2.9l-.2-.6q0-.3-.2-.5l-.4-.2h-.3l-.3.3-1 .4h-1l-.7-.5-.8-1-.3-.6v-.4l-.2-.5v-2.6h.4l.2.4.3-.1h.9q.5 0 .8-.3l.3-.1v-.5l.7-.5.7-.1.5-.2.4-.2 1.2-.8v-.6l1.5-.4 1.4-.4h.8l.5-.3.7.5.3.7q.3 0 .4.3l.5.7.3.8v1l-.7-.3-.6.3q0 .5-.4.9v.4l-.4.4-.8.8-.5 1v.7h.6v-.5l.4-.5.4-.6.4-.1.2.7q.3 0 .5.3 0 0-.3.2h-.6v.5l1.8 1q.3 0 .4-.2l.2-.1.4.6q0 .2-.2.5 0 0-.2.3 0 .3-.2.7v.3l.1.4.3-.4.3-.6.4-.5h.5q.4 0 .7.3l.2-.1v-1q-.3 0-.8.3l-.7-.4q0-.6-.4-1l.7-.6h1.2l.4-.2.3-.2q0-.4.3-.4v-.4l.8-.4v.6l-.3.4q.3 0 .5.3.3 0 .4.3l-.2.6-.4.3h-.3q0 .3-.3.5v.7l.2.3v1.4l.1.5 1 1.2.4.4.3.4.2.3q.3 0 .6.4l4.4 1 1.6-.1.8.8 1.6 1.8v.5l-.2 1.3v.6l.4 1.6v1l-.5 4v.5l.3.6.4.8.4 1v1.6l.2.3v.2h1.6l.6.9.3.3.2.3q.5 0 .8.3l.3.4.4.6v.8l1 2-.2.4-.6.3-.7-.2-.6-.4-1-.4h-.6l-.6.3q-.2 0-.5.4-.3 0-.7.3h-.5l-2.3-1-.4-.3-.5-.6-.5-.4.3-1-.2-.7-.2-.5-.6-.7-1-2-.4-.4-.4-.2h-.3l-.4-.2-.4-1h-.5v.4h-.3l.2.5v.3h-.7l-1-.3-.5-.6-.5-.6q0-.4-.3-.7l-.5-.2-.4-.1-1-.2z" opacity="1"/>
        <path id="Shiga" fill="#191970" d="M422.2 431v-.6l-.2-.4-.2-.4-.3-.3-.8-.3-.2-.4-.3-.2-.2-.4-.4-.2h-.8l-.4-.1-.3-.2v-.2l-.2-.3v-1.6l-.5-1-.7-1.4v-.2l.6-4.1v-1.3l-.4-1.6v-.4q0-.9.2-1.4v-.5l-1.7-2-.8-.7 2.2-1.6h1.7l.3-.2.4-.8.6-2.7v-.4l.3-.1h.4l.3.5q.4 0 .7.3l1.1-.8.8-.4h.4l.4-.1h.3l.2-.2v-1.1l.2-.2h1.2l.3-.6v-.6l-.4-.7v-.8l-.2-.6v-.2l.1-.4.5-.2.6-.1 2.6 1 1 1.7v.6l.2.7.5.8q.3 0 .4.3h.3l.3-.1h.3q0 .3.3.5l1 2.5.1 2v1.4l-.2.4v1l-.7 1.9v1l.7 1 .2 1 1 1 .1.4v.4l-.3 2.5-.4 1.4-.2 1.3-.2.6-.2.7-.2.5-.3.3-.3.4-1 .8-.8.5-2 .6h-1.8l-1.6-.4h-.4l-.3.3v.4l.3.8-.3.4-.6.6z" opacity="1"/>
        <path id="Mie" fill="#191970" d="m423.2 433.2-1-2.2 2.3-1 .6-.6.3-.4-.3-1v-.2l.3-.2h.4q.8 0 1.6.3h1.8l2-.6 1.5-1 .3-.3q0-.3.3-.5l.3-.2.2-.5.2-.6.2-.7.2-1.4.4-1.3q0-1.5.3-2.5v-.3l-.2-.5-1-1v-.7l3.3-1.1h.4l.3.3.3.6.3.4.7.8 1 .6 1.6.6.3.6.5.6.3.4.4 1.3.8 1h-.7l-1.3 1-.7.6-.3.5v.3l-.2.5v.3h.6q-.2 0-.5.4v.6l-.2.9-.6 1.3-1.5 1.9-1 1v1.8l-.3.6v.8l.3.6v.3h.4v1l-.2.4.3.4q.3 0 .5.3h1.3l1 .6.5.4.4.4 2.2 1.6 1.5.6.4.3.3-.1h.8l.3.4.2.4v.6l.4.4h1q0 .4.2.4v.4l-.2 1.4-.4-.2h-.6l-.3.4.2.3h.9l-.5.7-.2.3q0 .6.3 1v1.3q-.2 0-.3.3l-1 .4h-1l-.7-.2-.6-.2v-.4l.4-.2 1.2.4h.3v-.5l.3.3.2-1-.3-.3-.6-.1h-.5v.9l-1-.7q-.3 0-.5.3l-1 .3-.6-.2.2-.6.4-.7-.5-.1-1 .3-.7.3.6.3v.4q-.3 0-.4.3l-1.4.9h-.4l-.6-.7v.3h-.3v.6l-.9-.6h-.3v.5l-.3.3-.2.2.3.6h-.4l-1-.4-1.2 1-.3.3h-1l-1.3.7-1 1-.2 1 .3.3h.3v.8l-.3.3q-.3 0-.7.3l-.3-.2-.4-.7-.2-.1h-.2l-.4.9-.4.3v.3h.8v.3l.2.4.5.6.3.3v1.4l-.2.4-.4.1-.6-.6-.2-.4-.4.4q-.1.2-.4.3v.4h.7l.2.5-.2.3q-.2 0-.5-.2v.5l-.4.3-1 .2-.3.3q0 .3-.3.5h-1l-1.3 1.6-1.5 4-.7 1.6-.7-.4h-.5l-.4-.6q0 0-.3-.2l-.2-.4-.5-.4-1.2-1.5-.3-.6-.2-.4v-.7l1-.5.1-.4.2-.7q.2 0 .3-.2h.4q.2 0 .2-.2v-.3l1-.7.6-.5.3-.6v-.7l.5-.6.4-.4.6-.2h1.5l.3-.2v-.2l-.2-.5-.2-.5.7-2.7v-2.2q0-1 .3-1.4v-.6l-.2-.4-.2-.6v-.8l.1-.2-.8-2-.2-.3-.2-.4v-.7l.4-.5.4-.4.5-.1 1.3-.2.6-.3.7-.7q0-.3.3-.5v-.8l-.3-.2-.6-.1-.3-.2-.5-1h-1.1l-.5-.2-.7-.3-.4-.5-.2-.4v-1.8l-.4-.2v-.3l.7-.2.2-.3-.2-.8v-.6l-.2-.4v-.2h-.2z" opacity="1"/>
        </g>
        <g id="Chubu_group" class="region-group">
        <path id="Aichi" fill="#191970" d="m475 416-.2 1-.1 1-.3 1-.5 1-.4.8-1.7 1.6-.4.4-.2 1.6-.2.4-1.1 1.4-.2.4-.2.7-.3.4-.8.8q-.2 0-.5.3-.8 0-1.5.4l-.4.3-.3.3-.5 1.4-.1.6-.1 1v2h-1l-2.6.8-5.8 2-1.3-.1-1.5.4h-.8l.2-.4.2-.2.3-.6.3-1.2.6-.6 1 1 .1.4.3-.2v-.2l.5-.2.5-.2 2.6-2h.5l.7-1h.4v1.5h.2l.2-.6v-.6q.3 0 .6.2l.3-.2-1-.4.4-.6v-.7l-.7-.8-.5-.4h-.4l-1.3-.4-.4.5-.4-.2-.2 1.4h-.5v-.5h-.4l-.5-.2h-1l-.5.4-.5-.2-.6.3-.7-.2h-.3l-.4-.7-.2-.2-.6-.7-.5-.2v-1l.7-1.4v-1l-.4.6-.4.8-.5 1-.4 1.2-.3 1.8.3.4.4.6.7.4.3.8v.6h-.8l-1-.5-1-.6-1-.8v-.6q0-.4.3-.7v-.6l.3-.7v-.4l-.2-1-.4-.4h-.4l-.2-1v-2l.3-.6.3-.6 1.1-2V420l-.3-.1-.4 1-.2.8-.2-.7v-.5l-.4-.1.3 1.6h-.8v-.5h-.4v.9h-.6l-.8-.2-.4-.6-.4-.6-.4-1.1-.3-.6-.5-.4q0-.4-.3-.7v-2.7l.2-.7 1.4-2 .8-1.7.2-.4q0 0 .3-.2l.2.3q0 0 .3.2h.5l.7-.4.6-.4q.9 0 1.8-.4l.6-.2.2-.1h.8l1.4 1 .2.3.2.3v.4q0 0 .3.2l.4.4h.2l.4.9.2.2h.7l.7.4 1 .8h1.1l2-1h.8l2.2 1 .7.9q.2 0 .4.2h.5l1.3-.6.7-.6.2-.1 1.4-.7-.2 1.2.5 1.3.5.5h.4l1.6-.6.6-.2h.6l2 .4z" opacity="1"/>
        <path id="Shizuoka" fill="#191970" d="m507 409.4 1.9-.4.7.3v1.5l.2.3v.7l.2.4v.3l-.1.3-.1.3-.5.6-.2.3-.1.8.5 1.7.5.8.3.5.2.2 1 .3.6.3q.3 0 .6.2l-.2.3-.3 1.2v.8q.3 0 .9.2l-.2.6-.1.6-.3.5.4.8.9.5.3.8.2 1.3-.2 1-1.2.7-.4.6-.1.3-.3.8-.4.6-.2.6-.3.3h-.5l-.2.5-.2.3-.4.4v.6l-.3.6-.1.6v.7l.3.4q-.3 0-.4.3h-.2l-.3-.4-.7-.2-1.3 1-1 .7-.8.6-.8-.6-.4-.5-.6-.7.2-.6-.2-.2-.2-.2-.4-.2-.2-.4v-1.4l.3-.2.2-.4.3-.2-.4-1-.3-1.1q0-.4.3-.7v-1.4l-.2-.3q0-.3.3-.5l.4-.4.4-.1-.3-.5-.2-.3-.3-1v-1l.4-.6q0-.6.3-1h1.2l.8.4h1l.5-.4-2-2.4-1-1q-1 0-1.7-.3l-1.4-.2-1.8.8h-1.4l-1 .8-.8 1.6-.8.6-.1 1q0 .3.3.5v-.7l.4-.3h.3l-.5 1.4-1.3.8-1.1.4-1 .4-1 .7-.3.3-.2.7-.3.4-.2.8v.3l.4.6-.5.8-.3.3-.6 1-1.3 1-1 1-.4 1.9-.3.7.3.7h.7l.4.7-.2.3-1.3-.4-4.1-2-2.4-.2h-2.2l-3 1-3.1-1.1-2.6-.3h-1.4q-1 0-2.3.3v-.8l-.1-.6v-1.5l.2-.6.5-1.4.3-.3.4-.4 1.5-.3.5-.2.8-1 .3-.3.2-.6.2-.6 1-1.2.3-.6.2-1.4.4-.6 1.7-1.5.4-.7.5-1.1.3-1v-1l.3-1 .9-.3 1-1.2.7-.2 1.3-1.1.6-.4h.7l.4-.2.2-.2q0-.3.3-.4l.7-.7.9-.1.5-.4 1-1.1.2-.6-.1-.2-.2-.4-.2-.4v-.6l.6-.6.2-.4v-.7l-.1-.4v-.7l.2-.4-.1-.5v-.4l.2-.6.3-.1.4-.2.3-.2v-.3l.2-1 .3-.5.5.5v.3l.3 1 .4 1.5v.7l.2 1.4-.2 1.2-.1.4v1.3l-.2 1v.9l.2.3v1q.3 0 .4.3h.5l1.2-.1h.7l.7.8.4 2 .3.6.2.6.4.3.6.5.4.3h.8l.4-.1.4-.4.4-.3v-.2l.2-.2v-1.4l-.1-1v-1.2l.4-1.4.2-1.7v-.6q0-.3.3-.5l.3-.2h.4l1 .9.6.3h.7l.4.3.2.3q.3 0 .5.4.4 0 .7.2l3.9-.6z" opacity="1"/>
        <path id="Gifu" fill="#191970" d="m429.6 399.8 1-1.7.7-2.2.3-.2.4-.2.4-.2h.4l1 .6h1.6l.7.4h.2v-.1l.3-.4.4-.1 3-.7h2.2l1.2-.1h1l.2-.4.4-.7.4-.4.2-.4v-.6l-.3-.6-.4-.7-.4-.4-.3-.2-.8-.2-.3-.2-.3-.3-.2-.3v-1.7l.2-1.4.3-1 .2-.4v-.8l.6-1.2.3-1.5.2-.5 1.5-2v-1l-.6-.7-.2-.2-.3-.7h1l.2-.1v-.3l.6-1.4.4-.1 1 .1h.4l1.4.7v1.6h.4l.5-.2.7-.9.5-.2.5-.6v-.5l.2-.4.2-.1.2-.2.4-.2.4-.4 1.5-1.7.4-.4h.4q.2 0 .4.2h.8l2.2-.8h.2v1l.3.1h.4l.3-.2.3-.4h.9l1.6.8 1.9.4 2.5 1 1.3 1.1.3.7.2.4-.1.6-.3 1-.2.4-.2.4-.8.9-.3 1.1v1.2l-.4.8-.2.9v.6l.5.6q.3 0 .5.4l.2.6v.4l-.1.5-.6 1-1.1 1.9-1 1.3-.3.5-.4.4h-1.5l-1 .8-1.1 1.6-.4.8v.4l.3.3h.7l.6.5.2.3q0 0 .3.2.4 0 .8.2l.3.3.3.3.8 1.9.3.3.9 1.3v.4l-.1 1.3.6 1.8v.2l.9.6.7.8.3.8v.6l-.1.7v.4l.4 1v.3l-.2.3-.6-.1h-.3l-.1.3.3 1v1l-.8 1.5-1.4.8-.2.3-.7.4-1.3.6h-.5l-.4-.1-.7-.7-2.2-1h-.9l-2 1h-.4l-.4-.1-.2-.2-1-.7-.7-.3h-.5l-.2-.2-.2-.1-.4-.7-.2-.2-.4-.4-.2-.2q0-.4-.3-.7l-.2-.4-.6-.2-.8-.6-.4-.1h-.6l-.6.3-1.8.4-.6.4-.7.4h-.5l-.3-.2-.2-.2-.5.5-.8 1.7-1.4 2v.6l-.2 2.9-1.6-.7-1.7-1.3q0-.3-.3-.5 0-.4-.3-.7l-.7-.3-3.4 1-.7-1v-1.2l.6-2v-.7l.2-.6v-3.1l-.7-1.7q0-.5-.3-.8l-.3-.4-.3-.1h-.6l-.4-.2-.5-.8v-.6l-.2-.7z" opacity="1"/>
        <path id="Nagano" fill="#191970" d="m467.9 373.4.5-.7.9-.7.3-.4.2-.3.4-1.3.4-.9.4-.4.2-.6v-.2l-.1-.4v-.5l.4-.4.4-.3.6-.7v-.6l.2-.6v-1l.2-.6-.1-4 1.7-.6.4-.4 1-1.6.2-.6.2-.3-.1-.7v-.3l.2-.3.2-.4h1.4q.4 0 .6.2h.4l.5.3h.4q.3 0 .5.3l.2.1.2.3v2l.2.2 1 .6h.4l.4-.6.4-.4h.4q1.2 0 2.3-.3l.9-.5h.7q.3 0 .6.4l.3-.2.2-.2v-1l.2-.3.3-.6.3-.2.8-.4.8-1.4.4-.4.5-.5 1.2-.5 1.7-.5h1l.6.3q.3 0 .5.2l.2.4.4 2.4.2.7.7.8 1.2 1 .3.3.3.4v2.8l.4 1.2-.6.1-1 .3-.4.1-.3.3h-.6l-1.2.4-.6.1h-.4l-.2.5-.1.4v.4l-.1.4-.2.3-1.1.3q-.2 0-.3.2l-.2.3-.1.4-.1.3-.2.3-.2.4-.2.3-.1 1-.5 1.5-.1.7-.1.5v.8l.4.5.5.6.9.6h.8l.5-.2h.9q.4 0 .8-.3l.4-.2h.9l.5.3.4.4.2.5.2 1.8v1l-.2.4-.3.3-.6.3-.1.5v.5l.2 1q0 .4.3.8v.7l-.1.4-.3.1h-.5l-.2.3v.4l.2.3.8.7.3.3v3l.5.6 2 1.8v.6l.5 2-1.5 1.3-.5.2h-.7l-.3-.1-.2-.4-.2-.3-.1-.4-.3-.1-.4-.2h-.4l-.7-.1h-.4l-1.6.3h-.4l-.2-.4-.1-.2v-.6l-.1-.3-.3-.2-1-.5-.6-.2h-.4q0 0-.3.2l-.3.5-1.5 2.7-.3.3-.2.2h-.4l-.6-.4h-.3l-.3.4-1.1 2.6.2.4.4.3v.8l-.7.8-.2.4v1l.4 1 .4.7-.3.6-.1.9-.1.3q0 0-.3.2h-.4l-.3.4-.2.4v1.4l-.1.6v.5l.2.4-.1.3-.2.4-.5.6-.1.3v.4l.2.3.2.3v.9l-.3.4-.8.8q-.2 0-.5.3l-1.2.3-.4.4-.3.4-.2.3q-.2 0-.4.2h-.7q-.3 0-.6.4l-2 1.3-1 1-1 .5h-1.5l-2-.6h-.6l-.6.3-1.6.6h-.4l-.3-.2-.2-.3-.5-1.3.2-1.2.5-1.1q0-.4.3-.4v-1.1l-.3-1v-.4h1l.2-.1v-.4l-.3-1-.1-.4v-1.2l-.2-1-.7-.7-.8-.6-.1-.2-.6-2v-1.5l-.2-.4-.6-.8-.3-.5-.8-2q0 0-.3-.2l-.3-.2-.8-.2-.3-.2-.2-.4-.3-.2-.3-.1-.7-.2-.3-.2v-.4l.4-1 1-1.4.6-.4.5-.2h1.1l.4-.2.4-.4.3-.6 1-1.2 1-1.8.7-1.2v-.8l-.1-.7-.5-.3-.4-.7-.1-.5.2-.8.4-1v-1.7l.3-.5.8-.8.2-.5.2-.4q0-.5.3-1v-.6l-.1-.5-.3-.6z" opacity="1"/>
        <path id="Yamanashi" fill="#191970" d="m507.7 392.9.7.8.7 2 .3.4.3.6 1.3 1.3 2.5 1.4-.2 1v1.6l-.2 1.6-.2.6-.3.3-.3.3-2.6 1.6h-.6l-.6.4-.5.6-.8 1.3-.2.6-2 .7-4 .4-1.1-.6-.2-.2-.4-.2-.7-.1-.6-.3-1-1h-.4l-.3.3-.2.5-.1.6-.2 1.8-.3 1.3-.1 1.3v.9l.2.4v.8h-.1l-.1.4-.1.2-.4.3-.4.4h-1.2l-.4-.1-.6-.6-.4-.4-.2-.4-.3-.6-.4-2-.3-.6-.4-.2-.7-.1h-.6l-.6.3-.5-.2-.3-.2-.1-.3v-.7l-.1-.4-.1-.4v-.4q0-.7.3-1v-.6l-.1-1v-.2l.2-.7v-2l-.7-3.1-.1-.2-.5-.6-.4-.7-.3-1-.1-1 .2-.4.7-1v-.6l-.4-.3-.2-.5v-.2l1-2.3.4-.4h.3l.6.4h.4l.2-.2.3-.3 1.5-2.7q0-.3.3-.5l.3-.2h.4q.3 0 .7.2l.9.5q0 0 .3.2v.8l.2.4.2.3h.4l1.6-.4h1q.3 0 .5.3h.4l.3.3v.3l.3.3.2.4h1l.5-.1q.7-.8 1.5-1.3l2.4 1.5 1 .3q.6 0 1 .3z" opacity="1"/>
        <path id="Fukui" fill="#191970" d="m414.6 410.9-1.6.3-4.4-1.2-.6-.5-.2-.2-.3-.3-.5-.6-1-1.1v-.8l.1-.6v-.1l-.3-.8v-.5q0-.3.3-.5.3 0 .3-.2l.4-.1v-.2.8h.3l.2-.1.3-.2.2-.7v1.9h1.9l1-.7.4-.7.7-.2.6.3-.8.4-.2 1-.4.3q.4 0 .7.2l1.5-.4h.8l.4-.4.3-.5v-.7l-.8.5-.3-.7-.5-.2.4-.6 1-.2.2.2.3.5h.6l.5.7h.5l.3-.3-.2-.4-.4-.7v-.2l.4-.1.3.3.4-.2.5-.2v-.2l-.3-.2-.2-.3v-.6h-.3l-.4-.6v-.4h.2q.3 0 .6.4l.3.3q.3 0 .4.3l1-.4.3.4.3.3.5-.4.4-.3h.6l.2-.2v-.4l-.5-.4q0-.6.3-1v-.7h-.5v-1q.5 0 .8-.3l1-1 .5.6v.4l.2.5.2.8-.2.4h-.3v.3l.4.4v.4h.7l.2-.7.2-.1v-1l.3-.2v-1l.2-.6v-.6l-.3-.6-.3-.7-.2-.4-.7-.6-1-1.1-.6-.6v-1.7l-.6-1-.4-.4v-1l.8-.5.4-.4.5-1.1.8-2 1.4-1.9.5-1 .3-.3.5-1-.5-.7.2-.2.6-.1h.5l1-.3 1-.9.3.6 1 .6.3.5v.2l.2.3.2 1 .2.6v.4q.3 0 .5.2l.3.1h.7l.6.3 1 .6h.7l.4-.2.4-.1h1l1 .3 1 .5.6.5 1 1.3q.3 0 .5.4h.5l2-.4v.9l-.2.3-.3 1v1.4l-.2.8v.8l.2.3.3.3q.1 0 .3.2.4 0 .8.2h.3l.4.5.4.8.3.7v.4l-.2.4-.4.5-.4.8-.3.3h-1q-.5 0-1 .3h-.6l-1-.2h-.7l-3.4.8-.2.4v.3l-.3-.2-.7-.3-.3-.2h-1.3l-1-.3-.4-.2h-.4l-.7.5q0 .3-.3.5l-.4 1.8-1 1.7-2.6-1h-.6q-.2 0-.5.4l-.2.3.3.8v.8l.3.7v.7l-.2.4H425v.3l-.2.3v.8l-.2.3-.3-.1h-.8q-.3 0-.8.5l-.7.5h-1l-.4-.4-.4-.1h-.2v.5l-.7 2.6-.2.6-.2.3-.3.3h-.6l-.4-.1h-.7l-.6.3z" opacity="1"/>
        <path id="Ishikawa" fill="#191970" d="M443.2 384.3q-1.2 0-2.4.4l-.4-.4-1-1.2-.7-.6-1-.6-1-.1-1-.1h-.4l-.4.3h-.6l-1-.7h-.7l-.7-.1-.3-.2-.4-.2v-.4l-.3-.6-.2-1v-.3l-.4-.5v-.2l-1-.5v-.1l-.5-.6 1.5-1.2.6-1 1.4-.6 1-1 1.4-1.4q3-4.4 6.2-8.4l1.4-2.6 2-5 .2-.7v-1l-.2-.2-.2-.2v-.3l.3-.7.2-1-.2-.7-.6-.6-.3-1.2-.3-.2v-.8l.2-1.8-.2-.7-.3-.2h-.3v.4h-.7l-.2-.5.2-1 .2-.7.2-.6.5-.6-.3-.3.5-.4.4-.7.2-.6-.3-.4v-1l.7-1.2 1-.7 1.8-1 1-.2q.4 0 .8.4l1-.2 3.1-1.6.8-.2 1.2-1.4 5.4-1.6 1.3.5.3.4-.2.8v.4l.4.4-.1.4-.1.3q-.4 0-.8.3h-.5l-.6-.2-.6.3q-.2 0-.4.2l-.2.6q0 .7-.3 1.3l.4.8h.5v1l-.3.4-.8 1h-.6l-1.3-.4q-.7.4-1.6.6l-.5 1-.6.7v.8l-.5.3-.6.1-.2.5-.4.3-1-.4-.6-.4-.4-.4.3-.3v-.3l-.4.3h-.3l-.2.5-.2.5-1 2q0 0 .3.2v.8l-.2.3h-.6v.8l-.2.4.4.3.6-.2.6-.4h.6l.8 1q.2.2.5.3l.7-.2.6-1.6q.2 0 .4-.2h.3l.2 1-.2 2 .2 2-.3.3H451l-1 .7h-1.2l-.3.3q0 0-.3.2l-1 1.5-.8 2-.2.7v.8l-.4 1.4-.2.3-.6.5-.2.3v1l.2.4v.6l-.5 1.7v1.1l.4 1v1.4l-.2.3-.2.7q0 1-.3 2v1.3l.3.6.2.4v.7l-.2.8v.6l.5 1.8.2.1.6.8v1l-1.5 2-.2.6q0 .8-.3 1.4zm9.6-39.3v.9l-.3.3-.5.1h-.5l-.5.4-.4.1h-.3l-.4.3h-.2l-.2-.4-.6-.9-.3-.4.2-.4h.2l.2.4h.7l1-.3.2.2q.1 0 .3.2h.2l.3-.2q0-.4.3-.4h.4z" opacity="1"/>
        <path id="Toyama" fill="#191970" d="m444.8 376.5-.3-1.2v-.4l.3-1v-.6l-.2-.4-.2-.6v-1.2l.4-2.8v-.3l.3-.7v-.5l-.4-1v-1.4l.5-1.6v-.7l-.2-.3v-1l.1-.2.6-.6.2-.4.4-1.3v-.8l.2-.7.8-2 .3-.6.7-1 .3-.2q.2 0 .3-.2h1.1l1.1-.5h1.5l-.4.5v1q-.7.7-1.2 1.6l.6 1.1 1.3 1 1 .8 2.1 1q.6 0 1.2.2l1.3-.4 1.6.4 1-.2.6-.7.9-.7.4-1 .4-.6v-.6l.3-.7-.2-.7.4-1 .6-.2 1.5-1 2.6-.4.8-.2v.3l.7.6 1 .6.3.3.3.6 1 5 .1 4.7-.1 1-.1.4-.1.5-.6.8-.4.4-.3.3-.1.4v.8l-.1.4-.8 1.4-.4 1.3-.2.4-.3.3-1 .6-.4.8-2.5-1.1-2-.3-.6-.4q-.8-.1-1.4-.6h-.4l-.3.4-.3.3h-.4l-.2-.2-.1-.2v-.6l-.2-.2h-.4l-1.8 1h-.4l-.4-.2-.4-.1h-.4l-.4.3-1.5 1.8-.4.4-.4.1-.2.3-.2.2v.4l-.2.3-.2.4-.7.4-.8 1-.5.3-.4-.1v-.2l.1-.7v-.6l-.4-.4q-.5 0-1-.3h-.6l-1-.2q0 0-.3.2l-.2.3-.2.4v.5l-.2.3-.3.3h-.2z" opacity="1"/>
        </g>
        <g id="Kanto_group" class="region-group">
        <path id="Niigata" fill="#191970" d="m472.8 359-1.1-5-.3-.7-.3-.3-1-.7-.6-.5-.1-.3 2-.5 6.3-2.6 3-2 1.5-.6.7-.7.6-.8q1 0 2 .4l1.2-.4 1-.4 2.5-1.9 3.3-3.2 3.3-2 .8-1 .6-1.3.7-1.5 1-1.7 1.8-1.5.8-1 .6-1.5 1.3-4.7.5-1.4.9-1.2 2-1.7 3.9-2.6.3-.4h1.8l3.2-1.8 1.9-1.4 3-3.3.5-.7.2-.7 1.2-9 .6-1.6 1-2 .6-1.4h.4q1.3.8 2.7 1.3l.8.1.4.3.2.2v.3l-.1.3v1l-.1 1.3.2.6.2.5.4.4.4.3.8.5q.3 0 .8-.2h.4l1.2 1q0 .3.3.4 0 .1.2.3 0 .3.2.4v.6l-.2.8-.2.5-.3.5-1.1.8-.4.2-.5.2h-.6q-.6 0-1.2-.2h-.4l-.4.4-.3.4-.4 4.4-.6 1.1v1.4l-.2 1-.1.3-.1 1-.3.7-.1.5v.5l.4.6.7 1 1 .3 1 1-1.7 2-2 3-1.4 1.6-.3.5-.1.4v.6q0 .3.3.4v.4l.2.6v2h-1.4l-.7.1h-1.8l-.4.3-.3.4-.4 1h-.3l-1-.2h-.3l-1.8.6h-1.1l-.5.3-.4.4-.2.5-.1.3v.4l.3.3.4.8v.4l-.6 2.6-1 1.7v1l.5.6.2.3h.2l.3-.2h.2l.2.3.6 1.3v.4l.2.3-.1.6v1l.2 1.8v.3l-.3 1-.1 1.4-.4.6q-.3 0-.4-.2h-.3l-.6-.2-.5-1.3-.8-.7-.2-.4-.2-.2-.2-.2h-.7l-.2.2-.3.8-.2.3h-.1l-.6.4-1.7.6h-.3l-.1.6v2l-.1.3-1 .3-.2.3v.3l-.2 1-.2.1-.4.4-1.5.6-.4.3-.3 1-.2.2-.4.4-.7.4h-1.4l-1.2.7-.4-1.2v-2.7l-.3-.6-.3-.2-1.2-1-.7-.8-.2-.7-.4-2.3-.2-.5-1-.5h-1.1l-1.7.5-1.2.5-.5.4-.4.4-.8 1.6q-.4 0-.8.3l-.3.3-.3.4-.1.4-.1 1-.2.3h-.3l-.6-.2h-.7q-.5 0-1 .4-.4 0-.8.3h-1.8l-.4.4-.4.5h-.4l-1.1-.7-.1-.3v-1.7l-.2-.2-.2-.2-.5-.2-.4-.2h-.5l-.4-.2-1-.3h-.6l-.4.1-.2.4-.1.3-.1.3v.7l-.1.4-.2.4-1 1.7-.4.4zm21.3-48h1q.8 0 1.4-.3h1v1.6l-.3.6-1.2 2-.3.8-.4 1.4-.4.4-3.4 2.4-3.7 1.3-.6-.3-.2-.2-.1-.4v-.4l.3-.2 1.4-.2.4-.3v-2l.4-.8 1-1 .3-.7-.8-1-2 .7-.4-1.2V312l.3-.7q0-.4.3-.7l1.2-1.7.5-1.2.5-.7.6-.3.2-.5 1.3-1.4q.4 0 .8-.4l1.2-2.2q0 0 .3-.2h1.2v.5l-.4 2.4-.6 2.3-1.2 2.8-.2.8v.7l.2.5h.2z" opacity="1"/>
        <path id="Kanagawa" fill="#191970" d="M513.5 399.5h.8l1 .9h.6l1.2 1.4.7.3.9.3h1.3q.4 0 1 .3l.6.3.6.6.2.4 1 1.3v.2h.2v-.2h.2v-2h.4v-.6l-.8-.7-.2-.2v-.2l.3-.1q.3 0 .5.3h.2l.2-.2v-.2l.3-.2.3-.2h.8l3.3 1.8q.1 0 .3.2l1 .6 2.5 1-.1.4-1 .6-1 .8h-.7l-.6-.2h-.5l-.2.5q.3 0 .5.3l.6.3.2.2-.2.4.2.8h-.4l-.7-.4q-.3 0-.4.3l.2.4.4.4-.1 1.4-.1.5v.6l-.1.4.3.5.2-.5.4.3.5.8h1.2l.3.6-.6.6.2.3-.1.6H530l-.6.5-.2.5.3.8.3.4v.3h-1.2q-.3 0-.4.3l-.3-.1-.1-.4v-1l-.3-1 .6-.4-.1-.2-.4-.2-.2-.6-1-1v-.4l-.1-.4h-.4l-.1-.6h-1.1l-.6.3-.6-.5-1.5-.2-5.3 1.2-1.5.8-1.1 1-.1 1.8.5 1.6-1.1-.5-.8 1.3-.6-.2-.6-.2-1.2-.6-.3-.4-.5-1-.5-1.7v-.7q0-.3.3-.4l.5-.6v-.2l.2-.2v-.4l-.2-1.2-.1-.2-.1-.3v-1.2l-.7-.2-2 .3q0-.4.3-.7l.8-1.4 1-.8q.4 0 .7-.2l2.6-1.4.3-.4q0-.3.3-.4l.2-.4q0-1 .3-1.7v-.5l-.1-1.2z" opacity="1"/>
        <path id="Tokyo" fill="#191970" d="m535.3 395 .6 3-.1.8-.2.5-.3 1-.4-.2-.3.4-.1.4-.4-.2-.1-.7h-.4l-.2.8-.3.6-.5-.6v-1l-.2-.2-.2.8.3 1 .4.8v.3l.5 1-.4.5v.5h-.1l-2.5-1-1-.5-3.6-2h-1.1l-.3.5-.2.3h-.2l-.5-.3h-.2l-.1.3.2.2.8.6v.7h-.3l-.1.3v1.7h-.1l-.1.2h-.1l-.1-.2-1-1.2-.2-.4-.6-.7q-.3 0-.6-.4l-1-.1-1.3-.2-1-.2-.6-.3-1.2-1.2-.6-.2-1-.7-.8-.2-2.5-1.6-1.3-1.2-.3-.6-.3-.4-.7-2-.7-.7.9-1 1.2-.5.3-.2h.3l1.3 1 6.2 1.7h.5l2.8 1.9h1.5l.9-.2.8-.6h.9v.7q.2 0 .3.2l2-.2.4-.3.3-.2.4-.2h2.4q0-.4.3-.4l.2-.2h1.9z" opacity="1"/>
        <path id="Chiba" fill="#191970" d="M532 384.2h1.5l1.8 2.6 2 2.5 1 .9 4.7 2 1.2.4h.6l4.6-.3.6-1 .7-.1 2-.4 2.6.3q.3 0 .5.2l3 1.5.6.3.6.4q.8.7 1.3 1.6l.6.7.6.5q.5 0 .8.3h1q.2 0 .4.2l.2.3-.3.9-.3.3-.4-.2q0-.2-.2-.4l-.3-.4-.7.3q-.4 0-1 .4l-1.5.4v-.6l-1.7.5-2 1.3-3.2 3-1.7 2.8-1.1 4 .5 1.8.3 1-.5 3.8-.5.6h-.8l-.6.8v.4l-.3.6-.5-.2-.2-.4-.5.5-.7-.1-.5.8-1.1-.2h-1.3l-.6-.2-1 .9v.8l-.8.6h-.5l-1 .6-1 .8-.2.5-.2.6-.3.4v.7l-.1.5-.3.5-.2.3-.5.5q-.5 0-.8.2h-.5l-.4-.2h-.4q-.3 0-.4.3l-.1-.2-.5-.2v-1l-.3-.2-1-.4h-.6l-.1-.3v-.4h1.6l.4-.2q0-.3.2-.4h.4q.3 0 .5.2 0-.2.2-.2v-.8l-1-.6v-.2q0-.3.4-.4v-.8l-.2-.7-.1-.3V418l-.5-.7v-1q0-.3.2-.6l.8-.5.4-.3v-1l-.5-1v-.5l-1.2-.5-.7-.2-.1-.2h.6l.7-.3v-.7q0-.3.4-.6 0-.3.2-.6l1.4.6q0-.4.4-.7v-.3l-.2-1.2q0-.3.4-.4l.8-.2.5-.6h.7l.7-.6q0-.4.4-.7l.7-.7.8-1.1h.6q0-.2.2-.5v-.4h-.3l-.1-.6-.1-.7-.5-.4-.5-.6-.4-.3-.7-.7q-.3 0-.4.2l-.3-.6h-1q-.6 0-1 .4l.7.9-1.3.8-.2-.4h-.3l-.2-.2-.2-.1q0-.6.3-1 0-.2.2-.5v-.8l-.5-3q0-1.5.2-3.2l-.4-1.2-.6-.8-.2-.5-1-3-.3-.6z" opacity="1"/>
        <path id="Saitama" fill="#191970" d="M529.7 381.5v.4l.3.6.8 1 .4.3.2.2.6.1 1 1.6.3.6 1 3q0 .3.2.5l.6.8q0 .2.2.4 0 .4.2.8v.7l-.2 2.5-1.8-.5h-2.1l-.3.5h-2.5l-.3.3q-.3 0-.3.2-.3 0-.4.3-1 0-2 .2l-.2-.2v-.3l-.1-.4h-1l-.7.6-1 .3h-.6l-.8-.2-2.8-1.6-.5-.2-6.6-2-1-.5-.2-.2h-.3l-2.1 1.7-1.6-.2-1.1-.2-1-.3-2.4-1.5-.4-2v-.6l.5-.6.4-.6v-.5l.3-.2 3.4-2 2.9-1.3 1.8-.7.4-.3.2-.5v-.9l.2-.3v-.4l1.3-2 .5-.6v-.1h.9l1.2.4h.4l1.2.7 2 .5q1 0 2.2.2l1 .3 1 .6.8.6 1.2-.5h1.4l1.4.4z" opacity="1"/>
        <path id="Gunma" fill="#191970" d="m500.6 360.5 1.2-.7h1.4l.7-.3.6-.9.3-1h.4l1.5-.6.4-.5.2-.2.2-1v-.2l.3-.3.9-.3.2-.4v-.3l-.1-.5v-1.5h.4l1.7-.8q.3 0 .6-.4l.3-.3q0-.4.3-.7l.2-.3h.7l.2.2h.2l.2.5v.3q.1 0 .3.2.3 0 .5.3v.3l.5 1 .6.3h.3l.4.1v.6l.4.3.6.1h.7l2.6.6-.6 1-.1.7v.4l.4.3.3.3.2.3v.4l-.2.3-.2.5-.3.4-.3.3-.1.4v1.4l-.1.6-.4 1-.2 1.1.2.5.9.6.3.3h.3l2 .4.4.5v1l-.2.2-.3.3-.3.4-.7 1.6-.1.5-.2.6-.2.4-.4.9-.2.3-.3.4-.3.4v.9l.2.3.3.3.9 1 .2.5.3.4.7.6.5.5h.4l.4-.1.4-.2h.6l2.5.5q.3 0 .5.3l1 1 .4.9.6 1.8-3.3-1.5H525l-1.2.5-.8-.7-1-.4-1-.4-2.1-.2-2.1-.5-1.2-.6h-.4l-1.2-.6h-1q-.1.5-.4.9l-1.2 1.8-.1.5-.1.4v.3l-.3.9-.4.4-1.8.7-3 1.3-3.3 2-.2.3-.1.4-.4.6-.5.6-2.1-2q-.3 0-.4-.3l-.1-.4v-2.7l-.3-.3-.4-.2-.4-.4-.1-.4-.1-.5.2-.2h.5l.3-.1v-1.2l-.2-.7-.2-1v-1l.7-.3.3-.4.2-.3v-1l-.2-1.7-.2-.6-.4-.5q-.3 0-.5-.2h-1.3l-.8.6h-1l-.4.1h-.8l-1-.7q0-.2-.4-.5l-.3-.5-.1-.7v-.6l.2-.7.5-1.6v-1l.3-.2.4-.7v-.3l.2-.5.2-.2.3-.2 1-.3.3-.2.2-.4-.1-.6v-.3l.3-.3.4-.2h.6l1.2-.3.6-.2.3-.2.5-.2.9-.2z" opacity="1"/>
        <path id="Tochigi" fill="#191970" d="m520.5 354.2 1.4-.9 1-1 .6-.3 1.4-.6 4.9-2.7 2-1 1.3-.2.9-.7 1.9-1.3.9-.2h1.2l4 1.4.6.3 1.4 1.1q0 .3.4.4l.3.1v.4q0 .2.2.4 0 .3.2.4 0 .2.2.4.3 0 .5.3h.2v.4l.2 2.4v1q0 .4.2 1v1q0 .6.2 1.3v2.4q0 .4.4.8l-.2.5q-.2 0-.5.3l-.4.4-.2.3v.7l.3 1.3q0 1.5.2 3l-.1 1-.1.6-.6.9-.3.6-.6 1.6-.3.4-.4.4h-.3l-1-.1h-.7l-1 .3-.4.4-.7.4h-1.8l-1.4 1.4-.3.6q-.3 0-.4.2h-.7l-.5.1-.7.8-.3.4-.5 1-.2.3-1.1.4-1.2.5-.8.3h-.3l-.4-.1-.4-.9-1-1-.5-.2-2.5-.6h-1l-.4.3h-.4l-.5-.4-.7-.7-.3-.4-.2-.5-1-1-.2-.3-.1-.4-.1-.3v-.6l.3-.2.3-.6.2-.2.4-.9.2-.4.2-.6v-.4l.6-1.2v-.2l.2-.4q0-.2.3-.3l.3-.3.2-.4v-.8l-.3-.4-.3-.2-1.8-.2-.3-.2h-.3l-1-.8-.1-.5v-.5l.2-.6.4-1v-2l1-1.6.2-.2v-.6l-.2-.2-.3-.2-.3-.4-.1-.4v-.5z" opacity="1"/>
        <path id="Ibaraki" fill="#191970" d="m546.2 353.4 2 1 .6.8.8.6.7.8.9.8 1.1.6h1l.4-.6.3-.2.2-.4.5-.5 1-.7v-1.3l-.2-.3v-.5l.3-.2h.2l.2.2.5.6.4.3 2.2 1h.3l3 .8-.2.3-1.3 2q0 .3-.2.5l-1.4 5.5q-.7 1.5-1.7 2.8 0 .8-.4 1.4 0 1.3-.4 2.6v.6l.4 1.4v.6q0 .5-.2.9l-1 1.2-.5.8v1.3l.4 3 1 2.4 1 3q2.3 3.8 4.1 7.4.8.9 1.3 1.8l.3.6h.3l.2.3h-1l-.8-.3-.6-.5-.6-.6-1.3-1.7-.6-.5-.6-.2-1.3-.5-1.7-1-.5-.2-2.6-.2q-1 0-2 .3h-.7l-.6 1q-.5 0-.8.3h-4.4l-1.2-.2-4.7-2.1-1-1-2-2.4-1.8-2.6H532l-.6-.2-.2-.2-.4-.3-.8-1-.2-.6-.1-.4-.6-1.9h1.5l1.2-.6 1-.5.3-.2.5-1 .3-.4.7-.7.5-.2h.7l.4-.2.3-.6 1.4-1.4h.3l.3-.1h1.2l.7-.2q0-.2.4-.5l1.8-.3.9.1h.3l.4-.3.3-.6.6-1.6q0-.2.3-.5l.6-1v-.5q0-.5.2-1l-.2-3-.3-1.3v-.7q0 0 .2-.3 0-.2.4-.5l.5-.2q0-.2.2-.4l-.3-1-.1-.6v-1.7l-.1-1.2v-.6l-.1-.6-.1-.9z" opacity="1"/>
        </g>
        <g id="Tohoku_group" class="region-group">
        <path id="Fukushima" fill="#191970" d="m516.2 352.6.4-.6v-1.5l.4-1v-.4l-.2-2v-1.6l-.1-.5-.6-1.2-.2-.2h-.7l-.2-.2-.5-1v-.6l1-1.6v-.6l.6-2v-.6l-.2-.4-.4-.6-.1-.5v-.2l.3-.5.4-.4.5-.2h1l1.9-.6h1.6l.4-1 .3-.2.4-.4h2.5l.3-.2h1.2v-.2l-.1-1.7-.1-.6-.1-.3-.3-.7v-.7l.4-.6 1.4-1.5 2.6-3.7 1.2-1.4h1q.3 0 .5.4h3.3l.8-.2h.5q0 .3.3.4l.6 1q0 .3.4.4l.6.4h1.8q0 .3.3.4l.7.6.3.2h.4l.9-.7h1.6l.8-.2.9-.8q0-.5.4-1l-.2-1.3-.1-1.6v-1.2q0-.3.2-.7l-.1-1.6 1.5.8h1l1-.4h.5l1 .5.4.3.5.4q0 .5.3.8l.4.3h.6q1 0 1.7-.3.6 0 1 .3.6 0 .6.3l1 .6.4.3v1.8q.3 0 .3.3l.2.3 1 .8 1 .1h.6q0-.2-.3-.5h2l.2-.5v-.3l.2-1v-1.5l.3-.2.3-.2h1.7l1.7 3.2.4 1.4v.4l.3.4.2.5v1.1l-.4.4v.3l.1.3.4.4v.5l.3 11.2-.7 2.6v1q0 .4-.2.7v3.8l-.5 1.2-.8 4.6-1.3 1-.8.1-1 .8-.6.2-.4.4h-.3q0 .4-.3.8v1l-3-.9h-.3l-2.2-1-.7-.5q0 0-.2-.3l-.2-.2h-.2l-.3.7v.3l.2.6v.6l-1 .8-.5.6q0 .1-.2.3l-.3.3-.5.5h-.9l-2.1-1.4-.6-.7-.8-.7-.6-.7-2-1.2v-.6l-.1-1.7-.1-.5h-.2l-.5-.4-.2-.2-.2-.4-.1-.6-.1-.2-.3-.2-2.3-1.9-4.1-1-1.2-.3h-1l-.6.5-1.2 1-1 .8q-.6 0-1.2.2l-2 1-6.3 3.2-.5.1-1.1 1.3-1.4.8-2.6-.7h-.7l-.6-.2h-.3z" opacity="1"/>
        <path id="Yamagata" fill="#191970" d="m531.2 320.4-1.1-1-1-.4-.7-.9-.3-.6-.1-.5v-.5l.4-1v-.7l.2-.3.2-.9v-1.4l.6-1.2.4-4.4.3-.4.4-.4h2.7l.4-.2 1-.8.4-.5q0-.2.2-.5 0-.4.3-.7l-.1-.6-.2-.6q-.2 0-.2-.2l-.3-.4-1.2-1h-1.6q-.3 0-.4-.3-.3 0-.4-.4-.3 0-.4-.3l-.2-.4-.2-.7.2-1.4-.1-.5v-1l-.1-.2q-.3 0-.4-.2-.5 0-.8-.2l-2.7-1.1-.4-.2.9-2.2.6-1.6.8-1.2 2.6-2.4.9-1.4.8-1.4 1.2-4.6 1.3-3.5q0-.6.3-1v-1.5l.3-.6h.2l2.2.6h.4q.4 0 1-.4h.8l.9 1.3 1 .6.7.4h1.2l.4.3v.3q.3 0 .4.3.3 0 .5.2 1 0 2.2.4h1l.7.3 1.8 1 .4.4.4 1 .5.9.8.8 1.5.5.3.9 1 1.3.6 1 .6 1v.8l-.2.4-.2 1v1.8q-.3 0-.4.4 0 0-.2.3H555l-.2.4v1l.4.8.2.6v2.2l.3.4.5.6.2.6v.4l-.9 2.2q0 .1-.2.3l-.3.3-.6.8-.3 1q0 .2-.2.4l-.6 1-.2.3-.5 1.4v2.6l-.2 1-.3.4-.7 1-.6.8-.5.5-1 .5h-1l-.4.3-.4.4-.2.5-.2 2.4v2.3l-.1 1.3v1.4q0 .7.3 1.3l-.2.6-.2.5-1.4 1h-1.9l-1 .7h-.3l-1-.8-.3-.4H539l-.6-.3-.4-.5-1-1.4h-.4q-.5 0-.8.4l-.3-.2h-3.1l-.3-.3z" opacity="1"/>
        <path id="Akita" fill="#191970" d="m554.7 280.9-1.5-.4-1-1-1.2-2.3-1.7-1-.7-.1h-1l-2.2-.6-.5-.1-.3-.3-.1-.4h-1l-.6-.1-.6-.5-1.1-.7-1-1-.3-.1h-.3q-.5 0-1.1.3h-.4l-2.2-.6h-.2q0-.3.4-.6V269l.3-1.2q0-.8.4-1.4 0-.6.4-1l1-.4.9-1.1.7-3 .9-3.7q0-3.9.3-7.3v-1.2l-.6-1.5v-1l-.4-1.1-.6-1.2-1.1-1-1.4-.7-1.3.2-.3.4-.3.4-.3.4-.6.2h-2l-.1-.4-.4-1-.3-.3-.6-1-.1-.7.4-.2-.5-.3-.1-1.2v-.6l1.3.8 1.7.8h.6l1.3-.7 1-1.3 2.3-4.1q0-.8.4-1.7l-.1-1 .7-1.7q0-1.8.2-3.6v-1l-.2-.3-1.4-1.5-.5-.6-.1-.3 1-.2h.5l.5-.2.4-.4.6-.4.4-.1h.6l.4.3q.3 0 .8.2h5.2l.9-.2.8-.7.8-.3h.7q0 0 .3.2l.3.3v.3l1.3.6 1.5 1 .5.4.2-.1.2-.3.5-.2h1q.1 0 .2.2h1.3q.5 0 .8-.2l.4-.2h.4l1-.7.7-.3.4-.3.5-.7.4-.5 1-.2h.5l1.3.6q.3 0 .5.3l.3.3v.2h.2v.7h-.2v.4l.2.3v.2l.3.4.1 1.6v.5l-.3.3q0 .5-.2 1l-.3 1v1q0 .5-.2 1l-.6.6-.7.5q0 .3-.4.5 0 .4-.4.8v.8l.2.4q0 .3-.2.7v1q0 .2-.2.4l-.3 1v3.5l.2.4v1l.3.8.4 1v.5q0 .3-.2.3H563l-.3.3q0 0-.3.2l-.3.4v1.2q.3 0 .3.3l.6.6.3.4v.3q0 0-.2.3l-.4.8-.2.4q0 .2-.2.5l.3 1 .2.8v.5l.2.7-.3.8q0 .4-.4.9L561 255l-.2.4-.3.8q0 .6-.4 1.3l-1.2 2-.5 1.8v.5l.2.5.6 1.3.4 1.6h.2l.3.7h.2l.3.4.8.8.2.4v.8l.2.5.5.5v.6l-.5.4-.3.3-.3.8v1.1l.1.3.5.6h.3l.3.4v.9l-.6 1.3q0 1-.4 2-.3 0-.8.3l-.7.6-.4.4-1.6 1-2 .7h-.8z" opacity="1"/>
        <path id="Miyagi" fill="#191970" d="M547 315q0-1.3.3-2.5 0-.3.2-.6l.4-.4.4-.2h1.5l.5-.5.5-.5.6-.8.6-1q0-.2.4-.5l.2-1v-2.5l.2-1 .2-.4.3-.4.6-1 .2-.4.3-1 .6-.7.3-.3.2-.3.4-1.4.4-1v-.8q-.3 0-.4-.3l-.2-.4q0 0-.2-.3v-2.2l-.3-.7q0-.4-.3-.7v-1l.1-.3.3-.1h1l.1-.2q0-.3.3-.5v-.5l.2-.5v-1.7l.1-.1.2-.4v-.7l-.6-1-.6-1.1-1-1.4q0-.6-.3-1 .3 0 .4.4h1l1.8-.6 1.6-1 .4-.4.5-.4.2-.2.8-.4q.9 0 1.6.3l2.7 1.2 2 1.3q.3 0 .5.2h2.4l1.6.4.1.6-.6.5v.4l.6 1q.3 0 .4.4l1 .5 1 .8.6-.2.5-.6.3-.2.8-.4.2-.4.2-.1.2-.4h.3l2.5 1h.3l.8-.8.2-.4v-2.4l.3-.4.3-.1.2-.4v-.2l.2-.3v-2.1l.4-.4.5-.1h1.5q.4 0 1 .4l1 .3h.2v1.8l.8 1.8v.8l-.5-.4v-.2l-.3-.7v-.2q-.2 0-.5.3h-1l-.2.4v1.4l.1.7-.4.4-1.2 1-.3.4.3.3.2.3.3.4.5.6.2.3-.2.6h-.2l-.3-.1h-.3l-.4.7h-.3l-.7.4h-.3l-.5.5v.4l.3.3q.3 0 .3.2h1.4v.9q-.3 0-.4.4l-.2.3-1.3 1q.3 0 .5.4l.4.7q.3 0 .5.3l.4-.6.6 1v.7l-.2.8h-.3l-.2-.3-.2-.4v-.3l-.5 1.4-.2.3h.2v.3l.2.3-1 .4v.1l.1.4v.8l.3.3.3-.3h1.2v.4h-.5l-.4.1-.2.6.7.4v1.6l.5.4v.4l-.5 1-.2-.2-.8-.7h-.6l-.2-.3v-.4l.1-.2v-.2l-.3-.4q-.4 0-1-.4.2 0 .2-.2 0-.6.3-.9l-.3-.3h-1.3q0 0-.3-.2l-.6-.6q-.3 0-.6-.2h-1l-2.9.8-.6.6-.2 1v.7h-.6l-.2-.2-.4-1.6-.3.3h-.5l-.2-.2q-.3 0-.6.4 0 .3-.4.5 0 .4-.3.7 0 .3-.2.6h.9l.2.2v.4l-.4.1-.3.3q0 .2-.2.2l-1 1.3-.9 1.4q-.3.8-.7 1.3l-1.2 4.6q0 .8-.2 1.4v1.7l.4 2.6-1.6.3-.3.1-.3.3v2.3l-.2.6q0 .2-.2.3l-2 .1.3.4-.2.1h-1.4l-1-1-.2-.2-.2-.4V319l-.4-.4-.5-.5-.6-.2-.5-.2-1-.3q-.9 0-1.8.4h-.3l-.3-.2-.4-.2-.3-.8-.5-.5-.4-.2-1-.4h-.4l-1.1.3h-1z" opacity="1"/>
        <path id="Iwate" fill="#191970" d="m561.4 278.2.4-2 .6-1.3v-.8l-.6-.5-.5-.6q0-.3-.2-.4v-1l.4-1 .3-.1.4-.2.2-.2v-.6l-.4-.2q0-.3-.2-.4v-.9l-.2-.4q0-.3-.2-.4l-.3-.2-.5-.4q0-.3-.3-.4l-.2-.1-.3-.6-.2-.1q0-.3-.2-.4 0-.6-.2-1.2l-.6-1.4v-.4l-.2-.4.5-1.7 1.2-2.1.7-2.2.2-.5q.8-.7 1.3-1.5l.6-1.2v-1.2q0-.6-.3-1 0-.6-.3-1.1l.2-.5.2-.5.4-.7.2-.5v-.2q0-.3-.3-.4l-.6-.7q0-.1-.2-.2v-1.2q0-.3.2-.4l.3-.2.3-.2h1.4q0-.3.2-.3v-.5l-.6-1.8v-1.1l-.2-.4v-4l.2-.5.2-.4V233l.2-.2v-.4l-.2-.4v-.5l.8-1.2.7-.5.6-.6 1.4 1h.4q.3 0 .4.3l.3-.2.4-.1 1.8-1.7q2.3-1.6 4.5-2.8l1.8-.8h.7q0 .4.2.4h1.4l1.4-.6.7-.2.6-.2 1 .5h1.3l.4-.3v-.5l.2-.2.2-.4.2-.6 2.8-1.6q0 .3.2.3l1 1 .1 1q.3 0 .5.3l.3.6v.3l.5 1v.3l.2.4.2.3.5.7.8 1.4.4 1q0 .3-.3.5l-.2.2-.3.3-.2.4v.3q.3 0 .5.3.5 0 .8.4 0 0 .3.2l.4.8q0 .3-.3.5l-.6.3q0 .4-.3.8l.2 1 .4.7 2.2 1.8h.3l.2.4.2.8v.3l.2.5-.2.4-.3.5v.2l.8 1.6v1.2l.2.5.7 2.3v.7l.2.3-.2.3-.3.4-.3 1v2.2l-.5.8-.2.7.2.4 1.4-1.4.7-.2-.2.5v.2l.2.4-.3.7v.3l1 .9h.1v.3l.2.2v.3h-.2l-.2.3v.3h-.2l-1 1.4q-.2 0-.5.3-.4 0-1 .4l-.4.3.5.7h.8l.7-.7.2-.6.3-.2q.3 0 .4.3l.2.4h-.4v.4l-.2.6v.6l-.2.2h-1.5l-.2.4-.7.6-.3.3q.4 0 .7.3l-.3.4-.7.6-.7.7q.3 0 .6.2l.6-.2.6-.4.4-.4v.8l-.5.7-1.2.8.2.3v.3h-.9v1h1.4v.8l-.5.6q-.3 0-.8.3l-.7-.1v.4q.3 0 .5.4l1-.1-.4.6-1.3.7h-.8l.5.5 1.4 1 .2.5-.7.3-1.6-.4-.6.4 1.3.7.3.3-.3.3h-1v.3l.7.6.2.3q-.2 0-.3.2l-1.2-.4-1 .3-.8-.1-.5-.4v.6l.2.3.2.5.2.5-.3-.1h-.3l-.4.6h.4l.1.8-.4.2-.4-.1-.4-.4q0-.3-.3-.4l-.2-.4.6-.6h-1.2l-.4.4v.7-.2l-1.2-.1-1-.4-.7-.1H583l-.4.4v2.4l-.2.3-.2.4h-.3l-.2.5v2.3l-.3.5-.8.8h-.3l-1.5-.7-1-.3h-.3l-.4.5-.2.4q-.3 0-.8.3l-.3.3-.5.6h-.5l-1-.6-1.5-1-.6-1v-.3l.2-.2.4-.3v-.6l-.6-.2-1-.2H568l-.5-.2q-1-.9-2-1.3l-2.7-1.2z" opacity="1"/>
        <path id="Aomori" fill="#191970" d="m566.3 229 .2-1v-1l.3-1v-.6l.2-.3.2-.3v-.6l.2-.3q0-.6-.2-1.2l-.6-.8v-.3l.2-.2v-.9l-.4-.3-.5-.3-1.3-.6h-.6l-1 .3-.3.3-.5.8-.4.3-.7.3-1 .8h-.8l-.8.5h-.8l-.5-.2-.3-.2h-.9l-.5.2q0 0-.2.3h-.2l-.5-.1-1.6-1.2-1.1-.7-.1-.2-.2-.3-.5-.2h-.6q-.5 0-.8.3l-.8.6-1 .3h-5.1l-.8-.2-.4-.2-.6-.2h-.4l-.6.6-.4.4q-.2 0-.5.3l-.4-.2q-.6 0-1.1.3v-4.4l-.4-.4-.1-.7-.3-.6h-1.2l-.6-.2v-.6l.7-.7.6-.7.8-.1.3-1 .7-.2.3-.7.5-1 .3-1 1.4-1 .7.3 1 .9.5-.2.5-.1.5-.4 1.2-1 .7.3 1-.7.5-.7.7-2.3.6-3.2V200q0-.5.2-1l.5.8.3.3q0 0 .3.2l.3.3.3-.2-.2-1-.1-.2.2-.2.2-.2h.7l-.3-.3h-1.4l-.2-.2-.1-.2-.2.2h-.3v-1.5l-.7-1-.5-.4-.5-.2h-.5l-.1-.4h1.7q.2-.4.5-.6 0-.6.3-.8v-2.7l.3-.2-.1-.6.2-.2.5.5q.3 0 .5.3h.4l.5.8.8 1 .8.6h.5l.8-.6.4-1h.7q.8 0 1.3.2l1.2 1 .3.8q0 1.3-.4 2.6v.4l.2 1v1l.5 1.4.5 4.3 1 1.7 1.4.7 1.3-.2 1-1 .6-.7.5-1.2v-.2l-.2-.6v-.2h.2q0-.2-.2-.3h-.5l-.2-.2h.7v-.8q.1 0 .2-.2v-.3l.6-1q.3 0 .4.2l.3.5h.7q.2 0 .3.2l.3.4.7.8v.2l-.2.3v.3h.5l.5.3 1.1.7.3-.2.3.3.2.3.3.6.2.1.6.4h.4l.6-.2.5-.4.6-.8 1.2-3q0-.7.3-1.2l.2-2.5.2-.6v-.3l.1-.6.3-.2q0-.3.3-.4l.2-.7-.3-1.2-.4-1-.6-1-1.5-1.5h-.7l-.2.5-.5.7.2.2.2-.3.2-.4v.3l-.3.6-1.5 1-.7.4q0 .3-.4.6l-.7-.2q-.3 0-.8-.3h-.8l-.5.3-.5.6h-1q-.3 0-.6.4l-.4-.2h-.4l-1 .8q0 .4-.4.8h-.5l-1-.7v-2l.4-.5.2-1v-.7l.3-1v-1l.3-.7v-.3l.3-.3q0-.7.3-1v-1l.3-1.2.5-.4 1-1.5.3-.3v-.2l.3-.8v-.5q0-.2-.2-.5l.2-.5.2-.3.4.6.7.4.4.5.4.5 1.2.5h1.3l1.3.8 1 1.2.5.6.6.5v.3l.4.3 2.4 1.3h1.2l1-.2 1-.6.7-.6 1-1 .5-.5v.2l.2.2-.2.3v.4h-.2v.3h.2v.7l-.4.3-.7 2.2-.6 3.5q0 1.2-.3 2.3v1l.2.3v1.4l-.4 2.4v3.8l.2.4.4 4 .5 3.7.4 2 1 3 .3.8.3.4.8 1 .4.3h.5l.3-.3.5-.2.4.7 1 .8 1.7 2h-.2l-2.6 1.7-.4.8v.3l-.2.4-.4.3h-1.2q-.6 0-1-.3h-.7l-.7.3q-.8.2-1.4.6-.4 0-.7.2l-.9-.4-.4-.2h-.3l-1.8.8-4.5 2.8-2.2 1.8h-.3l-.8-.1z" opacity="1"/>
        </g>
        <g id="Hokkaido_group" class="region-group">
        <path id="Hokkaido" fill="#191970" d="M653.2 74.3q.3 0 .5.3h1.9l-1.1.5-1.3-.3-2.4-1v-.2h1.3l.7.4zm54.8 31.3h.4q.4.3 1 .3l.3.3-.2.4h-.2q-.4 0-.7.2h-.3l-.5.8q-.3 0-.4.3l-1.1.2q-.3 0-.3.2l-.4.5h-.4l-.8-.2h-.4l-.7 1.2-.8.8-.2.3-.2.5-.2 1-.4.7-.8 1 .4.3h-1l-.6-.1-.7-.5h-.5q-.6 0-1 .3h-3l-.6.5-.6.5-.8.5q-1.2 0-2.2.3l-.5.2q-.3 0-.4.3l-.2.5v.8q.3 0 .5.2l.5-.1q.3 0 .5.3l-.6.5h-1.1l-.1.3v.2l-.3.3-.6.5h-.8l-1.4-.5.6 1v1l-.2.3h-.5q-1-.1-2 .4h-1l-.8-.5-.8-.7v-1.3l-.6-.2h-1l-.1.2-.3.5h-.2l-.3.3-.3.5-.2.7-.1.5.2.5.4.5.4.3.4.4-1.2.5-4.2-1h-2.3l-.7.6-1-.1-2.1-1h-.2l-.3-.4-.2-.3-.1-.5-.2-.3-.3-.2h-.7l-4.1 1-4.1 2-4.6 3.3q-1.5 1.6-2.8 3.3l-4.4 4-2 2.3q-1.6 3-3.6 5.8l-3 5.3q0 .9-.4 1.8l-.2 1.8.3 2.3v1.7l-.1 1-.8 3.1-.4.8-.7.8-.4 1.7-.3.6-.5-.2-.7-.6-.6-.6-.2-.5-.3-.7-.7-.7-.7-.7-4.6-3-6-2-6-3.8-2.6-1-5.3-3.6-3.3-3.7q-1.5 0-3-.4l-2.5-1.5-1.6-2q-.2 0-.5-.2-.3 0-.6-.2l-2-1.2-2.7-.7h-2.6l-2.6.7q-1.8.8-3.6 1.3l-4.8 3.8-.8.5-.6.6h-.7l-.3.3h-.3l-2.8 2.2q-.7 1.3-1.7 2.5l-1 .6h-.5l-.4-.2h-.2q0-.4-.4-.8v-.2l1.3.2h.3v-.6q0 0-.3-.2-.3 0-.8-.2l-.6-.6q0 0-.3-.2 0 0-.2-.3l-.3-1.7q-2.4-3-5-5.7-.6 0-1.3-.6h-.7q-1 .3-2 .3t-2-.2h-.7l-1.2.5-1.2 1-1 1.4q-.7 1.6-1.6 2.8l-.7 1.7-.6 3.4q0 1 .3 2l.9 1q1.5.7 3 1.6l.8.6 2.2 2.4q.3 0 .5.3h.7l1-.4q1.3 0 2.5-.3l.6-.3 1.8 1.2.4 1 1.4 2 .5.5 1 .8.6.6 2 2.5.5.5.6.3 2.7.8 2.3 2 .5.8q0 .3-.3.5-.8 0-1.4.2l-.6.1-.5.4-1.8 1.8-1 .6-1.5-.4-2.5-1.5-1.4-.5h-1.5l-1.3.8-.6.3-.3-.7.2-.5.8-.7q0-.3-.2-.7l-.5-.6-.7-.2-1.3.6q0 .4-.3.7 0 .8-.4 1.6 0 .5-.4.8l-1.7 1-.3.2-.3.3-1.5.4q-.3 0-.5.3l-.6 1.3.3 3.3-.4 1.3-1 .6-3.5 1.3q-.2 0-.5.3l-.5.6-.5.8-.4 1.3h-.7l-1.4-.6h-.4l-.5.2h-.2l-1.1-.7q-.3 0-.3-.2l-.4-.2-.3-.7-.5-1.7-.8-2.2-.2-.8q0-.4.2-1l.5-1.2.5-2.3 1.5-2.6q0-.8.4-1.5v-.2h1q0-.1.2-.3v-.4q0-.4.2-1v-.2l-.2-.2v-.6h.3l.3-.2v-1.2l.2-.2-.2-.6-.2-.7v-.8q0-.3.2-.7l-1-1-1.5-2.7-1-1q-1.5-.8-3-1.3 0-.4-.4-.7l-.2-.4-.6-1.2-.2-.2q-.6 0-1-.3l-1.3-1.2-.3-.3-.3-1-.3-1.5.5-1.7 1.6-3 .3-1.7v-1.7l-.5-3q0-.7.4-1.6l.9-1.3 1.2-.7q1.5 0 2.8-.2h.7l.5-.4 1.5-1.7q0 0 .3-.2h.4l.2-.2q0-.3.3-.4l.7-1.6.4-.5h.5l.7.4.6 1 .5.6h.6q.3 0 .6-.4 0-.4.2-1v-.9l.8-.7q0-.3.4-.6l1.2-2.2 2-2 1.2-1 .5-.5.2-.8q0-.4-.3-.7l-.5-.5q0-.6-.2-1l-.1-.5-1.5-2-1-1.1-1-1-1-1-.1-1.7.9-3h1.4l.7-.2.6-.3.1-.3v-.5l.3-.4.1-.2h.5l.3.4.3.3.2.2q.3 0 .5.2 1.4.7 2.5 1.8l.5.5 1 1.2.5.5 2.4 1.3.5.5.2.3h.5l3-.5 2.2-1h.6q.3 0 .4.4l-.6 1 1 1 2.2.6h.7l.6.5h1.3l.8-.5 2.2-1.6 2-2.2.8-1.2.7-1.5.5-1.7v-1.8l-.4-1.1-1.6-2.7q0-.6-.3-1v-.7l.4-.8.5-.8-.6-1.5-.2-.4V95l-.8-2.8.6-1.6.8-1.5.5-.5.7-.4.6-.3q.8 0 1.3-.2.3 0 .6-.2.3 0 .5-.4l1.6-1.4 1-1 .7-1.5.5-2 .3-1.6V78l-.4-8.6.3-1.5 2.4-4.6 1.3-7v-2l-.2-4.9-1-5-.8-2.9-4-8.7-.3-1.8.2-1.8.2-.3.6-.7.2-.4v-.5l.2-.4v-.3l.7-1.2V25q0-.8-.3-1.4v-1.4q0-.4.3-.7l.5-.5.3.2.2.4v1l.3.4h.3q.4 0 .7-.3h1.4l1.4-.6 1-.7h.3l.2-.3v-1.5l.6-.7.7-.6q.5 0 .8-.2l.4.4.5 1.2.3.5.5.2.4.4 1.2 2.2 1 1.2 2.7 2 1 1 9.4 11.7 2.2 4.8.5.8 1 .7 1.4 2.5 5.7 6.6 1 .5 1.1 2q.9.8 1.8 1.3l2.2 2.4 2.6 2 .6.2.4.2 1 1.3.7.4 1.2.4.4.2.5 1.2v.2l.8 1 .2.2 4.4 2.7 6.5 2.5v.3l-2.4-.3-.4.3v.3l.8.7.2.3.4 1.5h.3v-.3l.5.5.4.2.4.2h4.5l.9-.8.9-.6 3.6.2.9.5.6.4v.2h-.4l-.5.4-.4.5-.7 2 1 .4h.4q.2 0 .4-.2l.4-.4.3-.6.2-.7.2-.6.4-1.2q.4 0 .8-.3l.6.5-.2 1a3 3 0 0 0 .6 1.9l.5.2.2.3.8 1.6.2.2 1.7 1.2q.6 0 1 .3l4.2.7 4.9.4q.8 0 1.4-.3l1.3-.8 3.4-3.7 3-3.6 2-1.3 1.4-1.5q.3 0 .6-.2l.4-.4 1.5-2.7 1-1 .7-.8.3-1 .4-.3h.2l.3 1 .5.8.2.4-.1 1.8-.6 1.5-2.1 3.2-.3 2-.2.6-3.4 4.8-.7 1.4-.5 1.5.3.8-.1.8-.4.8-.2 1-.6 1v.8l1.8 3.3 1.8 2 .4.6.3.7.3.8v1.3q.3 0 .6.4v.6l.5 1 .8 3.5.6 1.5 1 1.4 1.4 1h-1l-1.8-1.4-1-.2-.2.8.2.3.4.3h.6q.3 0 .5.3v.4h-.4l.6.6.8.5 1 .3 2.5.3.6.3.8.5v-.4l-.1-.3-.4-.3-.1-.5.2-.4 1-1 1.3-1.2.4-.3.7-.2.4-.2q0-.3.2-.4v-.2q0-.2.2-.3l.4-.2.4-.1h1.7q0-.3.3-.5h.6m-13.3-8.2 1.4 1v.5l-.3.2q-.6 0-1.1.3l-.3.3-.2.5q-.3 0-.4.3l-.3-.2v-.7q.3 0 .5-.4l.9-.4.4-.3-3.8-2 2.4.6q.3 0 .8.3" opacity="1"/>
        </g>
        </g>
        </g>
        </svg>