<?xml version="1.0" encoding="UTF-8"?>
<svg xmlns="http://www.w3.org/2000/svg" xmlns:xlink="http://www.w3.org/1999/xlink" width="48px" height="48px" viewBox="0 0 48 48" version="1.1">
<g id="surface1">
<path style=" stroke:none;fill-rule:nonzero;fill:rgb(9.803922%,9.803922%,43.921569%);fill-opacity:1;" d="M 7.789062 9.953125 L 6.746094 9.953125 C 5.878906 9.953125 5.167969 9.90625 4.589844 9.820312 L 4.589844 12.957031 C 5.210938 12.867188 5.8125 12.824219 6.679688 12.824219 L 7.789062 12.824219 L 7.789062 18.5625 C 6.476562 18.71875 5.210938 18.808594 4.65625 18.808594 C 4.546875 18.808594 4.433594 18.808594 4.277344 18.785156 L 4.789062 22.234375 C 5.234375 22.125 5.589844 22.054688 6.210938 21.988281 C 9.234375 21.613281 11.722656 21.1875 14.410156 20.632812 L 14.410156 17.628906 C 12.746094 17.917969 12.144531 18.007812 10.921875 18.183594 L 10.921875 12.824219 L 11.722656 12.824219 C 12.542969 12.824219 13.1875 12.867188 13.65625 12.933594 L 13.65625 10.285156 C 13.96875 10.6875 14.121094 10.863281 14.5 11.464844 C 15.8125 10.152344 16.566406 9.152344 17.457031 7.460938 L 21.234375 7.460938 C 21.1875 12.667969 21.078125 15.449219 20.878906 16.960938 C 20.609375 18.785156 20.476562 18.964844 19.34375 18.964844 C 18.65625 18.964844 17.921875 18.917969 16.390625 18.761719 C 16.921875 19.988281 17.101562 20.742188 17.253906 22.125 C 18.101562 22.144531 18.855469 22.167969 19.367188 22.167969 C 22.410156 22.167969 23.300781 21.65625 23.832031 19.542969 C 24.34375 17.539062 24.589844 13.488281 24.609375 6.882812 C 24.609375 5.191406 24.632812 4.921875 24.699219 4.101562 C 24.210938 4.167969 23.722656 4.1875 22.699219 4.1875 L 18.765625 4.1875 C 18.898438 3.765625 18.988281 3.476562 19.078125 3.054688 C 19.234375 2.429688 19.324219 2.1875 19.457031 1.785156 L 15.789062 1.183594 C 15.765625 1.984375 15.589844 2.855469 15.234375 3.945312 C 14.589844 5.878906 13.613281 7.527344 12.457031 8.617188 L 12.457031 7.503906 C 12.613281 7.636719 12.679688 7.683594 12.878906 7.839844 C 13.410156 6.523438 13.746094 5.859375 14.390625 4.855469 C 12.855469 3.921875 11.921875 2.964844 11.144531 1.453125 L 7.8125 1.453125 C 7.566406 2.097656 7.277344 2.585938 6.789062 3.210938 C 5.96875 4.324219 5.234375 5.011719 3.988281 5.8125 C 4.613281 6.949219 4.902344 7.703125 5.300781 9.0625 C 5.855469 8.660156 6.054688 8.503906 6.5 8.105469 L 6.5 9.015625 C 6.855469 8.972656 7.277344 8.949219 7.789062 8.949219 Z M 10.921875 8.949219 L 11.210938 8.949219 C 11.855469 8.949219 12.121094 8.949219 12.457031 8.996094 C 12.878906 9.394531 12.945312 9.484375 13.34375 9.90625 C 12.945312 9.929688 12.277344 9.953125 11.746094 9.953125 L 10.921875 9.953125 Z M 8.257812 6.300781 C 8.832031 5.589844 9.078125 5.210938 9.542969 4.34375 C 10.144531 5.277344 10.476562 5.679688 11.078125 6.304688 Z M 7.566406 17.363281 C 7.300781 15.671875 7.101562 14.824219 6.589844 13.222656 L 4.257812 13.957031 C 4.765625 15.449219 4.945312 16.183594 5.210938 18.273438 Z M 13.210938 17.496094 C 13.765625 16.183594 13.96875 15.605469 14.390625 14 L 12.035156 13.289062 C 11.8125 14.667969 11.589844 15.46875 11.121094 16.695312 Z M 20.433594 14.757812 C 19.542969 12.464844 19.167969 11.664062 17.988281 9.550781 L 15.121094 10.84375 C 16.210938 12.84375 16.632812 13.824219 17.457031 16.316406 Z M 30.054688 1.742188 L 30.054688 1.917969 C 30.054688 2.253906 30.03125 2.496094 29.964844 3.144531 C 29.609375 6.011719 29.457031 8.574219 29.457031 11.265625 C 29.457031 11.886719 29.476562 13.222656 29.523438 14.089844 L 29.523438 14.535156 C 29.523438 14.625 29.523438 14.757812 29.5 14.914062 L 33.234375 14.871094 C 33.234375 13.824219 33.253906 13.554688 33.320312 13.042969 C 33.589844 11.132812 34.457031 9.285156 35.789062 7.882812 C 36.609375 6.992188 37.367188 6.59375 38.1875 6.59375 C 39.765625 6.59375 40.65625 8.128906 40.65625 10.910156 C 40.65625 15.714844 38.078125 17.804688 31.699219 18.183594 C 32.65625 19.699219 32.945312 20.320312 33.476562 21.988281 C 34.765625 21.789062 35.34375 21.679688 36.101562 21.476562 C 38.121094 20.988281 39.898438 20.164062 41.167969 19.164062 C 43.433594 17.382812 44.566406 14.667969 44.566406 11.019531 C 44.566406 8.417969 43.964844 6.390625 42.722656 4.835938 C 41.699219 3.566406 40.210938 2.808594 38.699219 2.808594 C 36.320312 2.808594 34.523438 4.054688 33.078125 6.660156 C 33.410156 4.277344 33.675781 2.832031 33.988281 1.898438 Z M 21.054688 35.6875 L 21.679688 35.6875 C 22.65625 35.6875 23.632812 35.734375 24.523438 35.824219 L 24.523438 32.394531 C 23.878906 32.484375 22.878906 32.53125 21.566406 32.53125 L 14.121094 32.53125 C 13.011719 32.53125 12.078125 32.484375 11.144531 32.394531 L 8.945312 30.816406 C 7.878906 32.773438 5.632812 35.023438 3.433594 36.355469 C 4.144531 37.535156 4.457031 38.359375 4.832031 39.871094 C 5.410156 39.449219 5.855469 39.050781 6.324219 38.558594 L 6.324219 43.855469 C 6.324219 45.035156 6.277344 46.015625 6.167969 46.816406 L 9.878906 46.816406 C 9.765625 45.96875 9.746094 45.125 9.746094 43.921875 L 9.746094 35.3125 C 10.34375 34.597656 10.613281 34.242188 11.121094 33.554688 L 11.121094 35.824219 C 11.96875 35.734375 13.054688 35.6875 14.101562 35.6875 L 17.609375 35.6875 L 17.609375 42.855469 C 17.609375 43.320312 17.523438 43.367188 16.65625 43.367188 C 16.078125 43.367188 15.234375 43.300781 13.699219 43.164062 C 14.234375 44.480469 14.433594 45.257812 14.589844 46.613281 C 15.523438 46.636719 15.945312 46.636719 16.367188 46.636719 C 18.253906 46.636719 19.078125 46.546875 19.679688 46.304688 C 20.679688 45.902344 21.054688 45.191406 21.054688 43.675781 Z M 11.476562 27.769531 L 8.589844 25.632812 C 8.367188 26.054688 8.144531 26.320312 7.699219 26.789062 C 6.546875 28.011719 5.300781 28.902344 3.457031 29.792969 C 4.257812 30.75 4.746094 31.574219 5.234375 32.886719 C 7.277344 31.75 9.5 29.972656 10.96875 28.300781 C 11.121094 28.101562 11.121094 28.101562 11.34375 27.902344 Z M 12.121094 30.125 C 12.96875 30.039062 13.96875 29.992188 14.988281 29.992188 L 20.855469 29.992188 C 21.789062 29.992188 22.679688 30.039062 23.566406 30.125 L 23.566406 26.699219 C 22.832031 26.789062 22.011719 26.832031 20.789062 26.832031 L 14.988281 26.832031 C 13.679688 26.832031 12.765625 26.789062 12.121094 26.699219 Z M 29.433594 31.128906 C 29.746094 31.148438 29.8125 31.148438 30.210938 31.195312 C 32.410156 31.394531 33.523438 31.460938 35.210938 31.460938 C 35.964844 31.460938 36.300781 31.441406 37.03125 31.371094 C 36.855469 31.484375 36.832031 31.484375 36.675781 31.574219 C 36.457031 31.683594 36.433594 31.707031 36.144531 31.882812 C 35.078125 32.53125 35.03125 32.550781 34.386719 32.996094 L 37.121094 34.886719 C 39.121094 33.398438 41.921875 31.617188 43.300781 30.949219 L 43.210938 27.546875 C 42.054688 27.8125 39.921875 27.945312 37.03125 27.945312 C 33.832031 27.945312 31.121094 27.722656 29.675781 27.34375 Z M 31.386719 35.488281 C 29.1875 37.246094 28.210938 38.871094 28.210938 40.851562 C 28.210938 42.722656 29.210938 44.078125 31.1875 44.878906 C 32.542969 45.433594 34.320312 45.679688 36.832031 45.679688 C 38.65625 45.679688 40.5 45.570312 42.367188 45.324219 C 43.964844 45.125 43.964844 45.125 44.566406 45.101562 L 44.300781 40.828125 C 42.832031 41.40625 39.65625 41.851562 37.03125 41.851562 C 33.65625 41.851562 32.210938 41.339844 32.210938 40.183594 C 32.210938 39.382812 32.898438 38.449219 34.210938 37.445312 Z M 31.386719 35.488281 "/>
</g>
</svg>
