<?xml version="1.0" encoding="utf-8"?>
<!-- Generator: Adobe Illustrator 18.1.1, SVG Export Plug-In . SVG Version: 6.00 Build 0)  -->
<!DOCTYPE svg PUBLIC "-//W3C//DTD SVG 1.1//EN" "http://www.w3.org/Graphics/SVG/1.1/DTD/svg11.dtd">
<svg version="1.1" id="_x31_0" xmlns="http://www.w3.org/2000/svg" xmlns:xlink="http://www.w3.org/1999/xlink" x="0px" y="0px"
	 viewBox="0 0 512 512" xml:space="preserve">
<g>
	<path d="M191.155,435.661c-34.797-13.12-70.793-26.638-112.308-26.638c-20.561,0-40.714,3.281-61.353,9.999v25.837
		c0,3.602,3.437,6.16,6.878,5.203c62.873-17.76,103.669-23.842,216.536,19.435v-16.878l-6.796-1.999
		C219.871,446.46,205.95,441.179,191.155,435.661z"/>
	<path d="M204.193,127.221v0.074c-0.054-0.028-0.102-0.051-0.16-0.074v63.669l-0.043,16.916l-57.282-15.986v-79.96
		c-10.558-1.422-21.861-2.324-34.106-2.324c-31.997,0-69.59,5.679-112.547,21.357v200.245L0,399.512
		c0.019-0.004,0.035-0.012,0.054-0.016v0.168c5.918-2.16,11.761-4.078,17.44-5.679c21.755-6.319,42.151-8.959,61.353-8.959
		c64.071,0,115.026,28.719,162.061,42.558V200.729v-52.397c0,0-10.066-8.597-29.302-17.698
		C209.251,129.498,206.814,128.358,204.193,127.221z"/>
	<path d="M320.899,435.661c-14.795,5.518-28.715,10.799-42.956,14.959l-6.796,1.999v16.878
		c112.866-43.277,153.663-37.195,216.535-19.435c3.441,0.957,6.878-1.602,6.878-5.203v-25.837
		c-20.638-6.718-40.793-9.999-61.353-9.999C391.693,409.022,355.696,422.541,320.899,435.661z"/>
	<path d="M399.454,109.535c-83.593,0-128.306,38.797-128.306,38.797v52.397v226.854
		c47.034-13.838,97.989-42.558,162.061-42.558c19.201,0,39.597,2.64,61.353,8.959c4.823,1.36,9.776,2.988,14.779,4.762
		c0.836,0.32,1.66,0.578,2.5,0.918v-0.054c0.054,0.019,0.106,0.035,0.16,0.054V130.892
		C469.044,115.214,431.45,109.535,399.454,109.535z"/>
	<path d="M204.033,58.502L159.1,45.964l-12.233-3.461v0.047l-0.16-0.047v69.356
		c23.349,3.144,42.514,9.101,57.326,15.362V58.502z"/>
</g>
</svg>
