<svg style="position: absolute; width: 0; height: 0; overflow: hidden;" aria-hidden="true" version="1.1" xmlns="http://www.w3.org/2000/svg" xmlns:xlink="http://www.w3.org/1999/xlink">
    <defs>
        <symbol id="fish1" viewBox="0 0 24 24" fill="currentColor">
            <path d="M22.2 12.5 24 7.9 23.9 7.6h-0.3L19 11c-1-0.1-2.1-2.5-6.9-3.7l1.4-0.2C13.7 7 14 7 14 6.8c0.2-0.2 0.2-0.5 0.1-0.7l-0.7-1.9-0.5-0.5c-0.3 0-0.5 0-0.7 0.3L9 7c-5.1 0-9 4.2-9 5.5 0.2 1.1 2.3 3.6 5.5 4.9L6.3 16c0.7-1.2 0.8-2.3 0.8-3L7 12.2c0-0.2 0.2-0.5 0.5-0.6 0.2 0 0.5 0.1 0.5 0.4l0.2 1c0 0.9-0.2 2-0.9 3.5l-0.8 1.2c1.1 0.3 2.3 0.5 3.6 0.3l0.9 1.9 0.5 0.4 0.6-0.1 0.8-0.5 0.3-0.6-0.2-0.6-1-0.8c4.9-1.2 6-3.6 7-3.7l4.6 3.4h0.3l0.1-0.3zM3.6 12.8c-0.5 0-0.8-0.3-0.8-0.8 0-0.4 0.3-0.7 0.8-0.7 0.4 0 0.8 0.3 0.8 0.7 0 0.5-0.4 0.8-0.8 0.8zM3.6 12.8" />
        </symbol>
        <symbol id="fish5" viewBox="0 0 24 24" fill="currentColor">
            <path d="M8.3 13C8 10.7 6.5 9.1 4.8 9.3c-0.1 0-0.2 0.1-0.1 0.3 0.1 0.4 0.5 0.4 0.6 0.9 0 0.4-0.5 0.4-0.5 0.9 0.1 0.5 0.6 0.4 0.6 0.8 0.1 0.5-0.4 0.5-0.4 0.9 0 0.5 0.5 0.4 0.6 0.8l-0.1 0.4v-0.1c-0.4-0.5-0.9-0.1-1.2-0.6s0.3-0.7 0-1.2-0.7 0.1-0.9-0.4c-0.3-0.5 0.3-0.8 0-1.3-0.2-0.5-0.8-0.2-1.1-0.8C2 9.4 2.6 9.2 2.4 8.7 2.4 8.4 2.2 8.3 2 8.3c-2 1-2.7 4-1.2 6.2 1.5 2.4 4.1 3.2 5.9 1.9 1.1-0.7 1.7-2.1 1.6-3.5zM8.3 13M8.2 10.2c-0.2 0.1-0.2 0.4 0 0.6s0.5 0.2 0.7 0v-0.6c-0.2-0.2-0.5-0.2-0.7 0zM8.2 10.2M10 8.3V9c0.2 0.2 0.5 0.2 0.7 0s0.2-0.5 0-0.7zM10 8.3M9.7 16.2C9.3 16.1 8.3 16 8 15.6l-0.5 0.8c0 0 1.7 0.9 2.1 0.9 0.3-0.1 0.4-1.1 0.1-1.1zM9.7 16.2M10 17l1.3-0.8-0.5-0.6-0.8 0.6zM10 17M11.4 16.4 10.5 18c0 0-0.3 0.2-0.2 0.4 0.1 0.3 0.3 0.4 0.7 0.3l0.9-1.7zM11.4 16.4M10 18 8.1 18.2c-0.3 0-0.5 0.5-0.1 0.8 0.5 0.2 2.3-0.1 2.3-0.1S10 18.5 10 18zM10 18M11.5 19c0 0-0.2 0.3 0 0.5 0.1 0.2 0.3 0.3 0.5 0.1 0.4-0.2 0.8-1.7 0.8-1.7l-0.6-0.6zM11.5 19M11.3 19.8c0 0 0 1.8 0.3 2.2 0.4 0.4 0.8 0.2 0.7-0.2L12.2 20c-0.4 0.1-0.9-0.2-0.9-0.2zM11.3 19.8M13.4 20.4c0.2 0 0.3-0.4 0.3-0.4l0.5-1.7h-0.8c0 0-0.7 1.5-0.6 1.8 0.1 0.4 0.3 0.4 0.6 0.3zM13.4 20.4M13.8 20.5c-0.3 0.3-0.9 0.2-0.9 0.2s0.8 1.7 1.3 1.8c0.5 0.2 0.8-0.2 0.6-0.5-0.3-0.2-1-1.5-1-1.5zM13.8 20.5M8.8 2.4C9.3 2.6 9.5 2 10 2.3c0.6 0.3 0.3 0.9 0.8 1.1 0.5 0.3 0.8-0.3 1.3 0 0.5 0.2-0.1 0.6 0.4 0.9s0.7-0.3 1.2 0 0.1 0.8 0.6 1.2h0.1L14 5.6C13.6 5.5 13.7 5 13.2 5c-0.4 0-0.4 0.5-0.9 0.4-0.4 0-0.3-0.5-0.8-0.6-0.5 0-0.5 0.5-0.9 0.5-0.5-0.1-0.5-0.5-0.9-0.6-0.2-0.1-0.3 0-0.3 0.1C9.2 6.5 10.8 8 13 8.3c1.4 0.1 2.8-0.5 3.5-1.6 1.3-1.8 0.5-4.4-1.9-5.9C12.4-0.7 9.4 0 8.4 2c0 0.2 0.1 0.4 0.4 0.4zM8.8 2.4M17.5 17.5l1.2-1.2c0.3-0.3 0.6-0.9 0.2-1.5-0.2-0.3-0.5-0.3-0.7-0.3l-0.7 0.4-1.4 1.2-1.2 1.4-0.4 0.7c0 0.2 0 0.5 0.3 0.7 0.6 0.4 1.2 0.1 1.5-0.2zM17.5 17.5M20 17.8c0.4-0.3 0.6-0.8 0.2-1.3-0.2-0.3-0.5-0.3-0.7-0.3S19 16.4 19 16.6l-1.3 1.1-1.1 1.3c-0.2 0-0.4 0.3-0.4 0.5s0 0.5 0.3 0.7c0.5 0.4 1 0.2 1.3-0.2l1.2-1zM20 17.8M20.8 18c-0.5-0.1-1.3 0.8-1.7 1.1-0.3 0.4-1.2 1.2-1.1 1.7s0.9 3.3 2.1 3.2 0.6-2.5 1-2.9 2.8 0.2 2.9-1-2.7-2-3.2-2.1zM20.8 18M15.6 8c0.4 0.3 0.5 1.3 0.6 1.7 0 0.3 1 0.2 1.1-0.1 0-0.4-0.9-2.1-0.9-2.1zM15.6 8M15.6 10.8l0.6 0.5L17 10h-0.8zM15.6 10.8M17 11.9 18.7 11c0.1-0.4 0-0.6-0.3-0.7-0.2-0.1-0.4 0.2-0.4 0.2l-1.6 0.9zM17 11.9M18.9 10.3c0 0 0.3-1.8 0.1-2.3-0.3-0.4-0.8-0.2-0.8 0.1L18 10c0.5 0 0.9 0.3 0.9 0.3zM18.9 10.3M17.3 12.2l0.6 0.6c0 0 1.5-0.4 1.7-0.8 0.2-0.2 0.1-0.4-0.1-0.5-0.2-0.2-0.5 0-0.5 0zM17.3 12.2M20 12.2l1.8 0.1c0.4 0.1 0.6-0.3 0.2-0.7-0.4-0.3-2.2-0.3-2.2-0.3s0.3 0.5 0.2 0.9zM20 12.2M20.1 12.8c-0.3-0.1-1.8 0.6-1.8 0.6v0.8l1.7-0.5c0 0 0.4-0.1 0.4-0.3 0.1-0.3 0.1-0.5-0.3-0.6zM20.1 12.8M20.5 13.8c0 0 1.3 0.7 1.5 1 0.3 0.2 0.7-0.1 0.5-0.6-0.1-0.5-1.8-1.3-1.8-1.3s0.1 0.6-0.2 0.9zM20.5 13.8" />
            <path d="M4 7.8 4.4 7.7l1 0.1C6 8 6.6 8.1 7.4 8.5c0.7 0.4 1.5 0.9 2.3 1.7-0.5 1.1-0.1 3.7 3.4 7.3 0.6 0.6 1.2 0.3 1.5-0.2l1.3-1.4 1.5-1.3c0.5-0.3 0.7-0.9 0.2-1.6-3.7-3.5-6.4-3.9-7.4-3.4C9 8.4 8.4 7.3 8 6.3L7.8 5 7.7 4.4 7.8 4 7.7 3.9 7.5 4v0.4l0.1 1C7.7 6 7.9 6.7 8.3 7.5 8.7 8.2 9.2 9 10 9.8H9.9L9.8 10C8.6 8.8 7.4 8.1 6.4 7.8L5 7.5H4L3.9 7.7zM4 7.8" />
        </symbol>
        <symbol id="food" viewBox="0 0 24 24" fill="currentColor">
            <path d="M9.7 1.1v5.1c0 0.4-0.3 0.6-0.6 0.6H9c-0.4 0-0.6-0.2-0.6-0.6V1c0-0.7-0.6-1-1.1-1-0.6 0-1.2 0.3-1.2 1v5.2c0 0.4-0.2 0.6-0.5 0.6H5.4C5 6.8 4.8 6.6 4.8 6.2V1.1c0-1.5-2.2-1.4-2.2 0V6c0 2.7 0.7 3.4 1.8 4.3C5.2 11 6 11.4 6 13v11h2.6V13c0-1.6 0.7-2 1.6-2.7 1-0.9 1.7-1.6 1.7-4.3V1.1c0-1.4-2.2-1.5-2.2 0zM9.7 1.1M18 1.6c-0.5 1.6-2 5.2-2.2 8.4-0.1 5 2.9 4.2 3 7.5V24h2.6V13 1.6c0-1.9-2.4-2.4-3.4 0zM18 1.6" />
        </symbol>
        <symbol id="fish3" viewBox="0 0 24 24" fill="currentColor">
            <path d="M23 13c0-0.6 1.2-3.7 0.8-3.7-1.1 0-2.8 2.1-3.8 2-0.4 0-1-0.3-1.8-0.5 0.2-0.4 0.3-1 0-1.1-0.4-0.1-0.8 0.3-1 0.7-0.7-0.4-1.6-0.6-2.5-0.9l-0.1-0.9c-0.2-0.5-0.2-1.9-0.4-1.8-1.4 0.2-2.6 1.5-3 2H9c-5.5 0.4-7.6 1.7-8.4 2s-0.7 0.9-0.1 1 1.6 0.8 2.5 1.7c0 0-2 0.2-2.4 0C0 13.3-0.2 13.7 0.2 14c0.5 0.4 2.1 1 4.3 1.6 1.7-1.2 1.5-3.3 1.3-3.9-0.4-0.7-0.1-1 0.2-0.2 0.9 1.5-0.2 3.5-0.6 4.2L7.2 16C7 15.7 7 15.4 7 15.2c0.4 0.5 1.2 1.6 1.7 1.9 0.5 0.4 1.8-0.1 1.9-0.6l-0.3-0.4c1.3 0 2.6-0.1 3.8-0.4 0.3 0.3 0.9 0.8 1.5 1 0.7-0.3 0.9-1.1 0.9-1.5l3.2-0.7c1.4 0 3.6 2 4.3 1.5 0.3-0.3-1-2.5-1-3zM3.2 12c-0.2 0-0.4-0.3-0.4-0.5 0-0.3 0.2-0.5 0.4-0.5 0.3 0 0.5 0.2 0.5 0.5 0 0.2-0.2 0.5-0.5 0.5zM3.2 12" />
        </symbol>
        <symbol id="camp" viewBox="0 0 24 24" fill="currentColor">
            <path d="M21.7 13.3c-0.9-1.3-1.7-2.7-2.4-4L17.4 5 14 5.2c-3.4 0-6-0.6-7.1-1 1.7 8.3 6.5 14.2 7.7 15.6L24 16c-0.8-0.7-1.6-1.7-2.3-2.7zM21.7 13.3" />
            <path d="M5 8.4c-1.1 2.6-2.8 5.9-5 8.9L4 18l1.7-5.4c0 0 0.8 3.6 2.6 3.8l0.1 2.4 4.8 0.8c-1.7-2.1-5.3-7.3-7-14.2zM5 8.4" />
        </symbol>
        <symbol id="fish4" viewBox="0 0 24 24" fill="currentColor">
            <path d="M8.2 5.2 8 5.3 7.9 5.4 7.7 5.5 7.5 5.6 7.3 5.7H7.2L6.5 6.4C7.2 6.2 8 6 9 6c1.8 0 3.6 0.5 5.1 1.2 0.2-0.8 0.4-1.8 0.9-2.6l0.1-0.4C12.1 4 10 4.4 8.6 5H8.5zM8.2 5.2M4 11.5c0-0.3-0.2-0.6-0.6-0.6s-0.7 0.3-0.7 0.6c0 0.5 0.3 0.7 0.7 0.7S4 12 4 11.5zM4 11.5M14.5 11.6l-0.8 0.9 0.7 0.9 0.8-0.9-0.6-0.8zM14.5 11.6M12.5 11.6l-0.8 0.9 0.7 0.9 0.8-0.9-0.6-0.8zM12.5 11.6" />
            <path d="M21.7 12.3c0.5-1.1 1.8-3.3 2.2-3.9L24 8.1c-1.9 0.4-3.8 1.9-5 3l-0.1 0.2-0.2 0.2h-0.1C18 10.5 16.3 9 14 7.8c-1.5-0.7-3.2-1.2-5-1.2-1.2 0-2.3 0.3-3.3 0.7-3.3 1.3-5.4 4.3-5.7 4.9 0.1 0.3 0.6 1 1.4 1.9h2c0 0.4-0.2 0.7-0.4 0.9 0 0.2-0.2 0.2-0.3 0.3 1.5 1.3 3.6 2.5 6.3 2.5h0.3l0.4 0.3 0.3 0.3c1 0.6 2.4 1.4 3.6 1.5l-0.9-2.1-0.2-0.2-0.1-0.3c1.6-0.6 3.1-1.4 4.2-2.3l0.3-0.2 0.1-0.1 0.2-0.1 0.1-0.2 0.1-0.1 0.2-0.2 0.1-0.1 0.2-0.2 0.1-0.1 0.1-0.1 0.1-0.1 0.3-0.5 0.3 0.3 0.2 0.2c0.9 0.9 2.3 2 3.8 2.7h0.1l0.1 0.1 1 0.3v-0.1 0.1c0 0-1.7-2.9-2.3-4.3zM15.5 12.8l-0.8 0.9 0.6 0.7-0.3 0.3-0.6-0.7-0.6 0.7-0.3-0.3 0.7-0.7-0.6-0.7-0.1-0.2-0.8 0.9 0.6 0.7-0.3 0.3-0.5-0.7h-0.1l-0.6 0.7-0.3-0.3 0.7-0.7-0.6-0.7-0.1-0.2-1.7 1.9-0.3-0.3 1.7-1.9-1.6-1.9 0.3-0.3 1.3 1.7 0.3 0.2 0.7-0.9-0.6-0.7 0.3-0.3 0.5 0.7h0.1l0.5-0.7 0.4 0.3-0.7 0.7 0.7 0.8 0.1 0.1 0.7-0.9-0.6-0.7 0.3-0.3 0.5 0.7h0.1l0.5-0.7 0.4 0.3-0.7 0.7 0.7 0.8 0.1 0.1 0.5-0.5 0.2 0.2-0.5 0.6 0.5 0.6-0.2 0.3-0.5-0.5zM6.4 14.6c1-0.4 1.6-1.3 1.6-2.4 0-1-0.6-2-1.5-2.4-0.2 0-0.2-0.2-0.2-0.3 0.1-0.1 0.2-0.2 0.4-0.1 1.1 0.5 1.8 1.6 1.8 2.8 0 1.3-0.7 2.4-1.9 2.9H6.5L6.3 15zM2.1 11.5c0-0.7 0.6-1.2 1.3-1.2s1.3 0.5 1.3 1.2c0 0.8-0.6 1.3-1.3 1.3s-1.3-0.5-1.3-1.3zM2.1 11.5" />
        </symbol>
        <symbol id="family" viewBox="0 0 24 24" fill="currentColor">
            <path d="M3.7 5.6c1.1 0 1.9-0.9 1.9-2 0-1-0.8-1.9-1.9-1.9s-2 0.9-2 1.9c0 1.1 0.9 2 2 2zM3.7 5.6M12 10.7c0.7 0 1.3-0.6 1.3-1.3 0-0.8-0.6-1.4-1.3-1.4s-1.3 0.6-1.3 1.4c0 0.7 0.6 1.3 1.3 1.3zM12 10.7M20.3 5.6c1.1 0 2-0.9 2-2 0-1-0.9-1.9-2-1.9s-1.9 0.9-1.9 1.9c0 1.1 0.8 2 1.9 2zM20.3 5.6" />
            <path d="M22 6.5h-2.5c-1 0-1.9 0.5-2.4 1.5l-1.5 4.5-0.3 0.2-0.3-0.1-1-0.8c-0.3-0.3-0.7-0.4-1-0.4h-2c-0.3 0-0.7 0.1-1 0.4l-1 0.8-0.3 0.1-0.3-0.2L6.9 8C6.4 7 5.5 6.5 4.5 6.5H2c-1 0-2 1-2 2V15c0 0.5 0.4 0.8 0.9 0.8h0.5l0.4 5.6c0 0.5 0.4 0.9 0.9 0.9h2c0.5 0 0.9-0.4 0.9-0.9l0.3-5.6v-3.9L6 11.7l0.1 0.1 1.3 3.1c0.1 0.3 0.4 0.5 0.7 0.5 0.4 0.1 0.7 0 0.9-0.2l1.2-0.9c0.1-0.1 0.1-0.1 0.2 0l0.1 0.1v3.4l0.2 3.9c0 0.3 0.3 0.6 0.6 0.6h1.4c0.3 0 0.6-0.3 0.6-0.6l0.2-3.9v-3.4l0.1-0.1c0.1-0.1 0.1-0.1 0.2 0l1.2 0.9c0.2 0.2 0.5 0.3 0.9 0.2 0.3 0 0.6-0.2 0.7-0.5l1.3-3.1 0.1-0.1 0.1 0.2v3.9l0.3 5.6c0 0.5 0.4 0.9 0.9 0.9h2c0.5 0 0.9-0.4 0.9-0.9l0.4-5.6h0.5c0.5 0 0.9-0.3 0.9-0.8V8.5c0-1-1-2-2-2zM22 6.5" />
        </symbol>
        <symbol id="fish6" viewBox="0 0 24 24" fill="currentColor">
            <path d="M22.6 11.8c0.4-0.7 0.5-1.5 0.5-2.4s-0.2-2-0.8-2.7c-1 0-1.6 0.5-2.1 0.9-0.6 0.5-1.2 1.1-2.4 1.1 0.2-0.5 0.2-0.9-0.1-1.4C17.6 6.9 17 6.2 15.9 6l-2 1.5h-0.1l0.4-1.2C13.5 6.4 13 6 13 5.3c-0.8 0.2-1.6 0-2-0.8-0.5 0.4-1.5 0.3-2.2-0.3L8.3 6.8C6.7 6.9 5.2 7.2 3.7 7.7 3.3 7.4 2.8 7.3 2.4 7.5 1.8 7.7 1.5 8.2 1.6 8.8L3 13.4H1c0 1.3 0 2.3 1.3 2.6 1.7 0.4 3.1 1 5.1 1.2 0.6 1.4 2.2 1.9 3.8 1.9 0.7-0.7 0.8-1.2 0.8-2.1l1-0.4c0.5 0.6 1.5 1.6 2.5 1.6 1.2 0 1.8-1.3 1.7-2.6L16 15c0.8-0.3 1.4-0.6 1.8-0.6 0.9 0 1.3 0.4 1.8 0.8 0.4 0.5 1.1 1.1 2.7 1.1 0.7-1 0.7-2 0.7-2.6 0-0.7-0.2-1.4-0.4-1.9zM16 6.8c0.5 0.2 0.8 0.5 1 0.9v0.9L15 8 14.8 7.8zM9.3 5.4c0.4 0.2 1 0.2 1.4 0.1 0.3 0.5 1.1 0.7 1.7 0.6 0.1 0.4 0.4 0.7 0.8 0.8L13 7.2C12 7 10.5 6.6 9.1 6.7zM10.8 18.3c-0.8 0-1.8-0.3-2.3-1l2.7-0.2c0 0.6-0.2 0.9-0.4 1.2zM15.5 17.4c-0.6 0-1.3-0.6-1.7-1.1l1.5-0.8 1.1 0.6c-0.1 0.8-0.4 1.3-0.9 1.3zM20.3 14.5c-0.5-0.5-1.1-1.1-2.5-1.1-0.8 0-1.6 0.5-2.5 1-1.5 0.9-3.3 2-6.7 1.9 0.6-0.4 0.9-0.9 1.1-1.4l2 0.5c0 0 0.8-1 0.7-2.3 0-1.4-1.1-2.1-1.1-2.1l-1.8 0.8-0.7-1.2H7.9c1.6 2.9 1.4 4.7-0.8 5.6C5.2 16 4 15.4 2.7 15.1 2.1 15 2 14.8 2 14.3h1.2l0.1 0.3h0.8L2.4 8.7C2.3 8.2 3.1 8 3.2 8.5L5 14.6h0.9L4.1 8.5C5.9 8 7.7 7.7 9.6 7.7c2 0 3.7 0.6 5.1 1.1 1.2 0.4 2.1 0.8 3 0.8 1.6 0 2.4-0.6 3.1-1.3 0.4-0.3 0.7-0.6 1-0.6 0.2 0.4 0.3 1 0.3 1.6L20 10l0.2 0.6 1.9-0.5C22 10.6 22 11 21.7 11.4l-1.3 0.1V12l1.3 0.1c0.2 0.4 0.3 0.9 0.3 1.3L20.2 13 20 13.5l2 0.7c0 0.4 0 0.8-0.2 1.2-0.8-0.1-1.1-0.4-1.5-0.9zM9.7 12.5 11.2 12c0.2 0.3 0.4 0.7 0.4 1.2 0.1 0.4 0 0.9-0.2 1.3l-1.5-0.4c0.1-0.5 0-1.1-0.2-1.6zM9.7 12.5" />
            <path d="M18.4 10.2c0 0 0.2 0.6 0.2 1.3 0 0.5 0 0.9-0.2 1.4l0.6 0.2c0 0 0.4-0.5 0.4-1.6 0-1-0.4-1.5-0.4-1.5zM18.4 10.2" />
        </symbol>
        <symbol id="cafe" viewBox="0 0 24 24" fill="currentColor">
            <path d="M24 7.8c-0.2-0.8-0.6-1.5-1.1-2C22.3 5.3 21.6 5 20.8 5l-0.9 0.2c-0.6-2-3.8-3.1-9-3.1-6 0-9.3 1.4-9.1 4.1 0.2 1.4 0.6 4 1.8 6.4l-1.5 0.7-1.4 1.3C0.4 15 0.1 15.7 0 16.3v0.3c0 0.4 0 0.8 0.2 1.2 0.3 0.6 0.8 1.2 1.4 1.6 0.9 0.7 2.1 1.4 3.7 1.8s3.5 0.7 5.7 0.7c3.5 0 6.1-0.6 8-1.5 1-0.4 1.7-1 2.3-1.6l0.6-1 0.2-1.1v-0.3c-0.1-0.6-0.3-1.2-0.7-1.7-0.5-0.7-1.4-1.4-2.2-1.8l-1-0.4 0.2-0.3c0.4 0.2 0.9 0.2 1.4 0.2 0.6 0 1.2-0.1 1.6-0.3 0.8-0.3 1.4-0.8 1.9-1.5C23.7 10 24 9.2 24 8.3zM10.9 4c3.6 0 6.5 0.8 6.5 1.7s-2.9 1.6-6.5 1.6-6.5-0.7-6.5-1.6S7.3 4 10.9 4zM19.1 14.7c0.5 0.3 0.8 0.6 1 0.9l0.4 1v0.1l-0.1 0.4c-0.1 0.3-0.4 0.7-0.9 1.1-0.6 0.5-1.7 1-3.1 1.4s-3.2 0.6-5.4 0.6c-3.2 0-5.6-0.5-7.2-1.3C3 18.5 2.4 18 2.1 17.7l-0.4-0.6-0.1-0.5v-0.1L2 15.6c0.4-0.5 1-0.9 1.7-1.2L4.5 14l1 1.3 1.1 1C6.2 16.5 6 16.7 6 17c0 0.8 2.5 1.5 5.5 1.5S17 17.8 17 17c0-0.4-0.5-0.8-1.4-1l0.7-0.7 1.1-1.3c0.6 0.1 1.2 0.4 1.7 0.7zM21.7 9l-0.8 1c-0.3 0.1-0.7 0.3-1.1 0.3l-0.6-0.2 0.5-2.1 0.5-0.6 0.6-0.1c0.2 0 0.5 0 0.6 0.2 0.2 0.1 0.3 0.3 0.4 0.6v0.2zM21.7 9" />
        </symbol>
        <symbol id="shop5" viewBox="0 0 24 24" fill="currentColor">
            <path d="M13 10.3l-0.4 0.2-0.6 0.8 2.9 0.9-0.7 0.9-0.1 0.2-2.8-1-1.1 1.6-1.8-0.6 1.1-1.6-2.8-1 0.1-0.1 0.7-0.9 2.8 1 0.5-0.7V9.5L8.2 8.7 8.8 7.8l1.8 0.6-0.3-2.2 1.5 0.5 0.4 2.9 3.5-1.6 1.5 0.6-2.7 1.1 1.7 0.6-0.6 0.9zM13 10.3" />
            <path d="M12 2.6C5.4 2.6 0 6 0 10v3.8c0 4.1 5.4 7.5 12 7.5s12-3.4 12-7.5V10c0-4.1-5.4-7.5-12-7.5zM12 4.2c5.6 0 10.4 2.8 10.4 5.9 0 3.3-4.8 5.9-10.4 5.9S1.6 13.4 1.6 10.1C1.6 7 6.4 4.2 12 4.2zM12 4.2" />
        </symbol>
        <symbol id="surfing" viewBox="0 0 24 24" fill="currentColor">
            <path d="M6.6 13.7 5.5 13.4 3.3 13.2 2.2 13.3c-0.3 0.1-0.7 0.3-0.9 0.7H1.2L1 14.8c0 0.6 0.3 1.2 0.7 1.8 0.5 0.9 1.4 1.8 2.6 2.8 1.3 0.9 2.9 1.8 4.7 2.6 3.5 1.3 7.6 2 10.4 2 0.9 0 1.6 0 2.2-0.2l0.8-0.4 0.3-0.3 0.2-0.4 0.1-0.1-0.1-0.2L22 21c-0.7-0.8-1.6-1.5-2.7-2.3-1-0.7-2.3-1.3-3.6-1.7l-0.4 1c1.7 0.6 3.2 1.5 4.4 2.4l1.4 1.3c0.4 0.4 0.6 0.8 0.7 1.1l0.5-0.2-0.5-0.1h0.1-0.1 0.1-0.1v-0.1 0.1-0.1l-0.2 0.2-0.8 0.2-1.4 0.1c-2.6 0-6.6-0.7-9.9-2-2.5-1-4.3-2.2-5.5-3.3L2.6 16c-0.3-0.5-0.4-1-0.4-1.2l0.1-0.4-0.6-0.1 0.5 0.3 0.3-0.2 0.8-0.1c0.7 0 1.4 0.1 2 0.3L6 14.7l0.2 0.1h0.1zM6.6 13.7M15.9 1.8C15.9 0.8 15 0 14 0c-0.9 0-1.7 0.8-1.7 1.8 0 0.9 0.8 1.7 1.7 1.7 1 0 1.8-0.8 1.8-1.7zM15.9 1.8" />
            <path d="M21.8 9.6 20.7 7c-0.2-0.4-0.5-0.7-0.9-0.9l-2.1-0.9c-1-0.4-2.1-0.6-3.2-0.5L13 4.9c-0.7 0.1-1.3 0.2-1.8 0.5L9 6.2 6.6 5.7C6.2 5.6 5.8 5.9 5.7 6.3S5.9 7 6.3 7.2L8.6 8H10l2.4-0.6 0.4 2-3 1.4c-0.6 0.2-1.1 0.7-1.3 1.3L7 16.4c0 0.5 0.2 1 0.7 1.2 0.5 0.1 1-0.1 1.3-0.6l1.7-4.2 2.9-1.2 0.2 0.1c0.1 0 0.2 0.1 0.1 0.3L13 13.7l-0.6 4.1c0 0.6 0.3 1.1 0.9 1.2 0.5 0 1-0.3 1.1-0.9l0.7-4 1.6-2.1c0.7-0.9 0.9-2 0.7-3L17 6.9l2 0.8 1.4 2.6c0.2 0.4 0.6 0.6 1 0.4S22 10 21.8 9.6zM21.8 9.6" />
        </symbol>
        <symbol id="spot" viewBox="0 0 24 24" fill="currentColor">
            <path d="M9 20.4c-1.7-0.6-3.4-1.2-5.3-1.2-1 0-1.9 0.1-2.9 0.4v1.3l0.3 0.2C4 20.3 6 20 11.3 22v-0.8L11 21.1c-0.7-0.1-1.3-0.4-2-0.7zM9 20.4" />
            <path d="M9.6 6v3.7L6.9 9V5.2L5.3 5.1C3.8 5.1 2 5.4 0 6.1v12.6l0.8-0.2c1-0.3 2-0.5 2.9-0.5 3 0 5.3 1.4 7.6 2V7L10 6.1zM9.6 6M15 20.4c-0.7 0.3-1.3 0.6-2 0.7l-0.3 0.1V22c5.3-2 7.3-1.7 10.2-0.9l0.3-0.2v-1.3c-1-0.3-1.9-0.4-2.9-0.4-1.9 0-3.6 0.6-5.3 1.2zM15 20.4" />
            <path d="M18.7 5.1c-3.9 0-6 1.9-6 1.9v13c2.3-0.6 4.6-2 7.6-2 0.9 0 1.9 0.2 2.9 0.5l0.7 0.2H24V6.1c-2-0.7-3.8-1-5.3-1zM18.7 5.1M9.6 2.7 7.5 2.2 6.9 2v3.2C8 5.4 8.9 5.7 9.6 6zM9.6 2.7" />
        </symbol>
        <symbol id="shop3" viewBox="0 0 24 24" fill="currentColor">
            <path d="M20 0c-0.5 0-0.8 0.3-1 0.7l-1 3.7H1.3C1 4.4 0.8 4.5 0.6 4.8 0.4 5 0.3 5.3 0.4 5.6l2.8 9.6c0.1 0.4 0.5 0.7 0.9 0.7h11l-0.4 1.6H4.2v1.7h11.1c0.4 0 0.8-0.3 0.9-0.7l4.3-16.8h3.1V0zM16.4 11l-0.8 3.2h-2.2V11zM17.7 6.1 16.8 9.3h-3.4V6.1zM11.8 11v3.2H8.1V11zM11.8 6.1v3.2H8.1V6.1zM6.7 6.1v3.2H3.2L2.3 6.1zM6.7 11v3.2h-2l-1-3.2zM6.7 11M5.8 20.5c-0.9 0-1.8 0.7-1.8 1.7 0 0.9 0.9 1.8 1.8 1.8 1 0 1.7-0.9 1.7-1.8 0-1-0.7-1.7-1.7-1.7zM5.8 20.5M14 20.6c-0.9 0-1.7 0.7-1.7 1.7 0 0.9 0.8 1.7 1.7 1.7 1 0 1.8-0.8 1.8-1.7 0-1-0.8-1.7-1.8-1.7zM14 20.6" />
        </symbol>
        <symbol id="fish2" viewBox="0 0 24 24" fill="currentColor">
            <path d="M24 16.5v-0.1l-0.2-0.2V16l-0.3-0.5-0.5-1.4c-0.2-0.6-0.2-1.1-0.2-1.6 0-0.4 0-0.8 0.2-1.2 0-0.5 0.3-1 0.6-1.6l0.2-0.4V9.1L24 9V8.9 8.8 8.7 8.6 8.5l-0.2-0.1h-0.2L22.4 9 21.7 9.7C21.4 10 21.2 10.4 21 11l-0.3 0.4-0.1 0.3h-0.1l-0.3-0.1-0.5-0.4c-0.9-0.5-2.6-1.4-4.6-2.2l0.7-1.2 0.4-0.5-0.6 0.1c-0.6 0-1.1 0.1-1.6 0.4-0.4 0.2-0.7 0.3-1 0.6L11.8 8c-1-0.5-1.5-1-1.8-1.4C9.7 6.4 9.6 6.2 9.5 6H9.4V5.9L9.3 5.5 9 5.7C8.7 5.8 8.3 6 8 6.3 7.6 6.6 7.3 7 7 7.5L6.5 8.3c-2.1 0.5-3.6 1.4-4.5 2-0.5 0.3-1 0.7-1.3 1.1l-0.4 0.4L0.2 12 0 12.2v0.2l1 0.8-0.9 0.2 0.2 0.3c0.1 0.1 0.5 0.7 1.5 1.5 0.9 0.7 2.5 1.6 5.1 2l1.7 1 0.8 0.2 0.4 0.1-0.2-1.1h0.1c1.2 0 2.5-0.2 3.9-0.6l1.4 0.4 1.3 0.1h0.4l0.1-0.1h0.1l0.1-0.1V17h0.1v-0.1-0.1L17 16.7v-0.1l-0.6-0.4-0.3-0.3 2.7-1.3 0.9-0.6H20l0.2-0.1v-0.1l0.3-0.1h0.1l0.1 0.3 0.4 0.7L22 16c0.3 0.3 0.5 0.5 0.8 0.6l0.8 0.4h0.2l0.2-0.1v-0.2-0.1zM7.7 7.5 8.4 6.8 9 6.3 9.2 6.7 10.7 8h-0.3l-2 0.1-1.2 0.1zM3.4 12.1c0.2 0 0.4 0.2 0.4 0.4s-0.2 0.3-0.4 0.3S3 12.7 3 12.5s0.2-0.4 0.4-0.4zM6 16.4c-1.5-0.4-2.8-0.9-3.9-1.7l-1-0.9 1.4-0.3-1-0.7h1c0.1 0.4 0.5 0.7 0.9 0.7s0.8-0.3 0.9-0.7h2.1C6.6 14 6.6 15.5 6 16.4zM20.3 13.1 20 13.3h-0.1l-0.2 0.1-0.2 0.2-1.5 0.7-2.5 1.2h-0.1L15 15.7 14.2 16h-0.4l-0.3 0.2c-1.4 0.4-2.6 0.6-3.8 0.6H9l-1-0.1-1-0.1-0.3-0.1c0.3-0.6 0.6-2.1 0.1-3.7h13.5v0.1l0.1 0.1zM20.3 13.1" />
        </symbol>
        <symbol id="shop4" viewBox="0 0 24 24" fill="currentColor">
            <path d="M15.8 11.2h-2.6l-0.3 0.5v1h2.9v1.5h-2.9v2.2h-1.8v-2.2H8.2v-1.5h2.9v-1l-0.3-0.5H8.2V10H10L8.5 7.6H10l2 3.1 2-3.1h1.5L14 10h1.8zM15.8 11.2" />
            <path d="M12 3c5 0 9 4 9 9s-4 9-9 9-9-4-9-9 4-9 9-9M12 0C5.4 0 0 5.4 0 12s5.4 12 12 12 12-5.4 12-12S18.6 0 12 0zM12 0" />
        </symbol>
        <symbol id="Prohibited" viewBox="0 0 24 24" fill="currentColor">
            <path d="M20.5 3.5c-4.7-4.7-12.3-4.7-17 0s-4.7 12.3 0 17 12.3 4.7 17 0 4.7-12.3 0-17zM6.4 6.4c2.6-2.5 6.5-2.9 9.5-1.3L5.1 15.9c-1.6-3-1.2-6.9 1.3-9.5zM17.6 17.6c-2.6 2.5-6.5 2.9-9.5 1.3L18.9 8.1c1.6 3 1.2 6.9-1.3 9.5zM17.6 17.6" />
        </symbol>
        <symbol id="parking2" viewBox="0 0 24 24" fill="currentColor">
            <path d="M13.2 7h-2.8v4.2h2.8c0.8 0 1.2-0.2 1.6-0.6 0.4-0.3 0.6-0.8 0.6-1.5 0-0.6-0.2-1.1-0.6-1.5S14 7 13.2 7zM13.2 7" />
            <path d="M20.5 0h-17C1.5 0 0 1.5 0 3.5v17c0 2 1.5 3.5 3.5 3.5h17c2 0 3.5-1.5 3.5-3.5v-17c0-2-1.5-3.5-3.5-3.5zM18 11c-0.2 0.5-0.5 1-1 1.5-0.4 0.5-0.9 0.8-1.5 1-0.6 0.3-1.3 0.4-2.1 0.4h-3v5.7H7.5V4.4h5.9c0.8 0 1.5 0.1 2.1 0.4 0.6 0.2 1.1 0.6 1.5 1 0.5 0.4 0.8 0.9 1 1.5 0.3 0.6 0.4 1.2 0.4 1.8 0 0.7-0.1 1.3-0.4 1.9zM18 11" />
        </symbol>
        <symbol id="shop0" viewBox="0 0 24 24" fill="currentColor">
            <path d="M13.8 15.4l-0.1-0.1c-0.1 0-0.5-0.3-0.8-0.2-0.1 0-0.1 0 0 0.2l0.3 0.7c0 0.3 0.1 0.3 0.2 0.2l0.2-0.2 0.2 0.4c0.1 0.3 0.1 0.6-0.1 0.9-0.1 0.3-0.4 0.5-0.7 0.5-0.3 0.2-0.6 0.1-0.8-0.1-0.2-0.1-0.5-0.3-0.6-0.7l-0.7-2.5 0.1-0.2v-0.5c0-0.2 0-0.3-0.2-0.4l-0.6-0.1-0.4 0.4-0.1 0.5 0.3 0.4 0.3 0.1 0.7 2.5v0.9c-0.2 0.3-0.4 0.5-0.7 0.5H9.4l-0.5-0.7v-0.5l0.3 0.1c0 0 0.1-0.1 0-0.2C9 17 9 16.8 9 16.4v-0.1c-0.4 0.1-0.6 0.5-0.6 0.7H8.3v1c0.1 0.5 0.4 0.9 0.8 1 0.4 0.3 0.9 0.4 1.4 0.2 0.5-0.1 0.8-0.4 1-0.8l0.1-0.3 0.3 0.2c0.4 0.2 0.9 0.3 1.3 0.1 0.5-0.1 0.8-0.4 1-0.8 0.3-0.4 0.3-0.9 0.2-1.3s-0.4-0.7-0.6-0.9zM10.6 14l-0.1 0.2h-0.2L10.2 14v-0.1l0.2-0.1h0.1zM10.6 14M23.6 12.1c-0.1-0.1-0.5-0.4-0.8-0.4l-0.1 0.1 0.2 0.9C22.8 13 23 13 23 13l0.2-0.3 0.2 0.5c0 0.3-0.1 0.6-0.4 0.8-0.1 0.3-0.4 0.4-0.7 0.4l-0.9-0.3C21.2 14 21 13.6 21 13.3v-2.7l0.1-0.1 0.2-0.5c0-0.3-0.1-0.4-0.3-0.6 0-0.1-0.3-0.2-0.5-0.1L20 9.5 19.8 10 20 10.5l0.3 0.2 0.1 2.7c0.1 0.3 0 0.6-0.3 0.8-0.1 0.2-0.4 0.4-0.7 0.4-0.4 0-0.7-0.1-0.9-0.3s-0.4-0.5-0.4-0.8l0.1-0.5 0.3 0.2 0.1-0.2v-1l-0.1-0.1-0.7 0.5v0.1c-0.2 0.3-0.3 0.7-0.3 1 0 0.5 0.2 1 0.6 1.3 0.4 0.2 0.9 0.4 1.3 0.4 0.5 0 0.9-0.2 1.2-0.6l0.2-0.2 0.2 0.2c0.4 0.4 0.8 0.4 1.3 0.4s0.9-0.2 1.2-0.5c0.4-0.4 0.5-0.8 0.5-1.3 0-0.4-0.2-0.8-0.4-1.1zM20.7 10.1l-0.1 0.1-0.2-0.1V10 9.8h0.3l0.1 0.2zM20.7 10.1M5.7 8.4C5.7 8 5.4 7.7 5 7.7S4.3 8 4.3 8.4 4.6 9 5 9 5.7 8.8 5.7 8.4zM5.7 8.4" />
            <path d="M14 11.5c1.4-0.7 4.5-0.7 4.8-0.8C19 10.6 19.4 9.3 19 9 16.4 6.3 11.7 4.2 7.3 4.8 3.7 5.3 2 7.6 1.6 8.9V8.8L1 8.6 0.3 8.8C0.1 9 0 9.2 0 9.5s0.1 0.5 0.3 0.6c0.1 0.2 0.4 0.3 0.7 0.3l0.6-0.3 0.1-0.1c0.2 0.4 0.4 0.8 0.8 1.1l-1.7 2c-0.2 0.2-0.2 0.5 0 0.7s0.5 0.2 0.7 0l1.7-2c1.6 1 3.8 1.5 5.6 1.5 1.6-0.1 4-1.2 5.2-1.8zM1.4 9.8C1.3 10 1.1 10 1.1 10c-0.2 0-0.3 0-0.4-0.2L0.5 9.5 0.7 9.1 1 9 1.3 9.1 1.4 9.5 1.3 9.8zM16.4 8.4c0.2 0 0.3 0.1 0.3 0.3 0 0.3-0.1 0.3-0.3 0.3s-0.3 0-0.3-0.3c0-0.2 0.1-0.3 0.3-0.3zM14.3 6.8c0.2 0 0.4 0.2 0.4 0.4s-0.2 0.3-0.4 0.3S14 7.4 14 7.2s0.1-0.4 0.3-0.4zM11.7 7.1c0.3 0 0.5 0.3 0.5 0.5 0 0.4-0.2 0.5-0.5 0.5S11.2 8 11.2 7.6c0-0.2 0.2-0.5 0.5-0.5zM9.5 5.7c0.2 0 0.5 0.2 0.5 0.4 0 0.3-0.3 0.5-0.5 0.5C9.2 6.6 9 6.4 9 6.1 9 5.9 9.2 5.7 9.5 5.7zM8 8c0.2 0 0.4 0.3 0.4 0.5C8.3 8.8 8 9 7.8 9 7.6 8.9 7.4 8.7 7.4 8.4S7.7 8 8 8zM5 7c0.8 0 1.4 0.6 1.4 1.4 0 0.7-0.6 1.3-1.4 1.3-0.7 0-1.3-0.6-1.3-1.3C3.7 7.6 4.3 7 5 7zM8.5 12.7c-2.1 0-4.5-0.7-5.7-2C4 11 5.6 11 7.4 10.8c0.1 0.7 0.3 1.3 0.6 1.3s0.6-0.6 0.6-1.4l1.6-0.2h0.1c0.1 0.7 0.3 1.1 0.6 1.1s0.5-0.6 0.6-1.3l1.3-0.2c0.1 0.5 0.2 0.9 0.5 0.9 0.2 0 0.4-0.5 0.5-1 1.7-0.2 3.3-0.3 4.8 0l-0.1 0.1-0.3 0.1c-1 0.1-3.2 0.2-4.4 0.8-1 0.5-3.4 1.6-5 1.7zM8.5 12.7" />
        </symbol>
        <symbol id="ramen" viewBox="0 0 24 24" fill="currentColor">
            <path d="M24 11v-0.3c0-0.5-0.3-0.9-0.6-1.2C23 9.2 22.6 9 22.1 9H1.9C1.4 9 1 9.2 0.6 9.5 0.3 9.8 0 10.2 0 10.7v0.5c0.3 2.2 1.1 4.3 2.4 6 1.1 1.5 2.6 2.8 4.4 3.6l-0.1 0.6-0.1 0.3v0.4l0.1 0.6 0.3 0.5 0.4 0.2 0.6 0.2 0.6 0.1h6.5l0.8-0.1 0.5-0.2 0.4-0.2C17 23 17 22.8 17 22.6l0.1-0.5v-0.4L17 21.4v-0.5c1.8-0.9 3.4-2.1 4.5-3.6 1.4-1.7 2.2-3.8 2.5-6.1zM15.1 22H8.2 8.3v-0.4l0.1-1h6.9l0.2 1V22zM20.3 16.3c-1.2 1.5-2.7 2.7-4.5 3.3l-0.5 0.2H8.5L8 19.5c-1.7-0.7-3.2-1.9-4.3-3.3-0.4-0.5-0.7-0.9-0.9-1.5h0.8V13H5v1.2H4.6v-0.8H4v1.3h1.7v-2.3H3v1.8H2.5l-0.2-0.5h0.3v-1.3H1.9l-0.3-1.3 0.1-0.3v-0.1l0.2-0.1h20.2l0.2 0.1v0.1l0.1 0.3-0.3 1.3h-1.7v1.8H19V13h0.4v0.7H20v-1.3h-1.6-0.1v2.3H21V13h1l-0.2 0.4h-0.3-0.1v1zM20.3 16.3" />
            <path d="M11.4 12.4H8.8v1.8H7.3V13h0.4v0.7h0.7v-1.3H6.7v2.3h2.7V13h1.4v1.2h-0.4v-0.8H9.8v1.3h1.7v-2.3zM11.4 12.4M17.2 12.4h-2.6v1.8h-1.4V13h0.4v0.7h0.6v-1.3h-1.7v2.3h2.7V13h1.5v1.2h-0.4v-0.8h-0.7v1.3h1.7v-2.3zM17.2 12.4M6.8 4.2C7 4.6 7 5 7 5.3v1c-0.2 0.6-0.4 1-0.2 1.1 0.2 0.2 0.6-0.1 1-0.7C8 6.4 8.3 6 8.4 5.4S8.3 4.2 8 3.6L7.6 2.5l-0.1-1c0.1-0.6 0.2-1.1 0-1.2-0.1 0-0.5 0.2-0.9 0.9C6.4 1.5 6.3 2 6.3 2.6zM6.8 4.2M11.5 4.2c0.2 0.4 0.2 0.8 0.2 1.1l-0.1 1c-0.2 0.6-0.3 1-0.1 1.1 0.1 0.2 0.5-0.1 1-0.7C12.7 6.4 13 6 13 5.4c0.1-0.6 0-1.2-0.3-1.8l-0.5-1.1v-1c0.1-0.6 0.2-1.1 0-1.2-0.2 0-0.6 0.2-0.9 0.9C11 1.5 11 2 11 2.6s0.3 1.2 0.5 1.6zM11.5 4.2M16.1 4.2l0.3 1.1-0.2 1c-0.2 0.6-0.2 1-0.1 1.1 0.2 0.2 0.6-0.1 1-0.7 0.2-0.3 0.5-0.7 0.6-1.3s-0.1-1.2-0.3-1.8l-0.5-1.1-0.1-1c0.1-0.6 0.2-1.1 0-1.2-0.1 0-0.5 0.2-0.9 0.9-0.2 0.3-0.3 0.8-0.3 1.4zM16.1 4.2" />
        </symbol>
        <symbol id="shop1" viewBox="0 0 24 24" fill="currentColor">
            <path d="M16.6 4.4c-0.2 0-0.4 0-0.5 0.2L15.9 5l0.2 0.6 0.5 0.2 0.5-0.2c0.2-0.1 0.3-0.3 0.3-0.6l-0.3-0.4c-0.1-0.2-0.3-0.2-0.5-0.2zM16.6 4.4" />
            <path d="M20.2 1.5C19.3 0.5 18 0 16.6 0 15.3 0 14 0.5 13 1.5 12 2.4 11.5 3.7 11.5 5c0 1.4 0.5 2.7 1.5 3.7V15c0 0.6-0.1 1-0.5 1.3-0.3 0.4-0.8 0.6-1.3 0.6s-0.9-0.2-1.2-0.5L9.7 16l0.9-0.7c0.4-0.4 0.8-1.3 0.5-2.6-0.1-0.7 0.2-1.9 0.3-2.3 0.3-1.3 0-2.1-0.4-2.6-0.5-0.6-1.3-1-2-1L8.5 6.9c-2 0.2-3.7 1.8-4.4 2.7L4 9.7c-1 1.6-1.7 3.4-1.7 5.3 0 2.4 0.9 4.7 2.7 6.4C6.6 23 8.8 24 11.2 24s4.7-1 6.4-2.6c1.7-1.7 2.6-4 2.6-6.4V8.7c1-1 1.5-2.3 1.5-3.7 0-1.3-0.5-2.6-1.5-3.5zM18.5 7 17.8 7.5V15c0 1.8-0.8 3.4-1.9 4.7-1.3 1.3-2.9 1.9-4.7 1.9-1.7 0-3.3-0.6-4.6-1.9-1.2-1.3-1.9-2.9-1.9-4.7 0-1.4 0.5-2.7 1.3-3.8L6.1 11c0.2-0.4 1.5-1.6 2.7-1.7C9 9.2 9.2 9.3 9 9.8c-0.2 1.4-0.4 2.5-0.2 3.4 0.2 0.7-0.3 0.8-0.4 0.7l-1-0.6C7.1 13.8 7 14.4 7 15c0 1.2 0.4 2.3 1.2 3 0.8 0.9 1.9 1.3 3 1.3 1.2 0 2.2-0.4 3-1.3 0.8-0.7 1.3-1.8 1.3-3V7.5L14.7 7C14.3 6.5 14 5.8 14 5c0-0.7 0.3-1.3 0.7-1.8 0.5-0.5 1.2-0.8 1.9-0.8 0.8 0 1.4 0.3 1.9 0.8s0.8 1.1 0.8 1.8c0 0.8-0.3 1.5-0.8 2zM18.5 7" />
        </symbol>
        <symbol id="shop2" viewBox="0 0 24 24" fill="currentColor">
            <path d="M6.9 9.7c1 0 1.8-0.7 1.8-1.7l0.7-7H6.5L5.1 8c0 1 0.9 1.7 1.8 1.7zM6.9 9.7M12 9.7c1 0 1.8-0.7 1.8-1.7l-0.4-7h-2.8l-0.4 7c0 1 0.8 1.7 1.8 1.7zM12 9.7M17.1 9.7C18 9.7 18.9 9 18.9 8l-1.4-7h-2.9l0.7 7c0 1 0.8 1.7 1.8 1.7zM17.1 9.7" />
            <path d="M21.6 1h-2.9l1.7 7c0 0.8 0.6 1.5 1.4 1.7v11.8H19v-8h-6.8v8h-10V9.7C3 9.5 3.6 8.8 3.6 8l1.7-7H2.4L0 8c0 0.5 0.3 1 0.7 1.4V23h22.6V9.4C23.7 9 24 8.5 24 8zM18 21.5h-4.7v-6.9H18zM18 21.5" />
        </symbol>
        <symbol id="kaisendon" viewBox="0 0 24 24" fill="currentColor">
            <path d="M1.4 21.6h21.2v-1.8L1.4 20.2zM1.4 21.6M1.4 23.4l21.2 0.4V22H1.4zM1.4 23.4M7.2 16v1c0 1 2.1 2 4.8 2s4.8-1 4.8-2v-1C21 14.1 24 9.9 24 5c0-2.7-5.4-4.8-12-4.8S0 2.3 0 5c0 4.9 3 9.1 7.2 11zM2 5c0-0.1 0.4-0.9 2.2-1.6C6.3 2.6 9 2.1 12 2.1s5.7 0.5 7.8 1.3C21.6 4.1 22 4.9 22 5c0 0-0.4 0.8-2.2 1.6C17.7 7.4 15 7.8 12 7.8S6.3 7.4 4.2 6.6C2.4 5.8 2 5 2 5zM2 5" />
        </symbol>
        <symbol id="onsen" viewBox="0 0 24 24" fill="currentColor">
            <path d="M18.8 0v2.7H14V0h-4v2.7H5.2V0h-4v24h21.6V0zM14 12.6l0.3-0.9 0.3-0.6v-0.7l-0.1-1-0.2-0.8 0.1-0.5 0.5 0.1 0.6 0.8 0.2 0.6 0.2 0.8-0.1 0.9-0.3 0.9-0.3 0.7v0.6l0.1 1.1 0.2 0.8-0.1 0.4c-0.1 0.1-0.3 0-0.4-0.1-0.3-0.1-0.5-0.3-0.7-0.7L14 14.3v-0.8zM11.2 12.7l0.3-1 0.3-0.7v-0.7L11.7 9 11.5 8.1l0.1-0.5c0.1 0 0.3 0 0.4 0.2 0.3 0.1 0.5 0.4 0.7 0.8 0.3 0.5 0.3 1 0.3 1.6v1l-0.3 0.9-0.2 0.9-0.1 0.7 0.1 1.2 0.2 0.9c0.1 0.3 0.1 0.4-0.1 0.5-0.1 0.1-0.2 0-0.4-0.2-0.2 0-0.5-0.4-0.7-0.8-0.2-0.5-0.3-1-0.3-1.6zM8.4 12.6l0.3-0.9 0.3-0.6v-0.7-1L8.7 8.6 8.8 8.1 9.3 8.2 10 9c0 0.1 0 0.4 0.2 0.6l0.1 0.8-0.1 0.9-0.3 0.9-0.3 0.7v0.6l0.1 1.1 0.2 0.8c0.1 0.2 0 0.3-0.1 0.4s-0.3 0-0.5-0.1-0.4-0.3-0.6-0.7l-0.2-0.7-0.2-0.8zM19 16.3c-0.2 0.6-0.6 1-1 1.4-0.7 0.6-1.5 1.1-2.6 1.4-1 0.3-2.2 0.5-3.4 0.5s-2.4-0.2-3.4-0.5c-1.1-0.3-1.9-0.8-2.6-1.4-0.4-0.4-0.8-0.8-1-1.4l-0.2-0.9 0.2-1c0-0.3 0.4-0.6 0.6-0.8 0.4-0.5 1-0.6 1.2-0.8 0.2-0.1 0.4-0.1 0.6 0.2 0.1 0.1 0 0.4-0.2 0.5-1.2 0.8-1.4 1.8-0.5 2.8l1.1 0.9C8.6 17.6 10.3 18 12 18s3.4-0.4 4.2-0.8l1.1-0.9c0.9-1 0.7-2-0.5-2.8-0.2-0.1-0.3-0.4-0.2-0.5 0.2-0.3 0.4-0.3 0.6-0.2 0.2 0.2 0.8 0.3 1.2 0.8 0.2 0.2 0.6 0.5 0.6 0.8l0.2 1zM19 16.3" />
        </symbol>
        <symbol id="parking" viewBox="0 0 24 24" fill="currentColor">
            <path d="M23.5 10 21.9 7.4C21.3 6.5 20.4 6 19.4 6H12c-1.3 0-2.5 0.5-3.4 1.4L6.5 9.6 1.4 10.7C0.6 11 0 11.7 0 12.5v2c0 0.5 0.3 0.8 0.8 0.8h2.7v0.2C3.5 16.9 4.6 18 6 18s2.5-1.1 2.5-2.5v-0.2h8l-0.1 0.2c0 1.4 1.2 2.5 2.6 2.5s2.5-1.1 2.5-2.5v-0.2h1.7c0.5 0 0.8-0.3 0.8-0.8v-2.7c0-0.7-0.2-1.3-0.5-1.8zM6 16.4c-0.6 0-1-0.5-1-1s0.4-1 1-1c0.5 0 1 0.5 1 1s-0.5 1-1 1zM12.4 10H7.8l1.8-1.8c0.6-0.6 1.4-1 2.4-1h0.4zM17.6 10h-4V7.3h4zM19 16.4c-0.6 0-1-0.5-1-1s0.4-1 1-1c0.5 0 1 0.5 1 1s-0.5 1-1 1zM18.7 10V7.3h0.7c0.6 0 1 0.3 1.3 0.7l1.3 2.1zM18.7 10" />
        </symbol>
    </defs>
</svg>