<svg version="1.1" xmlns="http://www.w3.org/2000/svg" xmlns:xlink="http://www.w3.org/1999/xlink">
    <defs>
        <symbol id="fish5" viewBox="0 0 24 24">
            <path d="M176 275c-4-44-37-78-73-75-3 0-4 4-3 7 3 9 11 9 12 18 1 10-9 10-9 20 1 9 12 8 13 18 0 9-10 10-9 19 1 10 11 9 12 18l-1 6-2-2c-6-10-18-2-25-12s8-16 1-26-15 3-20-7c-6-11 7-18 1-28-5-11-18-5-23-16s5-17 2-28c-2-5-5-8-8-7-43 21-59 84-27 132 33 49 87 68 127 41 21-15 35-45 32-78zM176 217c-4 4-4 10 0 14s10 4 14 0 4-10 0-14-10-4-14 0zM214 178c-3 4-3 10 0 14 4 4 11 4 15 0s3-10 0-14c-4-4-11-4-15 0zM206 345c-8-1-29-5-36-11l-10 16c0 0 37 18 44 18 6 0 10-22 2-23zM215 363l26-18-11-13-17 14zM244 350l-21 32c0 0-5 7-2 12 2 4 6 8 12 4s21-34 21-34zM213 385l-40 3c-7 0-11 10-2 16 10 5 49-1 49-1s-8-9-7-18zM245 404c0 0-3 8 0 12s7 7 13 2c6-4 15-37 15-37l-12-11zM241 422c0 0-1 40 6 48 7 9 17 3 16-4-2-8-4-40-4-40-8 3-18-4-18-4zM285 436c5-1 7-9 7-9s10-33 10-37l-16 1c0 0-14 32-13 39 2 7 7 8 12 6zM294 437c-7 6-19 4-19 4s18 36 28 40c11 4 16-5 12-11zM187 52c11 3 17-7 28-2s5 18 16 23 17-7 28-2c10 6-3 14 7 21s16-8 26-1 2 19 12 25l2 2-6 1c-9-1-8-11-18-12-9-1-10 9-19 9-10-1-9-12-18-13-10 0-10 10-20 9-9-1-9-9-18-12-3-1-7 0-7 3-3 36 31 69 75 73 33 3 63-11 77-32h1c27-40 8-94-41-127-48-32-111-16-132 27-1 3 2 6 7 8zM373 373l26-25c8-8 13-19 4-32-5-6-11-7-16-6-4 0-11 5-14 8l-29 26-26 29c-3 3-8 10-8 14-1 5 0 11 6 16 13 9 24 4 32-4zM428 380c7-7 12-16 3-28-4-6-10-7-14-6-4 0-10 5-13 7l-27 24-24 27c-2 3-7 9-7 13-1 4 0 10 6 14 12 9 21 4 28-3l24-24zM444 384c-10-3-28 17-36 24-7 8-27 26-24 36s19 70 45 68c26-3 14-54 21-62 8-7 59 5 62-21 2-26-57-42-68-45zM334 170c6 7 10 28 11 36s23 4 23-2c0-7-18-44-18-44zM332 230l13 11 18-26-17-2zM364 254c0 0 30-15 34-21s0-10-4-12c-5-3-12 2-12 2s-29 18-32 21zM403 220c0 0 6-39 1-49-6-9-16-5-16 2l-3 40c9-1 18 7 18 7zM370 261l11 12c0 0 33-9 37-15 5-6 2-10-2-13s-12 0-12 0-32 14-34 16zM426 259c0 0 32 2 40 4 7 1 13-8 4-16-8-7-48-6-48-6s7 10 4 18zM430 273c-7-1-39 13-39 13l-1 16c4 0 37-10 37-10s8-2 9-7c2-5 1-10-6-12zM437 294l33 21c6 5 15-1 11-12s-40-28-40-28 2 12-4 19z" />
            <path d="M86 166l8-1c6 0 13 0 21 2 12 2 27 6 43 15 15 8 32 19 48 35-10 23-1 79 74 157 13 12 26 6 32-5 8-11 27-31 27-31s20-19 31-26 17-20 4-33c-78-76-135-84-157-73-25-26-38-51-45-72-4-11-6-21-7-29V94l1-8-2-3c-2 0-3 1-3 2l-1 9c-1 6 0 13 1 22 3 12 8 28 16 44s19 32 35 49l-1 1-2 2c-26-25-52-38-73-46l-31-6-11-1-9 1-2 3c0 2 2 3 3 3z" />
        </symbol>
        <symbol id="fish4" viewBox="0 0 24 24">
            <path d="M175 111l-3 1-4 2-4 3-3 1-6 4-1 1c-6 4-12 8-16 13 16-5 34-8 52-8 40 0 78 11 111 25 3-16 9-37 18-56l4-7c-64-5-109 4-140 17l-2 1zM87 246c0-8-6-14-14-14-9 0-15 6-15 14s6 15 15 15c8 0 14-7 14-15zM309 248l-17 19 16 19 17-19-14-17zM266 248l-16 19 16 19 16-19-14-16z" />
            <path d="M464 263c9-24 36-70 45-85l3-4c-40 7-81 40-105 63l-5 4-4 4-1 1c-13-21-49-56-99-79-31-15-68-26-108-26-24 0-47 6-68 14C51 183 6 248 0 261c3 5 13 21 30 40h43c0 8-4 16-9 21l-6 4-1 1c33 28 78 53 133 53h9l8 6 8 6c20 14 50 31 74 32-3-11-11-28-19-44l-2-6h-1l-2-5-1-1c36-11 66-29 90-47l6-5 2-2 4-4 3-2 3-3 4-4 2-2 4-4 2-2 3-4 2-2 6-8 5 4 5 5c19 18 49 43 81 57l2 1 3 1 21 6c0 0-37-61-48-90zM330 273l-17 19 14 16-6 5-13-15-13 15-6-5 14-16-14-17-2-2-16 19 13 16-6 5-11-13-1-2h-1l-13 15-6-5 14-16-13-17-2-2h-1l-35 40-5-5 35-41-34-41 5-5 30 34 4 6 17-19-14-16 6-5 11 13 2 2 13-15 6 5-14 16 14 16 2 3 17-19-14-16 6-5 11 13 2 2 13-15 6 5-14 16 14 16 2 3 10-12 6 5-11 13 11 13-5 6-10-11zM137 312c21-8 34-28 34-51s-13-43-33-52c-3-1-4-4-3-7 1-2 4-3 7-2 24 10 39 34 39 61s-15 51-40 61h-2c-2 0-4-1-4-3-1-2 0-5 2-7zM45 246c0-15 12-27 28-27 15 0 27 12 27 27s-12 28-27 28c-16 0-28-13-28-28z" />
        </symbol>
        <symbol id="fish3" viewBox="0 0 24 24">
            <path d="M491 277c0-13 26-79 16-79-22 1-60 46-82 44-8-1-20-6-37-12 5-8 8-21-1-23-7-2-15 7-20 14-15-6-33-13-53-19 0-2 0-9-3-18-4-11-3-41-9-40-28 7-54 33-63 43h-47C74 197 29 224 13 230c-16 7-15 20-2 21 12 2 35 17 53 36 0 0-41 6-52 1s-16 4-7 12 45 22 92 32c36-26 33-70 26-83-7-14-1-20 7-4 17 34-6 76-15 91l38 5-5-17c9 12 27 35 37 41 12 8 39-3 40-14 0-2-2-4-5-7 27-1 55-4 81-9 6 6 19 16 32 20 15-4 19-21 20-30l67-16c31 0 78 44 91 32 7-6-19-52-20-64zM69 254c-5 0-10-4-10-10 0-5 5-9 10-9s10 4 10 9c0 6-5 10-10 10z" />
        </symbol>
        <symbol id="fish1" viewBox="0 0 24 24">
            <path d="M473 266l39-98c0-2 0-5-2-6-2-2-5-2-6 0l-100 73c-21-3-44-54-145-79l29-4c5-1 9-4 12-8 2-4 3-9 1-13l-15-41c-2-5-6-9-11-10s-11 0-15 4l-68 63C82 150 0 238 0 266c4 24 49 78 117 105l18-29c13-27 17-50 17-66l-1-15c-2-6 2-12 8-13 6-2 12 2 13 8 2 6 2 12 2 20 0 20-4 46-19 76l-16 26c24 6 50 9 77 7l20 39c2 4 6 7 10 8 5 1 9 1 13-2l15-10c5-3 7-7 8-12 0-5-2-10-6-14l-21-16c105-25 128-77 149-80l100 73c1 2 4 2 6 0 2-1 2-4 2-6zM76 274c-9 0-16-8-16-17s7-17 16-17 17 8 17 17-7 17-17 17z" />
        </symbol>
        <symbol id="camp" viewBox="0 0 24 24">
            <path d="M462 285c-19-28-36-58-50-86-20-41-35-77-41-94-26 3-51 5-74 5-70 0-124-13-151-20 37 176 139 302 165 332l201-80c-18-16-35-36-50-57z" />
            <path d="M106 179C83 235 47 305 0 370l87 15 34-115c0 0 18 75 57 79l1 52 104 18c-38-46-115-156-151-304z" />
        </symbol>
        <symbol id="shop0" viewBox="0 0 24 24">
            <path d="M294 328l-1-1c-2-1-11-6-18-5-1 0-2 1 0 3 4 7 6 13 7 18 0 4 2 4 3 3l4-5c3 3 4 6 5 10 2 6 1 12-2 18s-8 10-14 12c-6 1-13 1-18-2-6-4-10-9-12-15l-16-54 3-4c2-4 3-8 2-12-2-4-4-7-8-9-3-2-7-2-11-1s-7 4-9 7c-2 4-3 8-1 12 1 4 3 7 7 9l5 2 16 54c2 6 1 13-2 18-3 6-8 10-14 12-7 2-13 1-19-2-5-3-9-8-11-14-1-4-2-7-1-11l6 2c1 0 3-1 1-5s-3-10-3-18c0-3-1-4-3-3-6 3-11 12-12 14v1c-3 7-3 15-1 23 3 10 9 18 18 22 9 5 19 6 28 3 10-3 18-9 22-18l3-6 6 4c8 5 18 6 28 3 9-3 17-9 22-18s6-19 3-28c-2-8-7-14-13-19zM226 301l-3 2-3-1-2-2 1-3 2-2h3l2 2zM503 259v-1c-2-2-10-9-17-9-1 0-2 0-1 3 2 8 4 14 3 20-1 4 1 4 2 3l6-3 3 10c0 6-2 13-7 18-4 5-10 8-17 8-6 0-13-2-17-6-5-5-8-11-9-17l-3-58 4-4c3-3 4-7 4-11s-2-8-5-11c-3-2-7-4-11-4-4 1-8 3-11 6-3 2-4 7-4 11s2 8 5 10c2 2 3 3 5 3l3 58c0 7-2 13-6 18-5 5-11 8-17 8-7 1-13-2-18-6s-8-10-8-17c0-4 0-7 2-11l5 4c1 0 4 0 3-4-2-6-1-12 0-20 1-3 0-4-1-3-7 1-15 9-16 11v1c-5 7-7 15-6 23 0 10 5 19 12 26 8 7 17 10 28 10 10-1 19-5 26-13l4-6 5 6c7 6 17 10 27 9 10 0 20-5 26-12 7-8 11-18 10-28-1-8-4-16-9-22zM442 216l-3 1-3-1-2-3 2-3 2-1 4 1 1 3z" />
            <circle cx="106.872002" cy="178.886002" r="14.143" />
            <path d="M301 245c28-14 94-16 100-17s12-30 5-37c-55-57-157-101-251-89-76 10-112 60-121 87-4-4-9-6-14-6-6 0-11 2-14 6-4 3-6 8-6 14 0 5 2 10 6 14 3 3 8 5 14 5 5 0 10-2 14-5l2-3c4 9 10 16 17 23l-37 43c-4 4-3 11 1 15 5 4 11 3 15-1l37-43c33 23 81 33 119 32 34-2 84-25 113-38zM27 210c-2 2-4 3-7 3s-6-1-8-3-3-5-3-7 1-6 3-8 5-3 8-3 5 1 7 3 3 5 3 8-1 5-3 7zM348 179c4 0 7 3 7 7s-3 8-7 8-8-4-8-8 4-7 8-7zM304 145c4 0 8 3 8 8 0 4-4 7-8 7-5 0-8-3-8-7 0-5 3-8 8-8zM248 152c6 0 10 5 10 11s-4 11-10 11-11-5-11-11 5-11 11-11zM202 121c5 0 9 4 9 9 0 6-4 10-9 10-6 0-10-4-10-10 0-5 4-9 10-9zM169 170c6 1 10 6 9 12-1 5-6 9-11 8-6 0-10-5-9-11s6-10 11-9zM107 150c16 0 29 13 29 29s-13 29-29 29-29-13-29-29 13-29 29-29zM181 271c-44 0-95-15-121-44 26 6 59 6 98 3 2 16 7 29 13 29 7 0 12-14 13-32l33-3h3c2 14 6 24 12 24s11-12 12-28l29-4c2 10 6 17 11 17 4 0 9-8 11-20 35-4 70-6 101 0l-1 3-6 1c-23 2-69 5-94 17-22 10-74 35-108 37z" />
        </symbol>
        <symbol id="family" viewBox="0 0 24 24">
            <path d="M79 119c23 0 41-19 41-41 0-23-18-42-41-42S37 55 37 78c0 22 19 41 42 41zM256 229c16-1 28-13 28-29s-12-28-28-28v-1 1c-16 0-28 12-28 28s12 28 28 29zM433 119c23 0 42-19 42-41 0-23-19-42-42-42s-41 19-41 42c0 22 18 41 41 41z" />
            <path d="M470 139h-55c-21 0-40 11-50 30l-33 98c-1 2-3 4-6 4-2 1-5 0-7-2l-21-18c-6-5-14-9-23-9h-38c-9 0-17 4-23 9l-21 18c-2 2-5 3-7 2-3 0-5-2-6-4l-33-98c-10-19-29-30-50-30H42c-20 0-42 21-42 41v140c0 10 8 18 18 18h13l7 119c0 10 8 19 19 19h42c11 0 20-9 20-19l7-119-1-85 3-3 3 2 27 65c3 6 9 11 16 12s14-1 19-6l25-18 3-1 2 3v73l5 83c0 7 6 13 13 13h30c7 0 13-6 13-13l5-83v-73l2-3 3 1 25 18c5 5 12 7 19 6s13-6 16-12l27-65 3-2 3 3-1 85 7 119c0 10 9 19 20 19h42c11 0 19-9 19-19l7-119h13c10 0 18-8 18-18V180c0-20-22-41-42-41z" />
        </symbol>
        <symbol id="onsen" viewBox="0 0 24 24">
            <path d="M401 2v55H299V0h-86v57H111V1H26v511h460V2zM299 267c1-7 4-14 6-19l5-14c2-5 2-9 2-13l-2-24-4-16c-1-5-1-8 2-10 2-1 5-1 9 2s10 8 14 16l5 15 2 16c1 6 0 13-1 20l-7 19-5 14-1 13c-1 9 0 17 2 23l4 16c1 5 0 8-2 10-3 2-6 1-10-2-4-2-9-8-13-16l-5-14-3-17c0-6 0-13 2-19zM240 269l6-21 5-16 2-15c0-11-1-20-3-27-1-8-4-14-5-19s0-9 3-10c2-2 5-1 10 3 4 3 9 9 13 18 4 10 7 21 8 34l-1 21-7 21-5 16-1 16 2 27 5 18c1 6 0 9-2 11-3 1-6 0-10-3-4-4-10-10-14-19s-7-21-7-34c-1-6-1-13 1-21zM180 267c1-7 4-14 6-19l5-14 2-13-2-24-5-16c-1-5 0-8 2-10 3-1 6-1 10 2s9 8 14 16l5 15 2 16c0 6 0 13-2 20l-6 18-5 15-2 13 2 23 5 16c1 5 0 8-2 10-3 2-6 1-10-2-4-2-9-8-14-16l-5-14-2-17c0-6 0-13 2-19zM405 348c-4 12-11 22-21 30-14 13-33 23-55 30s-46 10-73 10-51-3-73-10-41-17-55-30c-10-8-17-18-21-30-3-6-4-13-4-20s1-14 3-20 8-13 13-18c10-10 21-14 26-17 4-3 10-1 12 3s1 9-3 12c-26 17-30 38-12 60 6 7 13 12 24 18 18 10 55 19 90 19s72-9 90-19c11-6 18-11 24-18 18-22 14-43-12-60-4-3-5-8-3-12s8-6 12-3c5 3 16 7 26 17 5 5 11 12 13 18s3 13 3 20-1 14-4 20z" />
        </symbol>
        <symbol id="shop4" viewBox="0 0 24 24">
            <path d="M336 239h-55l-6 10v22h61v31h-61v48h-38v-48h-61v-31h61v-22l-6-10h-55v-26h38l-32-51h32l42 66 42-66h32l-32 51h38z" />
            <path d="M256 64c106 0 192 86 192 192s-86 192-192 192S64 362 64 256 150 64 256 64M256 0C115 0 0 115 0 256s115 256 256 256 256-115 256-256S397 0 256 0z" />
        </symbol>
        <symbol id="Prohibited" viewBox="0 0 24 24">
            <path d="M437 75C337-25 175-25 75 75s-100 262 0 362 262 100 362 0 100-262 0-362zM137 137c55-54 137-63 201-27L110 338c-36-64-27-146 27-201zM375 375c-55 54-137 63-201 27l228-228c36 64 27 146-27 201z" />
        </symbol>
        <symbol id="parking" viewBox="0 0 24 24">
            <path d="M500 212l-34-54c-11-19-31-30-53-30H255c-27 0-53 11-71 30l-45 46-108 25c-18 4-31 20-31 39v42c0 9 7 17 17 17h57v3c0 30 24 54 54 54 29 0 54-24 54-54l-1-3h170v3c0 30 24 54 54 54s54-24 54-54v-3h36c10 0 17-8 17-17v-58c0-14-4-28-12-40zM128 351c-12 0-22-9-22-21s10-22 22-22 21 10 21 22-9 21-21 21zM264 216h-97l37-38c13-14 32-21 51-21h9zM375 216h-86v-59h86zM405 351c-12 0-22-9-22-21s10-22 22-22 21 10 21 22-9 21-21 21zM400 216v-59h13c12 0 23 6 29 16l27 43z" />
        </symbol>
        <symbol id="kaisendon" viewBox="0 0 24 24">
            <path d="M31 460h450v-38l-450 9zM31 500l450 9v-39H31zM153 341v22c0 23 46 41 103 41s103-18 103-41v-22c90-40 153-130 153-235C512 49 397 3 256 3S0 49 0 106c0 105 63 195 153 235zM42 106c0-2 9-18 49-34 42-17 103-27 165-27s123 10 165 27c40 16 49 32 49 34s-9 18-49 34c-42 17-103 27-165 27s-123-10-165-27c-40-16-49-32-49-34z" />
        </symbol>
        <symbol id="fish2" viewBox="0 0 24 24">
            <path d="M512 353l-1-3-2-5-2-4-5-11c-5-10-8-20-11-29-4-12-6-24-6-34 0-8 2-17 4-27 3-10 8-21 14-34l4-7 2-4 2-4v-2l1-1v-2l-1-3-1-1-2-2-2-1-2 1c-9 1-18 6-26 12-6 4-11 10-15 16-6 7-11 15-16 25l-5 10-3 7h-2l-5-3-12-8c-19-10-55-30-97-46 4-9 9-18 15-26l8-10h-13c-12 0-24 4-36 9l-19 12-27-5c-20-13-32-25-39-33l-9-10-2-4v-1l-2-7-7 3c-7 3-14 8-21 14-8 6-16 15-22 25l-10 18c-46 10-78 28-97 42-11 7-20 15-28 23l-8 9-3 5-2 4-1 4 22 16-19 5 4 7c0 1 9 15 31 31 20 15 55 34 109 42 14 13 27 19 36 22 10 4 17 5 17 5l8 1-4-23h3c25 0 53-5 83-13l29 8c9 2 20 3 28 3h6l3-1h2l2-1 3-1 2-2v-2l1-2-1-2-1-2-1-1-1-1c-4-2-9-5-12-9l-6-6c19-8 38-17 57-28l20-10 2-1 5-3 2-1 1-1h1l6-3 1-1 3 6 8 17c7 12 14 22 21 29l15 12c6 3 12 6 18 7h2l2-1 2-2 2-2v-2zM165 159l14-15 13-9 5 8c6 6 15 17 31 28h-6l-42 2-26 2zM73 259c4 0 7 3 7 7 0 5-3 8-7 8s-8-3-8-8c0-4 4-7 8-7zM128 350c-32-8-60-19-82-36-11-8-18-15-22-19v-1l29-7-21-15h21c2 9 10 15 20 15 9 0 17-6 20-15h42c7 25 7 59-7 78zM433 280l-7 4h-2l-5 3-4 2-29 16c-18 10-37 18-54 25h-1l-3 2-9 3-17 6-8 2-6 2c-29 9-56 13-81 13h-15l-21-1-20-3h-1l-7-1c5-14 12-47 1-81h290v2l1 5z" />
        </symbol>
        <symbol id="cafe" viewBox="0 0 24 24">
            <path d="M511 166c-3-17-11-32-24-43-12-10-27-15-42-15-7 0-14 1-21 4-13-45-80-67-192-67-128 0-197 29-193 88 2 28 12 84 38 136-11 4-22 9-31 15-12 8-22 17-30 27-8 11-14 23-15 36l-1 8c0 8 2 16 5 24 6 13 15 25 28 35 20 16 46 29 80 38s75 15 123 15c73 0 130-13 170-32 20-10 36-21 47-35 6-6 11-13 14-21 3-7 5-15 5-23v-6c-2-13-7-26-15-37-11-16-28-29-48-38l-21-8 4-7c10 4 20 6 30 6 13 0 24-3 35-8 16-7 29-18 39-32s16-30 16-48zM232 86c77 0 138 16 138 35s-61 35-138 35c-76 0-138-16-138-35s62-35 138-35zM408 315c9 5 16 12 21 19 5 6 7 13 8 20v2l-2 9c-3 7-9 15-18 22-15 12-37 23-68 31-30 9-68 14-113 14-69 0-121-12-155-29-17-8-29-17-36-26-4-4-6-8-8-12l-2-10v-3c1-6 4-13 9-20 7-10 19-19 35-26l17-6 21 26 23 21c-7 4-12 9-12 14 0 19 53 34 117 34s117-15 117-34c0-8-11-16-29-21l14-14c9-9 16-18 23-28 15 4 28 9 38 17zM462 192c-3 7-9 15-16 19-7 5-16 8-24 8l-13-3 12-46c3-5 7-9 10-11 5-3 10-4 14-4 5 0 9 1 13 4 3 3 6 7 7 15v4c0 5-1 9-3 14z" />
        </symbol>
        <symbol id="fish6" viewBox="0 0 24 24">
            <path d="M942 491c14-27 21-63 21-99 0-40-11-84-32-112-45 0-67 19-89 37-26 21-48 44-99 45 5-20 3-39-4-57-7-19-30-47-77-59l-83 67-3-1 16-50c-28 3-47-13-53-40-30 6-64 0-77-33-25 14-68 12-97-15l-20 108c-65 5-129 18-192 38-14-11-36-14-55-7-22 8-36 30-33 55l57 192H40c0 53 0 94 55 107 69 15 131 40 215 49 26 58 92 82 159 82 26-32 34-53 29-93l44-13c21 26 61 66 106 66 47 0 72-55 69-109l-47-21c29-17 53-30 72-30 38 0 55 17 74 36 20 21 48 46 115 46 26-40 30-83 29-110s-8-56-18-79zM669 283c20 8 32 21 38 36 5 12 6 26 3 39-25-6-52-17-82-28l-12-4zM390 224c16 8 41 10 58 5 11 18 42 29 68 27a46 46 0 0 0 32 30l-5 16c-43-13-104-25-162-22zM451 764c-37-2-75-16-98-45 51 3 86-2 112-6 2 24-3 39-14 51zM648 725c-29 0-55-25-73-46 22-10 42-21 61-31l47 23c-3 31-17 54-35 54zM844 606c-20-21-44-46-102-46-32 0-65 18-105 41-61 35-138 81-277 79 24-18 37-38 45-60l82 20c0 0 33-38 31-94-2-57-47-86-47-86l-76 31a236 236 0 0 0-27-47h-41c69 119 59 192-31 230-79-10-126-34-185-45-23-4-31-12-31-34h51l5 15h37l-72-247c-5-21 28-26 32-9l75 256h36l-73-255a767 767 0 0 1 229-35c83 0 153 26 214 48 47 17 88 32 125 32 64 0 100-29 128-52 17-14 29-25 42-29 9 19 13 43 14 69l-86 32 6 21 78-19c-3 19-8 37-15 52l-56 5v22l55 5c7 15 11 33 13 51l-75-17-6 21 83 30c-1 16-4 35-12 51-33-3-47-19-64-36zM405 521l60-23c11 13 18 33 19 51 2 18-2 39-11 54l-62-14c3-22 0-46-6-68z" />
            <path d="M768 424c0 0 8 24 8 56a199 199 0 0 1-8 56l26 10c0 0 14-22 14-66s-14-66-14-66z" />
        </symbol>
        <symbol id="food" viewBox="0 0 24 24">
            <path d="M207 24v109c0 7-6 13-13 13h-3c-7 0-13-6-13-13V23c0-18-12-23-23-23s-24 5-24 23v110c0 7-6 13-13 13h-3c-7 0-13-6-13-13V24c0-32-46-31-46 0v105c0 57 14 72 37 91 18 14 34 22 34 58v233h55V278c0-36 16-44 35-58 22-19 36-34 36-91V24c0-31-46-32-46 0zM385 35c-12 33-45 110-47 178-4 106 61 90 62 160v138h55l1 1v-1-232V35c0-40-52-52-71 0z" />
        </symbol>
        <symbol id="shop5" viewBox="0 0 24 24">
            <path d="M279 220l-11 5-11 15 60 21-14 19-2 3-60-21-24 34-38-13 24-33-60-21 2-3 14-19 60 21 12-16-2-8-54-19 14-19 37 13-6-46 31 11 9 60 75-32 31 11-57 25 38 12-14 19z" />
            <path d="M256 55C115 55 0 127 0 217v78c0 90 115 162 256 162s256-72 256-162v-78c0-90-115-162-256-162zM256 90c120 0 221 58 221 127 0 68-101 126-221 126S35 285 35 217c0-69 101-127 221-127z" />
        </symbol>
        <symbol id="ramen" viewBox="0 0 24 24">
            <path d="M512 237l-1-8c0-11-5-20-12-27-7-6-17-10-28-10H41c-11 0-21 4-28 10-7 7-12 16-12 27l-1 9v2c5 47 23 90 51 126 24 33 56 59 93 77l-1 13-1 7-1 9c0 4 0 8 2 13l7 10 8 5 12 4 14 1h139l16-1 11-4 8-6c3-3 5-7 6-11 2-4 2-8 2-11l-1-9-1-7-1-11c38-17 71-44 97-76 28-37 46-81 52-129zM323 470H176v-2l1-7 3-22h147l3 22 1 7v2zM432 347c-24 32-57 57-95 71l-11 5H182v-1l-12-5c-36-16-68-40-92-72-7-9-13-20-19-31h16l2-1v-37h30v26h-8v-15l-2-2H87l-2 2v26l2 1h33l1-1v-48l-1-1H65l-2 1v37H53l-4-9h4l2-2v-26l-2-1H40l-5-27v-6l2-3 4-2h430l4 2 2 3v6l-5 27h-35l-2 1v37h-30v-26h8v15l2 2h10l2-2v-26l-2-1h-33l-1 1v48l1 1h55l2-1v-37h20l-3 9h-7l-2 2v20c-7 14-15 28-25 40z" />
            <path d="M244 264h-55l-2 1v37h-30v-26h8v15l2 2h10l2-2v-26l-2-1h-33l-1 1v48l1 1h55l2-1v-37h30v26h-8v-15l-2-2h-10l-2 2v26l2 1h33l1-1v-48zM368 264h-55l-2 1v37h-30v-26h8v15l2 2h10l2-2v-26l-2-1h-33l-1 1v48l1 1h55l2-1v-37h30v26h-8v-15l-2-2h-10l-2 2v26l2 1h33l1-1v-48zM145 90c4 9 6 16 6 23s-1 15-3 21c-4 13-6 23-3 25s12-3 22-16c4-6 9-15 11-28 3-12-1-26-6-37s-9-19-10-26c-2-7-2-13-1-20 1-13 3-22 0-25-4-2-12 4-20 19-4 7-7 18-6 30s6 24 10 34zM244 90c5 9 6 16 6 23 1 7-1 15-3 21-3 13-6 23-3 25s12-3 22-16c5-6 10-15 12-28 2-12-2-26-7-37s-9-19-10-26c-2-7-2-13-1-20 1-13 4-22 0-25-3-2-12 4-20 19-4 7-7 18-6 30s6 24 10 34zM344 90c4 9 6 16 6 23s-2 15-4 21c-3 13-6 23-3 25 4 2 12-3 22-16 5-6 10-15 12-28 2-12-1-26-6-37l-11-26c-2-7-2-13-1-20 2-13 4-22 0-25-3-2-12 4-20 19-4 7-7 18-6 30s6 24 11 34z" />
        </symbol>
        <symbol id="shop2" viewBox="0 0 24 24">
            <path d="M147 208c22 0 39-17 39-39l14-147h-62l-29 147c0 22 17 39 38 39zM256 208c21 0 38-17 38-39l-7-147h-62l-7 147c0 22 17 39 38 39zM365 208c21 0 38-17 38-39L374 22h-62l14 147c0 22 18 39 39 39z" />
            <path d="M461 22h-62l36 147c0 18 12 33 29 38v251h-58V288H260v170H48V207c17-5 29-20 29-38l36-147H51L0 169c0 13 6 24 16 31v290h480V200c10-7 16-18 16-31zM382 458h-98V312h98z" />
        </symbol>
        <symbol id="shop3" viewBox="0 0 24 24">
            <path d="M426 0c-9 0-17 6-20 15l-20 79H29c-7 0-13 3-17 8-3 5-5 12-3 18l59 204c2 9 10 15 20 15h235l-9 34H89v36h237c9 0 17-6 20-15l92-358h66V0zM350 234l-18 69h-45v-69zM377 130l-18 68h-72v-68zM251 234v69h-77v-69zM251 130v68h-77v-68zM143 130v68H69l-19-68zM143 234v69H99l-20-69zM124 437c-20 0-37 16-37 36 0 21 17 37 37 37s37-16 37-37c0-20-17-36-37-36zM300 439c-21 0-37 16-37 36 0 21 16 37 37 37 20 0 36-16 36-37 0-20-16-36-36-36z" />
        </symbol>
        <symbol id="surfing" viewBox="0 0 24 24">
            <path d="M141 293l-23-6c-13-3-30-6-47-6l-24 3c-7 2-14 6-20 13l-1 2-1 1-2 15c0 13 5 26 12 39 12 19 31 39 58 59 26 19 60 38 101 55 73 29 160 44 219 44 19 0 35-1 48-5l17-7 6-7c2-2 4-5 4-9l1-3-1-3c-3-10-10-20-19-31-14-16-34-32-57-47s-49-29-76-39l-9 22c34 13 67 32 92 52 13 9 24 19 32 28 7 9 12 17 14 22l11-3-12-2h3l-2-1-1 1h3l-2-1-4 2c-3 2-10 4-18 5l-30 2c-55 0-140-15-210-43-52-21-92-46-118-70-13-12-23-23-29-34-6-10-9-19-9-26l1-7-11-4 10 8c1-2 3-3 7-5l17-2c14 0 30 3 42 6l15 3 4 1 2 1z" />
            <circle cx="301.720001" cy="37.401001" r="37.401001" />
            <path d="M466 206l-24-56c-4-8-11-15-20-19l-44-20c-21-9-45-13-68-10l-34 3c-13 2-26 5-38 10l-45 19-52-12c-9-2-18 4-20 13s4 17 13 20l49 16c9 3 19 3 29 0l52-13 9 44-63 28c-13 5-24 16-29 30l-30 90c-4 11 3 23 14 26 11 4 21-2 26-14l36-88 62-26c2 0 4 0 6 2 2 1 2 4 1 6l-18 37-13 88c-1 12 7 23 18 24 12 2 21-4 24-18l16-84 34-47c13-18 18-41 14-63l-9-45 43 18 30 55c4 8 14 12 23 8 8-4 12-14 8-22z" />
        </symbol>
        <symbol id="shop1" viewBox="0 0 24 24">
            <path d="M355 93c-5 0-8 2-11 4-3 3-5 7-5 11 0 5 2 8 5 11s6 5 11 5c4 0 8-2 11-5 2-3 4-6 4-11 0-4-2-8-4-11-3-2-7-4-11-4z" />
            <path d="M431 32c-20-20-48-32-76-32-29 0-57 12-77 32s-32 48-32 76c0 29 12 57 32 77l1 1v135c0 11-4 20-12 28-7 7-17 11-27 11-11 0-20-4-28-11l-6-7c8-4 15-9 20-16 7-9 18-27 11-56-2-12 5-40 7-49 6-26-2-44-10-54-10-13-26-21-44-21l-9 1c-41 5-79 39-92 58l-2 2c-25 33-38 73-38 114 0 51 20 99 56 135s84 56 135 56 99-20 135-56 56-84 56-135V186v-1c20-20 32-48 32-77 0-28-12-56-32-76zM395 149l-16 11v161c0 37-14 72-41 99-26 26-61 41-98 41-38 0-73-15-99-41-26-27-41-62-41-99 0-30 10-59 28-83l2-3c5-8 33-35 58-37 5-2 8 1 6 11-7 29-11 53-7 72 3 15-5 16-8 15l-21-13c-6 12-9 25-9 38 0 24 10 47 27 64s40 27 64 27 47-10 64-27 26-40 26-64V160l-16-11c-10-11-16-25-16-41 0-15 6-30 16-40 11-10 25-17 41-17 15 0 30 7 40 17s17 25 17 40c0 16-7 30-17 41z" />
        </symbol>
        <symbol id="spot" viewBox="0 0 24 24">
            <path d="M191 436c-35-13-71-27-112-27-21 0-41 3-62 10v26c0 3 4 6 7 5 63-18 104-24 217 19v-16l-7-2z" />
            <path d="M204 127v81l-57-16v-80c-11-2-22-2-34-2-32 0-70 5-113 21v269l17-6c22-6 43-9 62-9 64 0 115 29 162 43V148c0 0-10-8-29-17zM321 436l-43 15-7 2v16c113-43 154-37 217-19 3 1 7-2 7-5v-26c-21-7-41-10-62-10-41 0-77 14-112 27z" />
            <path d="M399 110c-83 0-128 38-128 38v280c47-14 98-43 162-43 19 0 40 3 62 9l14 5 3 1V131c-43-16-81-21-113-21zM204 59 159 46l-12-3v69c23 3 42 9 57 15z" />
        </symbol>
        <symbol id="parking2" viewBox="0 0 24 24">
            <path d="M282 150h-59v89h59c15 0 26-4 35-12 8-8 12-19 12-32 0-14-4-24-12-33-9-8-20-12-35-12z" />
            <path d="M438 0H74C33 0 0 33 0 74v364c0 41 33 74 74 74h364c41 0 74-33 74-74V74c0-41-33-74-74-74zM385 234c-5 12-12 23-21 32-9 10-20 17-33 22-14 5-29 8-46 8h-62v122h-64V94h126c17 0 32 2 46 8 13 5 24 12 33 21 9 10 16 21 21 33s8 25 8 39-3 27-8 39z" />
        </symbol>
    </defs>
</svg>
