<svg aria-hidden="true" style="position: absolute; width: 0; height: 0; overflow: hidden;" version="1.1" xmlns="http://www.w3.org/2000/svg" xmlns:xlink="http://www.w3.org/1999/xlink">
<defs>
<symbol id="parking2" viewBox="0 0 32 32">
<path d="M17.6 9.333h-3.733v5.6h3.733c1.067 0 1.6-0.267 2.133-0.8 0.533-0.4 0.8-1.067 0.8-2 0-0.8-0.267-1.467-0.8-2s-1.067-0.8-2.133-0.8z"></path>
<path d="M27.333 0h-22.667c-2.667 0-4.667 2-4.667 4.667v22.667c0 2.667 2 4.667 4.667 4.667h22.667c2.667 0 4.667-2 4.667-4.667v-22.667c0-2.667-2-4.667-4.667-4.667zM24 14.667c-0.267 0.667-0.667 1.333-1.333 2-0.533 0.667-1.2 1.067-2 1.333-0.8 0.4-1.733 0.533-2.8 0.533h-4v7.6h-3.867v-20.267h7.867c1.067 0 2 0.133 2.8 0.533 0.8 0.267 1.467 0.8 2 1.333 0.667 0.533 1.067 1.2 1.333 2 0.4 0.8 0.533 1.6 0.533 2.4 0 0.933-0.133 1.733-0.533 2.533z"></path>
</symbol>
<symbol id="shop1" viewBox="0 0 32 32">
<path d="M22.133 5.867c-0.267 0-0.533 0-0.667 0.267l-0.267 0.533 0.267 0.8 0.667 0.267 0.667-0.267c0.267-0.133 0.4-0.4 0.4-0.8l-0.4-0.533c-0.133-0.267-0.4-0.267-0.667-0.267z"></path>
<path d="M26.933 2c-1.2-1.333-2.933-2-4.8-2-1.733 0-3.467 0.667-4.8 2-1.333 1.2-2 2.933-2 4.667 0 1.867 0.667 3.6 2 4.933v8.4c0 0.8-0.133 1.333-0.667 1.733-0.4 0.533-1.067 0.8-1.733 0.8s-1.2-0.267-1.6-0.667l-0.4-0.533 1.2-0.933c0.533-0.533 1.067-1.733 0.667-3.467-0.133-0.933 0.267-2.533 0.4-3.067 0.4-1.733 0-2.8-0.533-3.467-0.667-0.8-1.733-1.333-2.667-1.333l-0.667 0.133c-2.667 0.267-4.933 2.4-5.867 3.6l-0.133 0.133c-1.333 2.133-2.267 4.533-2.267 7.067 0 3.2 1.2 6.267 3.6 8.533 2.133 2.133 5.067 3.467 8.267 3.467s6.267-1.333 8.533-3.467c2.267-2.267 3.467-5.333 3.467-8.533v-8.4c1.333-1.333 2-3.067 2-4.933 0-1.733-0.667-3.467-2-4.667zM24.667 9.333l-0.933 0.667v10c0 2.4-1.067 4.533-2.533 6.267-1.733 1.733-3.867 2.533-6.267 2.533-2.267 0-4.4-0.8-6.133-2.533-1.6-1.733-2.533-3.867-2.533-6.267 0-1.867 0.667-3.6 1.733-5.067l0.133-0.267c0.267-0.533 2-2.133 3.6-2.267 0.267-0.133 0.533 0 0.267 0.667-0.267 1.867-0.533 3.333-0.267 4.533 0.267 0.933-0.4 1.067-0.533 0.933l-1.333-0.8c-0.4 0.667-0.533 1.467-0.533 2.267 0 1.6 0.533 3.067 1.6 4 1.067 1.2 2.533 1.733 4 1.733 1.6 0 2.933-0.533 4-1.733 1.067-0.933 1.733-2.4 1.733-4v-10l-1.067-0.667c-0.533-0.667-0.933-1.6-0.933-2.667 0-0.933 0.4-1.733 0.933-2.4 0.667-0.667 1.6-1.067 2.533-1.067 1.067 0 1.867 0.4 2.533 1.067s1.067 1.467 1.067 2.4c0 1.067-0.4 2-1.067 2.667z"></path>
</symbol>
<symbol id="kaisendon" viewBox="0 0 32 32">
<path d="M1.867 28.8h28.267v-2.4l-28.267 0.533zM1.867 31.2l28.267 0.533v-2.4h-28.267zM9.6 21.333v1.333c0 1.333 2.8 2.667 6.4 2.667s6.4-1.333 6.4-2.667v-1.333c5.6-2.533 9.6-8.133 9.6-14.667 0-3.6-7.2-6.4-16-6.4s-16 2.8-16 6.4c0 6.533 4 12.133 9.6 14.667zM2.667 6.667c0-0.133 0.533-1.2 2.933-2.133 2.8-1.067 6.4-1.733 10.4-1.733s7.6 0.667 10.4 1.733c2.4 0.933 2.933 2 2.933 2.133 0 0-0.533 1.067-2.933 2.133-2.8 1.067-6.4 1.6-10.4 1.6s-7.6-0.533-10.4-1.6c-2.4-1.067-2.933-2.133-2.933-2.133z"></path>
</symbol>
<symbol id="ramen" viewBox="0 0 32 32">
<path d="M32 14.667v-0.4c0-0.667-0.4-1.2-0.8-1.6-0.533-0.4-1.067-0.667-1.733-0.667h-26.933c-0.667 0-1.2 0.267-1.733 0.667-0.4 0.4-0.8 0.933-0.8 1.6v0.667c0.4 2.933 1.467 5.733 3.2 8 1.467 2 3.467 3.733 5.867 4.8l-0.133 0.8-0.133 0.4v0.533l0.133 0.8 0.4 0.667 0.533 0.267 0.8 0.267 0.8 0.133h8.667l1.067-0.133 0.667-0.267 0.533-0.267c0.267-0.267 0.267-0.533 0.267-0.8l0.133-0.667v-0.533l-0.133-0.4v-0.667c2.4-1.2 4.533-2.8 6-4.8 1.867-2.267 2.933-5.067 3.333-8.133zM20.133 29.333h-9.067v-0.533l0.133-1.333h9.2l0.267 1.333v0.533h-0.533zM27.067 21.733c-1.6 2-3.6 3.6-6 4.4l-0.667 0.267h-9.067l-0.667-0.4c-2.267-0.933-4.267-2.533-5.733-4.4-0.533-0.667-0.933-1.2-1.2-2h1.067v-2.267h1.867v1.6h-0.533v-1.067h-0.8v1.733h2.267v-3.067h-3.6v2.4h-0.667l-0.267-0.667h0.4v-1.733h-0.933l-0.4-1.733 0.133-0.4v-0.133l0.267-0.133h26.933l0.267 0.133v0.133l0.133 0.4-0.4 1.733h-2.267v2.4h-1.867v-1.6h0.533v0.933h0.8v-1.733h-2.267v3.067h3.6v-2.267h1.333l-0.267 0.533h-0.533v1.333l-1.467 2.533z"></path>
<path d="M15.2 16.533h-3.467v2.4h-2v-1.6h0.533v0.933h0.933v-1.733h-2.267v3.067h3.6v-2.267h1.867v1.6h-0.533v-1.067h-0.8v1.733h2.267v-3.067h-0.133zM22.933 16.533h-3.467v2.4h-1.867v-1.6h0.533v0.933h0.8v-1.733h-2.267v3.067h3.6v-2.267h2v1.6h-0.533v-1.067h-0.933v1.733h2.267v-3.067h-0.133zM9.067 5.6c0.267 0.533 0.267 1.067 0.267 1.467v1.333c-0.267 0.8-0.533 1.333-0.267 1.467 0.267 0.267 0.8-0.133 1.333-0.933 0.267-0.4 0.667-0.933 0.8-1.733s-0.133-1.6-0.533-2.4l-0.533-1.467-0.133-1.333c0.133-0.8 0.267-1.467 0-1.6-0.133 0-0.667 0.267-1.2 1.2-0.267 0.4-0.4 1.067-0.4 1.867l0.667 2.133zM15.333 5.6c0.267 0.533 0.267 1.067 0.267 1.467l-0.133 1.333c-0.267 0.8-0.4 1.333-0.133 1.467 0.133 0.267 0.667-0.133 1.333-0.933 0.267-0.4 0.667-0.933 0.667-1.733 0.133-0.8 0-1.6-0.4-2.4l-0.667-1.467v-1.333c0.133-0.8 0.267-1.467 0-1.6-0.267 0-0.8 0.267-1.2 1.2-0.4 0.4-0.4 1.067-0.4 1.867s0.4 1.6 0.667 2.133zM21.467 5.6l0.4 1.467-0.267 1.333c-0.267 0.8-0.267 1.333-0.133 1.467 0.267 0.267 0.8-0.133 1.333-0.933 0.267-0.4 0.667-0.933 0.8-1.733s-0.133-1.6-0.4-2.4l-0.667-1.467-0.133-1.333c0.133-0.8 0.267-1.467 0-1.6-0.133 0-0.667 0.267-1.2 1.2-0.267 0.4-0.4 1.067-0.4 1.867l0.667 2.133z"></path>
</symbol>
<symbol id="shop0" viewBox="0 0 32 32">
<path d="M18.4 20.533l-0.133-0.133c-0.133 0-0.667-0.4-1.067-0.267-0.133 0-0.133 0 0 0.267l0.4 0.933c0 0.4 0.133 0.4 0.267 0.267l0.267-0.267 0.267 0.533c0.133 0.4 0.133 0.8-0.133 1.2-0.133 0.4-0.533 0.667-0.933 0.667-0.4 0.267-0.8 0.133-1.067-0.133-0.267-0.133-0.667-0.4-0.8-0.933l-0.933-3.333 0.133-0.267v-0.667c0-0.267 0-0.4-0.267-0.533l-0.8-0.133-0.533 0.533-0.133 0.667 0.4 0.533 0.4 0.133 0.933 3.333v1.2c-0.267 0.4-0.533 0.667-0.933 0.667h-1.2l-0.667-0.933v-0.667l0.4 0.133s0.133-0.133 0-0.267c-0.267-0.4-0.267-0.667-0.267-1.2v-0.133c-0.533 0.133-0.8 0.667-0.8 0.933h-0.133v1.333c0.133 0.667 0.533 1.2 1.067 1.333 0.533 0.4 1.2 0.533 1.867 0.267 0.667-0.133 1.067-0.533 1.333-1.067l0.133-0.4 0.4 0.267c0.533 0.267 1.2 0.4 1.733 0.133 0.667-0.133 1.067-0.533 1.333-1.067 0.4-0.533 0.4-1.2 0.267-1.733s-0.533-0.933-0.8-1.2zM14.133 18.667l-0.133 0.267h-0.267l-0.133-0.267v-0.133l0.267-0.133h0.133l0.133 0.267zM31.467 16.133c-0.133-0.133-0.667-0.533-1.067-0.533l-0.133 0.133 0.267 1.2c-0.133 0.4 0.133 0.4 0.133 0.4l0.267-0.4 0.267 0.667c0 0.4-0.133 0.8-0.533 1.067-0.133 0.4-0.533 0.533-0.933 0.533l-1.2-0.4c-0.267-0.133-0.533-0.667-0.533-1.067v-3.6l0.133-0.133 0.267-0.667c0-0.4-0.133-0.533-0.4-0.8 0-0.133-0.4-0.267-0.667-0.133l-0.667 0.267-0.267 0.667 0.267 0.667 0.4 0.267 0.133 3.6c0.133 0.4 0 0.8-0.4 1.067-0.133 0.267-0.533 0.533-0.933 0.533-0.533 0-0.933-0.133-1.2-0.4s-0.533-0.667-0.533-1.067l0.133-0.667 0.4 0.267 0.133-0.267v-1.333l-0.133-0.133-0.933 0.667v0.133c-0.267 0.4-0.4 0.933-0.4 1.333 0 0.667 0.267 1.333 0.8 1.733 0.533 0.267 1.2 0.533 1.733 0.533 0.667 0 1.2-0.267 1.6-0.8l0.267-0.267 0.267 0.267c0.533 0.533 1.067 0.533 1.733 0.533s1.2-0.267 1.6-0.667c0.533-0.533 0.667-1.067 0.667-1.733 0-0.533-0.267-1.067-0.533-1.467zM27.6 13.467l-0.133 0.133-0.267-0.133v-0.4h0.4l0.133 0.267-0.133 0.133zM7.6 11.2c0-0.533-0.4-0.933-0.933-0.933s-0.933 0.4-0.933 0.933c0 0.533 0.4 0.8 0.933 0.8s0.933-0.267 0.933-0.8z"></path>
<path d="M18.667 15.333c1.867-0.933 6-0.933 6.4-1.067 0.267-0.133 0.8-1.867 0.267-2.267-3.467-3.6-9.733-6.4-15.6-5.6-4.8 0.667-7.067 3.733-7.6 5.467v-0.133l-0.8-0.267-0.933 0.267c-0.267 0.267-0.4 0.533-0.4 0.933s0.133 0.667 0.4 0.8c0.133 0.267 0.533 0.4 0.933 0.4l0.8-0.4 0.133-0.133c0.267 0.533 0.533 1.067 1.067 1.467l-2.267 2.667c-0.267 0.267-0.267 0.667 0 0.933s0.667 0.267 0.933 0l2.267-2.667c2.133 1.333 5.067 2 7.467 2 2.133-0.133 5.333-1.6 6.933-2.4zM1.867 13.067c-0.133 0.267-0.4 0.267-0.4 0.267-0.267 0-0.4 0-0.533-0.267l-0.267-0.4 0.267-0.533 0.4-0.133 0.4 0.133 0.133 0.533-0.133 0.4zM21.867 11.2c0.267 0 0.4 0.133 0.4 0.4 0 0.4-0.133 0.4-0.4 0.4s-0.4 0-0.4-0.4c0-0.267 0.133-0.4 0.4-0.4zM19.067 9.067c0.267 0 0.533 0.267 0.533 0.533s-0.267 0.4-0.533 0.4-0.4-0.133-0.4-0.4c0-0.267 0.133-0.533 0.4-0.533zM15.6 9.467c0.4 0 0.667 0.4 0.667 0.667 0 0.533-0.267 0.667-0.667 0.667s-0.667-0.133-0.667-0.667c0-0.267 0.267-0.667 0.667-0.667zM12.667 7.6c0.267 0 0.667 0.267 0.667 0.533 0 0.4-0.4 0.667-0.667 0.667-0.4 0-0.667-0.267-0.667-0.667 0-0.267 0.267-0.533 0.667-0.533zM10.667 10.667c0.267 0 0.533 0.4 0.533 0.667-0.133 0.4-0.533 0.667-0.8 0.667-0.267-0.133-0.533-0.4-0.533-0.8s0.4-0.533 0.8-0.533zM6.667 9.333c1.067 0 1.867 0.8 1.867 1.867 0 0.933-0.8 1.733-1.867 1.733-0.933 0-1.733-0.8-1.733-1.733 0-1.067 0.8-1.867 1.733-1.867zM11.333 16.933c-2.8 0-6-0.933-7.6-2.667 1.6 0.4 3.733 0.4 6.133 0.133 0.133 0.933 0.4 1.733 0.8 1.733s0.8-0.8 0.8-1.867l2.133-0.267h0.133c0.133 0.933 0.4 1.467 0.8 1.467s0.667-0.8 0.8-1.733l1.733-0.267c0.133 0.667 0.267 1.2 0.667 1.2 0.267 0 0.533-0.667 0.667-1.333 2.267-0.267 4.4-0.4 6.4 0l-0.133 0.133-0.4 0.133c-1.333 0.133-4.267 0.267-5.867 1.067-1.333 0.667-4.533 2.133-6.667 2.267h-0.4z"></path>
</symbol>
<symbol id="Prohibited" viewBox="0 0 32 32">
<path d="M27.333 4.667c-6.267-6.267-16.4-6.267-22.667 0s-6.267 16.4 0 22.667c6.267 6.267 16.4 6.267 22.667 0s6.267-16.4 0-22.667zM8.533 8.533c3.467-3.333 8.667-3.867 12.667-1.733l-14.4 14.4c-2.133-4-1.6-9.2 1.733-12.667zM23.467 23.467c-3.467 3.333-8.667 3.867-12.667 1.733l14.4-14.4c2.133 4 1.6 9.2-1.733 12.667z"></path>
</symbol>
<symbol id=" parking" viewBox="0 0 32 32">
<path d="M31.333 13.333l-2.133-3.467c-0.8-1.2-2-1.867-3.333-1.867h-9.867c-1.733 0-3.333 0.667-4.533 1.867l-2.8 2.933-6.8 1.467c-1.067 0.4-1.867 1.333-1.867 2.4v2.667c0 0.667 0.4 1.067 1.067 1.067h3.6v0.267c0 1.867 1.467 3.333 3.333 3.333s3.333-1.467 3.333-3.333v-0.267h10.667l-0.133 0.267c0 1.867 1.6 3.333 3.467 3.333s3.333-1.467 3.333-3.333v-0.267h2.267c0.667 0 1.067-0.4 1.067-1.067v-3.6c0-0.933-0.267-1.733-0.667-2.4zM8 21.867c-0.8 0-1.333-0.667-1.333-1.333s0.533-1.333 1.333-1.333c0.667 0 1.333 0.667 1.333 1.333s-0.667 1.333-1.333 1.333zM16.533 13.333h-6.133l2.4-2.4c0.8-0.8 1.867-1.333 3.2-1.333h0.533zM23.467 13.333h-5.333v-3.6h5.333zM25.333 21.867c-0.8 0-1.333-0.667-1.333-1.333s0.533-1.333 1.333-1.333c0.667 0 1.333 0.667 1.333 1.333s-0.667 1.333-1.333 1.333zM24.933 13.333v-3.6h0.933c0.8 0 1.333 0.4 1.733 0.933l1.733 2.8z"></path>
</symbol>
<symbol id="onsen" viewBox="0 0 32 32">
<path d="M25.067 0v3.6h-6.4v-3.6h-5.333v3.6h-6.4v-3.6h-5.333v32h28.8v-32zM18.667 16.8l0.4-1.2 0.4-0.8v-0.933l-0.133-1.333-0.267-1.067 0.133-0.667 0.667 0.133 0.8 1.067 0.267 0.8 0.267 1.067-0.133 1.2-0.4 1.2-0.4 0.933v0.8l0.133 1.467 0.267 1.067-0.133 0.533c-0.133 0.133-0.4 0-0.533-0.133-0.4-0.133-0.667-0.4-0.933-0.933l-0.4-0.933v-2.267zM14.933 16.933l0.4-1.333 0.4-0.933v-0.933l-0.133-1.733-0.267-1.2 0.133-0.667c0.133 0 0.4 0 0.533 0.267 0.4 0.133 0.667 0.533 0.933 1.067 0.4 0.667 0.4 1.333 0.4 2.133v1.333l-0.4 1.2-0.267 1.2-0.133 0.933 0.133 1.6 0.267 1.2c0.133 0.4 0.133 0.533-0.133 0.667-0.133 0.133-0.267 0-0.533-0.267-0.267 0-0.667-0.533-0.933-1.067-0.267-0.667-0.4-1.333-0.4-2.133v-1.333zM11.2 16.8l0.4-1.2 0.4-0.8v-2.267l-0.4-1.067 0.133-0.667 0.667 0.133 0.933 1.067c0 0.133 0 0.533 0.267 0.8l0.133 1.067-0.133 1.2-0.4 1.2-0.4 0.933v0.8l0.133 1.467 0.267 1.067c0.133 0.267 0 0.4-0.133 0.533s-0.4 0-0.667-0.133-0.533-0.4-0.8-0.933l-0.267-0.933-0.267-1.067 0.133-1.2zM25.333 21.733c-0.267 0.8-0.8 1.333-1.333 1.867-0.933 0.8-2 1.467-3.467 1.867-1.333 0.4-2.933 0.667-4.533 0.667s-3.2-0.267-4.533-0.667c-1.467-0.4-2.533-1.067-3.467-1.867-0.533-0.533-1.067-1.067-1.333-1.867l-0.267-1.2 0.267-1.333c0-0.4 0.533-0.8 0.8-1.067 0.533-0.667 1.333-0.8 1.6-1.067 0.267-0.133 0.533-0.133 0.8 0.267 0.133 0.133 0 0.533-0.267 0.667-1.6 1.067-1.867 2.4-0.667 3.733l1.467 1.2c1.067 0.533 3.333 1.067 5.6 1.067s4.533-0.533 5.6-1.067l1.467-1.2c1.2-1.333 0.933-2.667-0.667-3.733-0.267-0.133-0.4-0.533-0.267-0.667 0.267-0.4 0.533-0.4 0.8-0.267 0.267 0.267 1.067 0.4 1.6 1.067 0.267 0.267 0.8 0.667 0.8 1.067l0.267 1.333-0.267 1.2z"></path>
</symbol>
<symbol id="shop2" viewBox="0 0 32 32">
<path d="M9.2 12.933c1.333 0 2.4-0.933 2.4-2.267l0.933-9.333h-3.867l-1.867 9.333c0 1.333 1.2 2.267 2.4 2.267zM16 12.933c1.333 0 2.4-0.933 2.4-2.267l-0.533-9.333h-3.733l-0.533 9.333c0 1.333 1.067 2.267 2.4 2.267zM22.8 12.933c1.2 0 2.4-0.933 2.4-2.267l-1.867-9.333h-3.867l0.933 9.333c0 1.333 1.067 2.267 2.4 2.267z"></path>
<path d="M28.8 1.333h-3.867l2.267 9.333c0 1.067 0.8 2 1.867 2.267v15.733h-3.733v-10.667h-9.067v10.667h-13.333v-15.733c1.067-0.267 1.867-1.2 1.867-2.267l2.267-9.333h-3.867l-3.2 9.333c0 0.667 0.4 1.333 0.933 1.867v18.133h30.133v-18.133c0.533-0.533 0.933-1.2 0.933-1.867zM24 28.667h-6.267v-9.2h6.267z"></path>
</symbol>
<symbol id="fish6" viewBox="0 0 32 32">
<path d="M30.133 15.733c0.533-0.933 0.667-2 0.667-3.2s-0.267-2.667-1.067-3.6c-1.333 0-2.133 0.667-2.8 1.2-0.8 0.667-1.6 1.467-3.2 1.467 0.267-0.667 0.267-1.2-0.133-1.867-0.133-0.533-0.933-1.467-2.4-1.733l-2.667 2h-0.133l0.533-1.6c-0.933 0.133-1.6-0.4-1.6-1.333-1.067 0.267-2.133 0-2.667-1.067-0.667 0.533-2 0.4-2.933-0.4l-0.667 3.467c-2.133 0.133-4.133 0.533-6.133 1.2-0.533-0.4-1.2-0.533-1.733-0.267-0.8 0.267-1.2 0.933-1.067 1.733l1.867 6.133h-2.667c0 1.733 0 3.067 1.733 3.467 2.267 0.533 4.133 1.333 6.8 1.6 0.8 1.867 2.933 2.533 5.067 2.533 0.933-0.933 1.067-1.6 1.067-2.8l1.333-0.533c0.667 0.8 2 2.133 3.333 2.133 1.6 0 2.4-1.733 2.267-3.467l-1.6-0.8c1.067-0.4 1.867-0.8 2.4-0.8 1.2 0 1.733 0.533 2.4 1.067 0.533 0.667 1.467 1.467 3.6 1.467 0.933-1.333 0.933-2.667 0.933-3.467 0-0.933-0.267-1.867-0.533-2.533zM21.333 9.067c0.667 0.267 1.067 0.667 1.333 1.2v1.2l-2.667-0.8-0.267-0.267zM12.4 7.2c0.533 0.267 1.333 0.267 1.867 0.133 0.4 0.667 1.467 0.933 2.267 0.8 0.133 0.533 0.533 0.933 1.067 1.067l-0.267 0.4c-1.333-0.267-3.333-0.8-5.2-0.667zM14.4 24.4c-1.067 0-2.4-0.4-3.067-1.333l3.6-0.267c0 0.8-0.267 1.2-0.533 1.6zM20.667 23.2c-0.8 0-1.733-0.8-2.267-1.467l2-1.067 1.467 0.8c-0.133 1.067-0.533 1.733-1.2 1.733zM27.067 19.333c-0.667-0.667-1.467-1.467-3.333-1.467-1.067 0-2.133 0.667-3.333 1.333-2 1.2-4.4 2.667-8.933 2.533 0.8-0.533 1.2-1.2 1.467-1.867l2.667 0.667s1.067-1.333 0.933-3.067c0-1.867-1.467-2.8-1.467-2.8l-2.4 1.067-0.933-1.6h-1.2c2.133 3.867 1.867 6.267-1.067 7.467-2.533-0.267-4.133-1.067-5.867-1.467-0.8-0.133-0.933-0.4-0.933-1.067h1.6l0.133 0.4h1.067l-2.267-7.867c-0.133-0.667 0.933-0.933 1.067-0.267l2.4 8.133h1.2l-2.4-8.133c2.4-0.667 4.8-1.067 7.333-1.067 2.667 0 4.933 0.8 6.8 1.467 1.6 0.533 2.8 1.067 4 1.067 2.133 0 3.2-0.8 4.133-1.733 0.533-0.4 0.933-0.8 1.333-0.8 0.267 0.533 0.4 1.333 0.4 2.133l-2.8 0.933 0.267 0.8 2.533-0.667c-0.133 0.667-0.133 1.2-0.533 1.733l-1.733 0.133v0.667l1.733 0.133c0.267 0.533 0.4 1.2 0.4 1.733l-2.4-0.533-0.267 0.667 2.667 0.933c0 0.533 0 1.067-0.267 1.6-1.067-0.133-1.467-0.533-2-1.2zM12.933 16.667l2-0.667c0.267 0.4 0.533 0.933 0.533 1.6 0.133 0.533 0 1.2-0.267 1.733l-2-0.533c0.133-0.667 0-1.467-0.267-2.133z"></path>
<path d="M24.533 13.6s0.267 0.8 0.267 1.733c0 0.667 0 1.2-0.267 1.867l0.8 0.267s0.533-0.667 0.533-2.133c0-1.333-0.533-2-0.533-2z"></path>
</symbol>
<symbol id="shop3" viewBox="0 0 32 32">
<path d="M26.667 0c-0.667 0-1.067 0.4-1.333 0.933l-1.333 4.933h-22.267c-0.4 0-0.667 0.133-0.933 0.533-0.267 0.267-0.4 0.667-0.267 1.067l3.733 12.8c0.133 0.533 0.667 0.933 1.2 0.933h14.667l-0.533 2.133h-14v2.267h14.8c0.533 0 1.067-0.4 1.2-0.933l5.733-22.4h4.133v-2.267zM21.867 14.667l-1.067 4.267h-2.933v-4.267zM23.6 8.133l-1.2 4.267h-4.533v-4.267zM15.733 14.667v4.267h-4.933v-4.267zM15.733 8.133v4.267h-4.933v-4.267zM8.933 8.133v4.267h-4.667l-1.2-4.267zM8.933 14.667v4.267h-2.667l-1.333-4.267zM7.733 27.333c-1.2 0-2.4 0.933-2.4 2.267 0 1.2 1.2 2.4 2.4 2.4 1.333 0 2.267-1.2 2.267-2.4 0-1.333-0.933-2.267-2.267-2.267zM18.667 27.467c-1.2 0-2.267 0.933-2.267 2.267 0 1.2 1.067 2.267 2.267 2.267 1.333 0 2.4-1.067 2.4-2.267 0-1.333-1.067-2.267-2.4-2.267z"></path>
</symbol>
<symbol id="fish2" viewBox="0 0 32 32">
<path d="M32 22v-0.133l-0.267-0.267v-0.267l-0.4-0.667-0.667-1.867c-0.267-0.8-0.267-1.467-0.267-2.133 0-0.533 0-1.067 0.267-1.6 0-0.667 0.4-1.333 0.8-2.133l0.267-0.533v-0.267l0.267-0.133v-0.667l-0.267-0.133h-0.267l-1.6 0.8-0.933 0.933c-0.4 0.4-0.667 0.933-0.933 1.733l-0.4 0.533-0.133 0.4h-0.133l-0.4-0.133-0.667-0.533c-1.2-0.667-3.467-1.867-6.133-2.933l0.933-1.6 0.533-0.667-0.8 0.133c-0.8 0-1.467 0.133-2.133 0.533-0.533 0.267-0.933 0.4-1.333 0.8l-1.6-0.533c-1.333-0.667-2-1.333-2.4-1.867-0.4-0.267-0.533-0.533-0.667-0.8h-0.133v-0.133l-0.133-0.533-0.4 0.267c-0.4 0.133-0.933 0.4-1.333 0.8-0.533 0.4-0.933 0.933-1.333 1.6l-0.667 1.067c-2.8 0.667-4.8 1.867-6 2.667-0.667 0.4-1.333 0.933-1.733 1.467l-0.533 0.533-0.133 0.267-0.267 0.267v0.267l1.333 1.067-1.2 0.267 0.267 0.4c0.133 0.133 0.667 0.933 2 2 1.2 0.933 3.333 2.133 6.8 2.667l2.267 1.333 1.6 0.4-0.267-1.467h0.133c1.6 0 3.333-0.267 5.2-0.8l1.867 0.533 1.733 0.133h0.533l0.133-0.133h0.133l0.133-0.133v-0.133h0.133v-0.267l-0.133-0.133v-0.133l-0.8-0.533-0.4-0.4 3.6-1.733 1.2-0.8h0.4l0.267-0.133v-0.133l0.4-0.133h0.133l0.133 0.4 0.533 0.933 1.2 1.733c0.4 0.4 0.667 0.667 1.067 0.8l1.067 0.533h0.267l0.267-0.133v-0.533zM10.267 10l0.933-0.933 0.8-0.667 0.267 0.533 2 1.733h-0.4l-2.667 0.133-1.6 0.133 0.667-0.933zM4.533 16.133c0.267 0 0.533 0.267 0.533 0.533s-0.267 0.4-0.533 0.4-0.533-0.133-0.533-0.4c0-0.267 0.267-0.533 0.533-0.533zM8 21.867c-2-0.533-3.733-1.2-5.2-2.267l-1.333-1.2 1.867-0.4-1.333-0.933h1.333c0.133 0.533 0.667 0.933 1.2 0.933s1.067-0.4 1.2-0.933h2.8c0.267 1.6 0.267 3.6-0.533 4.8zM27.067 17.467l-0.4 0.267h-0.133l-0.267 0.133-0.267 0.267-2 0.933-3.333 1.6h-0.133l-0.533 0.267-1.067 0.4h-0.533l-0.4 0.267c-1.867 0.533-3.467 0.8-5.067 0.8h-0.933l-2.667-0.267-0.4-0.133c0.4-0.8 0.8-2.8 0.133-4.933h18v0.133l0.133 0.133-0.133 0.133z"></path>
</symbol>
<symbol id="shop5" viewBox="0 0 32 32">
<path d="M17.333 13.733l-0.533 0.267-0.8 1.067 3.867 1.2-0.933 1.2-0.133 0.267-3.733-1.333-1.467 2.133-2.4-0.8 1.467-2.133-3.733-1.333 0.133-0.133 0.933-1.2 3.733 1.333 0.667-0.933v-0.667l-3.467-1.067 0.8-1.2 2.4 0.8-0.4-2.933 2 0.667 0.533 3.867 4.667-2.133 2 0.8-3.6 1.467 2.267 0.8-0.8 1.2z"></path>
<path d="M16 3.467c-8.8 0-16 4.533-16 9.867v5.067c0 5.467 7.2 10 16 10s16-4.533 16-10v-5.067c0-5.467-7.2-10-16-10zM16 5.6c7.467 0 13.867 3.733 13.867 7.867 0 4.4-6.4 7.867-13.867 7.867s-13.867-3.467-13.867-7.867c0-4.133 6.4-7.867 13.867-7.867z"></path>
</symbol>
<symbol id="shop4" viewBox="0 0 32 32">
<path d="M21.067 14.933h-3.467l-0.4 0.667v1.333h3.867v2h-3.867v2.933h-2.4v-2.933h-3.867v-2h3.867v-1.333l-0.4-0.667h-3.467v-1.6h2.4l-2-3.2h2l2.667 4.133 2.667-4.133h2l-2 3.2h2.4z"></path>
<path d="M16 4c6.667 0 12 5.333 12 12s-5.333 12-12 12-12-5.333-12-12 5.333-12 12-12zM16 0c-8.8 0-16 7.2-16 16s7.2 16 16 16 16-7.2 16-16-7.2-16-16-16z"></path>
</symbol>
<symbol id="cafe" viewBox="0 0 32 32">
<path d="M32 10.4c-0.267-1.067-0.8-2-1.467-2.667-0.8-0.667-1.733-1.067-2.8-1.067l-1.2 0.267c-0.8-2.667-5.067-4.133-12-4.133-8 0-12.4 1.867-12.133 5.467 0.267 1.867 0.8 5.333 2.4 8.533l-2 0.933-1.867 1.733c-0.4 0.533-0.8 1.467-0.933 2.267v0.4c0 0.533 0 1.067 0.267 1.6 0.4 0.8 1.067 1.6 1.867 2.133 1.2 0.933 2.8 1.867 4.933 2.4s4.667 0.933 7.6 0.933c4.667 0 8.133-0.8 10.667-2 1.333-0.533 2.267-1.333 3.067-2.133l0.8-1.333 0.267-1.467v-0.4c-0.133-0.8-0.4-1.6-0.933-2.267-0.667-0.933-1.867-1.867-2.933-2.4l-1.333-0.533 0.267-0.4c0.533 0.267 1.2 0.267 1.867 0.267 0.8 0 1.6-0.133 2.133-0.4 1.067-0.4 1.867-1.067 2.533-2 0.533-0.8 0.933-1.867 0.933-3.067v-0.667zM14.533 5.333c4.8 0 8.667 1.067 8.667 2.267s-3.867 2.133-8.667 2.133-8.667-0.933-8.667-2.133c0-1.2 3.867-2.267 8.667-2.267zM25.467 19.6c0.667 0.4 1.067 0.8 1.333 1.2l0.533 1.333v0.133l-0.133 0.533c-0.133 0.4-0.533 0.933-1.2 1.467-0.8 0.667-2.267 1.333-4.133 1.867s-4.267 0.8-7.2 0.8c-4.267 0-7.467-0.667-9.6-1.733-1.067-0.533-1.867-1.2-2.267-1.6l-0.533-0.8-0.133-0.667v-0.133l0.533-1.2c0.533-0.667 1.333-1.2 2.267-1.6l1.067-0.533 1.333 1.733 1.467 1.333c-0.533 0.267-0.8 0.533-0.8 0.933 0 1.067 3.333 2 7.333 2s7.333-0.933 7.333-2c0-0.533-0.667-1.067-1.867-1.333l0.933-0.933 1.467-1.733c0.8 0.133 1.6 0.533 2.267 0.933zM28.933 12l-1.067 1.333c-0.4 0.133-0.933 0.4-1.467 0.4l-0.8-0.267 0.667-2.8 0.667-0.8 0.8-0.133c0.267 0 0.667 0 0.8 0.267 0.267 0.133 0.4 0.4 0.533 0.8v0.267l-0.133 0.933z"></path>
</symbol>
<symbol id="spot" viewBox="0 0 32 32">
<path d="M12 27.2c-2.267-0.8-4.533-1.6-7.067-1.6-1.333 0-2.533 0.133-3.867 0.533v1.733l0.4 0.267c3.867-1.067 6.533-1.467 13.6 1.2v-1.067l-0.4-0.133c-0.933-0.133-1.733-0.533-2.667-0.933z"></path>
<path d="M12.8 8v4.933l-3.6-0.933v-5.067l-2.133-0.133c-2 0-4.4 0.4-7.067 1.333v16.8l1.067-0.267c1.333-0.4 2.667-0.667 3.867-0.667 4 0 7.067 1.867 10.133 2.667v-17.333l-1.733-1.2-0.533-0.133zM20 27.2c-0.933 0.4-1.733 0.8-2.667 0.933l-0.4 0.133v1.067c7.067-2.667 9.733-2.267 13.6-1.2l0.4-0.267v-1.733c-1.333-0.4-2.533-0.533-3.867-0.533-2.533 0-4.8 0.8-7.067 1.6z"></path>
<path d="M24.933 6.8c-5.2 0-8 2.533-8 2.533v17.333c3.067-0.8 6.133-2.667 10.133-2.667 1.2 0 2.533 0.267 3.867 0.667l0.933 0.267h0.133v-16.8c-2.667-0.933-5.067-1.333-7.067-1.333zM12.8 3.6l-2.8-0.667-0.8-0.267v4.267c1.467 0.267 2.667 0.667 3.6 1.067z"></path>
</symbol>
<symbol id="surfing" viewBox="0 0 32 32">
<path d="M8.8 18.267l-1.467-0.4-2.933-0.267-1.467 0.133c-0.4 0.133-0.933 0.4-1.2 0.933h-0.133l-0.267 1.067c0 0.8 0.4 1.6 0.933 2.4 0.667 1.2 1.867 2.4 3.467 3.733 1.733 1.2 3.867 2.4 6.267 3.467 4.667 1.733 10.133 2.667 13.867 2.667 1.2 0 2.133 0 2.933-0.267l1.067-0.533 0.4-0.4 0.267-0.533 0.133-0.133-0.133-0.267-1.2-1.867c-0.933-1.067-2.133-2-3.6-3.067-1.333-0.933-3.067-1.733-4.8-2.267l-0.533 1.333c2.267 0.8 4.267 2 5.867 3.2l1.867 1.733c0.533 0.533 0.8 1.067 0.933 1.467l0.667-0.267-0.667-0.133v-0.133l-0.267 0.267-1.067 0.267-1.867 0.133c-3.467 0-8.8-0.933-13.2-2.667-3.333-1.333-5.733-2.933-7.333-4.4l-1.867-2.133c-0.4-0.667-0.533-1.333-0.533-1.6l0.133-0.533-0.8-0.133 0.667 0.4 0.4-0.267 1.067-0.133c0.933 0 1.867 0.133 2.667 0.4l0.933 0.133 0.267 0.133h0.133zM21.2 2.4c0-1.333-1.2-2.4-2.533-2.4-1.2 0-2.267 1.067-2.267 2.4 0 1.2 1.067 2.267 2.267 2.267 1.333 0 2.4-1.067 2.4-2.267z"></path>
<path d="M29.067 12.8l-1.467-3.467c-0.267-0.533-0.667-0.933-1.2-1.2l-2.8-1.2c-1.333-0.533-2.8-0.8-4.267-0.667l-2 0.267c-0.933 0.133-1.733 0.267-2.4 0.667l-2.933 1.067-3.2-0.667c-0.533-0.133-1.067 0.267-1.2 0.8s0.267 0.933 0.8 1.2l3.067 1.067h1.867l3.2-0.8 0.533 2.667-4 1.867c-0.8 0.267-1.467 0.933-1.733 1.733l-2 5.733c0 0.667 0.267 1.333 0.933 1.6 0.667 0.133 1.333-0.133 1.733-0.8l2.267-5.6 3.867-1.6 0.267 0.133c0.133 0 0.267 0.133 0.133 0.4l-1.2 2.267-0.8 5.467c0 0.8 0.4 1.467 1.2 1.6 0.667 0 1.333-0.4 1.467-1.2l0.933-5.333 2.133-2.8c0.933-1.2 1.2-2.667 0.933-4l-0.533-2.8 2.667 1.067 1.867 3.467c0.267 0.533 0.8 0.8 1.333 0.533s0.8-0.933 0.533-1.467z"></path>
</symbol>
<symbol id="camp" viewBox="0 0 32 32">
<path d="M28.933 17.733c-1.2-1.733-2.267-3.6-3.2-5.333l-2.533-5.733-4.533 0.267c-4.533 0-8-0.8-9.467-1.333 2.267 11.067 8.667 18.933 10.267 20.8l12.533-5.067c-1.067-0.933-2.133-2.267-3.067-3.6z"></path>
<path d="M6.667 11.2c-1.467 3.467-3.733 7.867-6.667 11.867l5.333 0.933 2.267-7.2s1.067 4.8 3.467 5.067l0.133 3.2 6.4 1.067c-2.267-2.8-7.067-9.733-9.333-18.933l-1.6 4z"></path>
</symbol>
<symbol id="fish1" viewBox="0 0 32 32">
<path d="M29.6 16.667l2.4-6.133-0.133-0.4h-0.4l-6.133 4.533c-1.333-0.133-2.8-3.333-9.2-4.933l1.867-0.267c0.267-0.133 0.667-0.133 0.667-0.4 0.267-0.267 0.267-0.667 0.133-0.933l-0.933-2.533-0.667-0.667c-0.4 0-0.667 0-0.933 0.4l-4.267 4c-6.8 0-12 5.6-12 7.333 0.267 1.467 3.067 4.8 7.333 6.533l1.067-1.867c0.933-1.6 1.067-3.067 1.067-4l-0.133-1.067c0-0.267 0.267-0.667 0.667-0.8 0.267 0 0.667 0.133 0.667 0.533l0.267 1.333c0 1.2-0.267 2.667-1.2 4.667l-1.067 1.6c1.467 0.4 3.067 0.667 4.8 0.4l1.2 2.533 0.667 0.533 0.8-0.133 1.067-0.667 0.4-0.8-0.267-0.8-1.333-1.067c6.533-1.6 8-4.8 9.333-4.933l6.133 4.533h0.4l0.133-0.4zM4.8 17.067c-0.667 0-1.067-0.4-1.067-1.067 0-0.533 0.4-0.933 1.067-0.933 0.533 0 1.067 0.4 1.067 0.933 0 0.667-0.533 1.067-1.067 1.067z"></path>
</symbol>
<symbol id="fish4" viewBox="0 0 32 32">
<path d="M10.933 6.933l-0.267 0.133-0.133 0.133-0.8 0.4h-0.133l-0.933 0.933c0.933-0.267 2-0.533 3.333-0.533 2.4 0 4.8 0.667 6.8 1.6 0.267-1.067 0.533-2.4 1.2-3.467l0.133-0.533c-4-0.267-6.8 0.267-8.667 1.067h-0.133l-0.4 0.267zM5.333 15.333c0-0.4-0.267-0.8-0.8-0.8s-0.933 0.4-0.933 0.8c0 0.667 0.4 0.933 0.933 0.933s0.8-0.267 0.8-0.933zM19.333 15.467l-1.067 1.2 0.933 1.2 1.067-1.2-0.8-1.067zM16.667 15.467l-1.067 1.2 0.933 1.2 1.067-1.2-0.8-1.067z"></path>
<path d="M28.933 16.4c0.667-1.467 2.4-4.4 2.933-5.2l0.133-0.4c-2.533 0.533-5.067 2.533-6.667 4l-0.133 0.267-0.267 0.267h-0.133c-0.8-1.333-3.067-3.333-6.133-4.933-2-0.933-4.267-1.6-6.667-1.6-1.6 0-3.067 0.4-4.4 0.933-4.4 1.733-7.2 5.733-7.6 6.533 0.133 0.4 0.8 1.333 1.867 2.533h2.667c0 0.533-0.267 0.933-0.533 1.2 0 0.267-0.267 0.267-0.4 0.4 2 1.733 4.8 3.333 8.4 3.333h0.4l0.533 0.4 0.4 0.4c1.333 0.8 3.2 1.867 4.8 2l-1.2-2.8-0.267-0.267-0.133-0.4c2.133-0.8 4.133-1.867 5.6-3.067l0.4-0.267 0.133-0.133 0.267-0.133 0.133-0.267 1.2-1.2 0.4-0.667 0.667 0.667c1.2 1.2 3.067 2.667 5.067 3.6h0.133l0.133 0.133 1.333 0.4s-2.267-3.867-3.067-5.733zM20.667 17.067l-1.067 1.2 0.8 0.933-0.4 0.4-0.8-0.933-0.8 0.933-0.4-0.4 0.933-0.933-0.8-0.933-0.133-0.267-1.067 1.2 0.8 0.933-0.4 0.4-0.667-0.933h-0.133l-0.8 0.933-0.4-0.4 0.933-0.933-0.8-0.933-0.133-0.267-2.267 2.533-0.4-0.4 2.267-2.533-2.133-2.533 0.4-0.4 1.733 2.267 0.4 0.267 0.933-1.2-0.8-0.933 0.4-0.4 0.667 0.933h0.133l0.667-0.933 0.533 0.4-0.933 0.933 0.933 1.067 0.133 0.133 0.933-1.2-0.8-0.933 0.4-0.4 0.667 0.933h0.133l0.667-0.933 0.533 0.4-0.933 0.933 0.933 1.067 0.133 0.133 0.667-0.667 0.267 0.267-0.667 0.8 0.667 0.8-0.267 0.4-0.667-0.667zM8.533 19.467c1.333-0.533 2.133-1.733 2.133-3.2 0-1.333-0.8-2.667-2-3.2-0.267 0-0.267-0.267-0.267-0.4 0.133-0.133 0.267-0.267 0.533-0.133 1.467 0.667 2.4 2.133 2.4 3.733 0 1.733-0.933 3.2-2.533 3.867h-0.133l-0.267-0.133 0.133-0.533zM2.8 15.333c0-0.933 0.8-1.6 1.733-1.6s1.733 0.667 1.733 1.6c0 1.067-0.8 1.733-1.733 1.733s-1.733-0.667-1.733-1.733z"></path>
</symbol>
<symbol id="fish3" viewBox="0 0 32 32">
<path d="M30.667 17.333c0-0.8 1.6-4.933 1.067-4.933-1.467 0-3.733 2.8-5.067 2.667-0.533 0-1.333-0.4-2.4-0.667 0.267-0.533 0.4-1.333 0-1.467-0.533-0.133-1.067 0.4-1.333 0.933-0.933-0.533-2.133-0.8-3.333-1.2l-0.133-1.2c-0.267-0.667-0.267-2.533-0.533-2.4-1.867 0.267-3.467 2-4 2.667h-2.933c-7.333 0.533-10.133 2.267-11.2 2.667s-0.933 1.2-0.133 1.333c0.8 0.133 2.133 1.067 3.333 2.267 0 0-2.667 0.267-3.2 0-0.8-0.267-1.067 0.267-0.533 0.667 0.667 0.533 2.8 1.333 5.733 2.133 2.267-1.6 2-4.4 1.733-5.2-0.533-0.933-0.133-1.333 0.267-0.267 1.2 2-0.267 4.667-0.8 5.6l2.4 0.4c-0.267-0.4-0.267-0.8-0.267-1.067 0.533 0.667 1.6 2.133 2.267 2.533 0.667 0.533 2.4-0.133 2.533-0.8l-0.4-0.533c1.733 0 3.467-0.133 5.067-0.533 0.4 0.4 1.2 1.067 2 1.333 0.933-0.4 1.2-1.467 1.2-2l4.267-0.933c1.867 0 4.8 2.667 5.733 2 0.4-0.4-1.333-3.333-1.333-4zM4.267 16c-0.267 0-0.533-0.4-0.533-0.667 0-0.4 0.267-0.667 0.533-0.667 0.4 0 0.667 0.267 0.667 0.667 0 0.267-0.267 0.667-0.667 0.667z"></path>
</symbol>
<symbol id="family" viewBox="0 0 32 32">
<path d="M4.933 7.467c1.467 0 2.533-1.2 2.533-2.667 0-1.333-1.067-2.533-2.533-2.533s-2.667 1.2-2.667 2.533c0 1.467 1.2 2.667 2.667 2.667zM16 14.267c0.933 0 1.733-0.8 1.733-1.733 0-1.067-0.8-1.867-1.733-1.867s-1.733 0.8-1.733 1.867c0 0.933 0.8 1.733 1.733 1.733zM27.067 7.467c1.467 0 2.667-1.2 2.667-2.667 0-1.333-1.2-2.533-2.667-2.533s-2.533 1.2-2.533 2.533c0 1.467 1.067 2.667 2.533 2.667z"></path>
<path d="M29.333 8.667h-3.333c-1.333 0-2.533 0.667-3.2 2l-2 6-0.4 0.267-0.4-0.133-1.333-1.067c-0.4-0.4-0.933-0.533-1.333-0.533h-2.667c-0.4 0-0.933 0.133-1.333 0.533l-1.333 1.067-0.4 0.133-0.4-0.267-2-6c-0.667-1.333-1.867-2-3.2-2h-3.333c-1.333 0-2.667 1.333-2.667 2.667v8.667c0 0.667 0.533 1.067 1.2 1.067h0.667l0.533 7.467c0 0.667 0.533 1.2 1.2 1.2h2.667c0.667 0 1.2-0.533 1.2-1.2l0.4-7.467v-5.2l0.133-0.267 0.133 0.133 1.733 4.133c0.133 0.4 0.533 0.667 0.933 0.667 0.533 0.133 0.933 0 1.2-0.267l1.6-1.2c0.133-0.133 0.133-0.133 0.267 0l0.133 0.133v4.533l0.267 5.2c0 0.4 0.4 0.8 0.8 0.8h1.867c0.4 0 0.8-0.4 0.8-0.8l0.267-5.2v-4.533l0.133-0.133c0.133-0.133 0.133-0.133 0.267 0l1.6 1.2c0.267 0.267 0.667 0.4 1.2 0.267 0.4 0 0.8-0.267 0.933-0.667l1.733-4.133 0.133-0.133 0.133 0.267v5.2l0.4 7.467c0 0.667 0.533 1.2 1.2 1.2h2.667c0.667 0 1.2-0.533 1.2-1.2l0.533-7.467h0.667c0.667 0 1.2-0.4 1.2-1.067v-8.667c0-1.333-1.333-2.667-2.667-2.667z"></path>
</symbol>
<symbol id="fish5" viewBox="0 0 32 32">
<path d="M11.067 17.333c-0.4-3.067-2.4-5.2-4.667-4.933-0.133 0-0.267 0.133-0.133 0.4 0.133 0.533 0.667 0.533 0.8 1.2 0 0.533-0.667 0.533-0.667 1.2 0.133 0.667 0.8 0.533 0.8 1.067 0.133 0.667-0.533 0.667-0.533 1.2 0 0.667 0.667 0.533 0.8 1.067l-0.133 0.533v-0.133c-0.533-0.667-1.2-0.133-1.6-0.8s0.4-0.933 0-1.6-0.933 0.133-1.2-0.533c-0.4-0.667 0.4-1.067 0-1.733-0.267-0.667-1.067-0.267-1.467-1.067-0.4-0.667 0.4-0.933 0.133-1.6 0-0.4-0.267-0.533-0.533-0.533-2.667 1.333-3.6 5.333-1.6 8.267 2 3.2 5.467 4.267 7.867 2.533 1.467-0.933 2.267-2.8 2.133-4.667zM10.933 13.6c-0.267 0.133-0.267 0.533 0 0.8s0.667 0.267 0.933 0v-0.8c-0.267-0.267-0.667-0.267-0.933 0zM13.333 11.067v0.933c0.267 0.267 0.667 0.267 0.933 0s0.267-0.667 0-0.933h-0.933zM12.933 21.6c-0.533-0.133-1.867-0.267-2.267-0.8l-0.667 1.067s2.267 1.2 2.8 1.2c0.4-0.133 0.533-1.467 0.133-1.467zM13.333 22.667l1.733-1.067-0.667-0.8-1.067 0.8zM15.2 21.867l-1.2 2.133s-0.4 0.267-0.267 0.533c0.133 0.4 0.4 0.533 0.933 0.4l1.2-2.267zM13.333 24l-2.533 0.267c-0.4 0-0.667 0.667-0.133 1.067 0.667 0.267 3.067-0.133 3.067-0.133s-0.4-0.533-0.4-1.2zM15.333 25.333s-0.267 0.4 0 0.667c0.133 0.267 0.4 0.4 0.667 0.133 0.533-0.267 1.067-2.267 1.067-2.267l-0.8-0.8-0.933 2.267zM15.067 26.4s0 2.4 0.4 2.933c0.533 0.533 1.067 0.267 0.933-0.267l-0.133-2.4c-0.533 0.133-1.2-0.267-1.2-0.267zM17.867 27.2c0.267 0 0.4-0.533 0.4-0.533l0.667-2.267h-1.067s-0.933 2-0.8 2.4c0.133 0.533 0.4 0.533 0.8 0.4zM18.4 27.333c-0.4 0.4-1.2 0.267-1.2 0.267s1.067 2.267 1.733 2.4c0.667 0.267 1.067-0.267 0.8-0.667-0.4-0.267-1.333-2-1.333-2zM11.733 3.2c0.667 0.267 0.933-0.533 1.6-0.133 0.8 0.4 0.4 1.2 1.067 1.467 0.667 0.4 1.067-0.4 1.733 0 0.667 0.267-0.133 0.8 0.533 1.2s0.933-0.4 1.6 0 0.133 1.067 0.8 1.6h0.133l-0.533 0.133c-0.533-0.133-0.4-0.8-1.067-0.8-0.533 0-0.533 0.667-1.2 0.533-0.533 0-0.4-0.667-1.067-0.8-0.667 0-0.667 0.667-1.2 0.667-0.667-0.133-0.667-0.667-1.2-0.8-0.267-0.133-0.4 0-0.4 0.133-0.267 2.267 1.867 4.267 4.8 4.667 1.867 0.133 3.733-0.667 4.667-2.133 1.733-2.4 0.667-5.867-2.533-7.867-2.933-2-6.933-1.067-8.267 1.6 0 0.267 0.133 0.533 0.533 0.533zM23.333 23.333l1.6-1.6c0.4-0.4 0.8-1.2 0.267-2-0.267-0.4-0.667-0.4-0.933-0.4l-0.933 0.533-1.867 1.6-1.6 1.867-0.533 0.933c0 0.267 0 0.667 0.4 0.933 0.8 0.533 1.6 0.133 2-0.267l1.6-1.6zM26.667 23.733c0.533-0.4 0.8-1.067 0.267-1.733-0.267-0.4-0.667-0.4-0.933-0.4s-0.667 0.267-0.667 0.533l-1.733 1.467-1.467 1.733c-0.267 0-0.533 0.4-0.533 0.667s0 0.667 0.4 0.933c0.667 0.533 1.333 0.267 1.733-0.267l1.6-1.333 1.333-1.6zM27.733 24c-0.667-0.133-1.733 1.067-2.267 1.467-0.4 0.533-1.6 1.6-1.467 2.267s1.2 4.4 2.8 4.267c1.6-0.133 0.8-3.333 1.333-3.867s3.733 0.267 3.867-1.333c0.133-1.6-3.6-2.667-4.267-2.8zM20.8 10.667c0.533 0.4 0.667 1.733 0.8 2.267 0 0.4 1.333 0.267 1.467-0.133 0-0.533-1.2-2.8-1.2-2.8zM20.8 14.4l0.8 0.667 1.067-1.733h-1.067zM22.667 15.867l2.267-1.2c0.133-0.533 0-0.8-0.4-0.933-0.267-0.133-0.533 0.267-0.533 0.267l-2.133 1.2zM25.2 13.733s0.4-2.4 0.133-3.067c-0.4-0.533-1.067-0.267-1.067 0.133l-0.267 2.533c0.667 0 1.2 0.4 1.2 0.4zM23.067 16.267l0.8 0.8s2-0.533 2.267-1.067c0.267-0.267 0.133-0.533-0.133-0.667-0.267-0.267-0.667 0-0.667 0l-2.267 0.933zM26.667 16.267l2.4 0.133c0.533 0.133 0.8-0.4 0.267-0.933-0.533-0.4-2.933-0.4-2.933-0.4s0.4 0.667 0.267 1.2zM26.8 17.067c-0.4-0.133-2.4 0.8-2.4 0.8v1.067l2.267-0.667s0.533-0.133 0.533-0.4c0.133-0.4 0.133-0.667-0.4-0.8zM27.333 18.4s1.733 0.933 2 1.333c0.4 0.267 0.933-0.133 0.667-0.8-0.133-0.667-2.4-1.733-2.4-1.733s0.133 0.8-0.267 1.2z"></path>
<path d="M5.333 10.4l0.533-0.133 1.333 0.133c0.8 0.267 1.6 0.4 2.667 0.933 0.933 0.533 2 1.2 3.067 2.267-0.667 1.467-0.133 4.933 4.533 9.733 0.8 0.8 1.6 0.4 2-0.267l1.733-1.867 2-1.733c0.667-0.4 0.933-1.2 0.267-2.133-4.933-4.667-8.533-5.2-9.867-4.533-1.6-1.6-2.4-3.067-2.933-4.4l-0.267-1.733-0.133-0.8 0.133-0.533-0.133-0.133-0.267 0.133v0.533l0.133 1.333c0.133 0.8 0.4 1.733 0.933 2.8 0.533 0.933 1.2 2 2.267 3.067h-0.133l-0.133 0.267c-1.6-1.6-3.2-2.533-4.533-2.933l-1.867-0.4h-1.333l-0.133 0.267 0.133 0.133z"></path>
</symbol>
<symbol id="food" viewBox="0 0 32 32">
<path d="M12.933 1.467v6.8c0 0.533-0.4 0.8-0.8 0.8h-0.133c-0.533 0-0.8-0.267-0.8-0.8v-6.933c0-0.933-0.8-1.333-1.467-1.333-0.8 0-1.6 0.4-1.6 1.333v6.933c0 0.533-0.267 0.8-0.667 0.8h-0.267c-0.533 0-0.8-0.267-0.8-0.8v-6.8c0-2-2.933-1.867-2.933 0v6.533c0 3.6 0.933 4.533 2.4 5.733 1.067 0.933 2.133 1.467 2.133 3.6v14.667h3.467v-14.667c0-2.133 0.933-2.667 2.133-3.6 1.333-1.2 2.267-2.133 2.267-5.733v-6.533c0-1.867-2.933-2-2.933 0zM24 2.133c-0.667 2.133-2.667 6.933-2.933 11.2-0.133 6.667 3.867 5.6 4 10v8.667h3.467v-29.867c0-2.533-3.2-3.2-4.533 0z"></path>
</symbol>
</defs>
</svg>
