<svg aria-hidden="true" style="position: absolute; width: 0; height: 0; overflow: hidden;" version="1.1" xmlns="http://www.w3.org/2000/svg" xmlns:xlink="http://www.w3.org/1999/xlink">
<defs>
<symbol id="icon-cafe" viewBox="0 0 32 32">
<path d="M31.941 10.386c-0.17-1.092-0.711-2.038-1.473-2.668-0.759-0.633-1.711-0.956-2.669-0.954-0.442-0.001-0.886 0.069-1.319 0.205-0.799-2.765-4.97-4.148-11.953-4.148-8.016 0-12.328 1.822-12.085 5.467 0.119 1.789 0.737 5.297 2.397 8.518-0.713 0.257-1.386 0.579-1.994 0.968-0.723 0.466-1.357 1.024-1.851 1.681-0.493 0.656-0.845 1.419-0.961 2.252-0.023 0.161-0.034 0.323-0.034 0.485-0 0.505 0.11 1.005 0.309 1.475 0.35 0.825 0.957 1.563 1.762 2.216 1.211 0.98 2.883 1.789 4.999 2.37 2.117 0.579 4.681 0.922 7.678 0.923 4.545-0.003 8.107-0.79 10.618-2.003 1.255-0.609 2.254-1.327 2.972-2.149 0.359-0.413 0.647-0.853 0.848-1.323s0.313-0.969 0.313-1.473c0-0.111-0.005-0.221-0.016-0.331-0.082-0.855-0.416-1.644-0.901-2.321-0.73-1.018-1.79-1.812-3.011-2.392-0.412-0.194-0.844-0.361-1.289-0.504 0.075-0.147 0.148-0.295 0.219-0.442 0.627 0.243 1.273 0.362 1.899 0.361 0.768 0 1.504-0.17 2.166-0.461 0.994-0.438 1.83-1.138 2.44-1.998 0.606-0.86 0.994-1.899 0.995-3.016-0-0.244-0.019-0.491-0.059-0.739zM14.528 5.372c4.763 0 8.624 0.98 8.624 2.187s-3.861 2.186-8.624 2.186c-4.762 0-8.623-0.979-8.623-2.186s3.861-2.187 8.623-2.187zM25.524 19.66c0.544 0.36 0.98 0.77 1.278 1.188 0.299 0.421 0.462 0.839 0.504 1.262 0.004 0.039 0.006 0.080 0.006 0.12 0 0.185-0.039 0.385-0.136 0.613-0.168 0.398-0.531 0.878-1.132 1.359-0.898 0.724-2.315 1.436-4.212 1.949-1.897 0.516-4.27 0.842-7.085 0.841-4.309 0.003-7.574-0.764-9.675-1.793-1.051-0.512-1.805-1.089-2.264-1.625-0.231-0.268-0.387-0.523-0.484-0.753-0.097-0.231-0.136-0.436-0.137-0.626 0-0.061 0.005-0.121 0.013-0.181 0.059-0.419 0.237-0.832 0.545-1.244 0.458-0.614 1.22-1.202 2.167-1.636 0.339-0.156 0.707-0.286 1.084-0.4 0.407 0.581 0.852 1.139 1.349 1.654 0.503 0.522 0.974 0.939 1.434 1.282-0.475 0.278-0.748 0.59-0.748 0.92 0 1.157 3.263 2.095 7.287 2.095s7.287-0.938 7.287-2.095c0-0.523-0.669-0.999-1.768-1.366 0.284-0.246 0.574-0.523 0.877-0.836 0.528-0.548 0.999-1.142 1.424-1.763 0.896 0.234 1.722 0.593 2.388 1.036zM28.879 12.015c-0.204 0.453-0.573 0.891-1.020 1.195-0.448 0.306-0.958 0.476-1.46 0.475-0.272-0.002-0.548-0.053-0.836-0.164 0.329-1.032 0.571-2.023 0.738-2.905 0.204-0.322 0.433-0.541 0.664-0.687 0.28-0.176 0.568-0.25 0.834-0.25 0.314 0.001 0.59 0.102 0.802 0.278 0.209 0.181 0.384 0.432 0.462 0.889 0.014 0.092 0.021 0.185 0.021 0.278 0 0.286-0.067 0.589-0.205 0.891z"></path>
</symbol>
<symbol id="icon-shop1" viewBox="0 0 32 32">
<path d="M22.166 5.801c-0.272 0.002-0.507 0.107-0.687 0.285-0.178 0.179-0.285 0.415-0.285 0.687s0.107 0.507 0.285 0.687c0.18 0.178 0.414 0.284 0.687 0.286 0.273-0.002 0.507-0.108 0.687-0.286 0.177-0.179 0.283-0.414 0.284-0.687-0.001-0.272-0.107-0.507-0.284-0.687-0.18-0.178-0.414-0.283-0.687-0.285z"></path>
<path d="M26.958 1.986c-1.26-1.262-3.006-1.986-4.792-1.986-1.784 0-3.53 0.723-4.784 1.978-1.266 1.26-1.991 3.009-1.989 4.792-0.001 1.787 0.723 3.536 1.98 4.789 0.017 0.017 0.034 0.033 0.050 0.051v8.466c-0 0.66-0.248 1.258-0.712 1.724-0.47 0.469-1.067 0.717-1.726 0.717s-1.257-0.248-1.722-0.713c-0.14-0.14-0.26-0.291-0.359-0.452 0.467-0.229 0.885-0.56 1.222-0.979 0.434-0.539 1.102-1.709 0.711-3.493-0.166-0.752 0.261-2.474 0.401-3.040 0.408-1.646-0.103-2.754-0.603-3.395-0.658-0.84-1.655-1.322-2.737-1.322-0.2 0-0.403 0.017-0.606 0.050-2.569 0.349-4.908 2.426-5.759 3.633l-0.11 0.146c-1.546 2.072-2.362 4.536-2.361 7.125-0.001 3.187 1.239 6.182 3.49 8.43 2.25 2.253 5.246 3.494 8.434 3.494h0.002c3.186 0 6.181-1.241 8.428-3.491 2.254-2.251 3.495-5.245 3.494-8.433v-8.467c0.015-0.015 0.030-0.030 0.044-0.044 1.263-1.26 1.988-3.007 1.987-4.79 0.001-1.789-0.724-3.537-1.981-4.789zM24.684 9.291c-0.283 0.284-0.619 0.518-0.988 0.693v10.093c0.001 2.328-0.905 4.516-2.551 6.159-1.644 1.646-3.831 2.552-6.158 2.552h-0.002c-2.33 0-4.517-0.906-6.161-2.552-1.645-1.643-2.552-3.831-2.551-6.159-0.001-1.892 0.595-3.692 1.724-5.204l0.141-0.188c0.294-0.5 2.044-2.156 3.642-2.337 0.31-0.068 0.492 0.105 0.34 0.718-0.45 1.818-0.686 3.297-0.421 4.503 0.199 0.908-0.323 0.999-0.53 0.912-0.218-0.091-0.802-0.479-1.292-0.816-0.355 0.749-0.543 1.566-0.544 2.413 0.001 1.506 0.589 2.926 1.655 3.995 1.069 1.067 2.488 1.655 3.996 1.655 1.507 0 2.927-0.589 3.995-1.655 1.067-1.069 1.655-2.488 1.655-3.995v-10.092c-0.369-0.177-0.705-0.41-0.988-0.694-0.643-0.64-1.044-1.538-1.043-2.518-0.001-0.979 0.4-1.879 1.043-2.518 0.641-0.641 1.539-1.043 2.519-1.043s1.878 0.402 2.518 1.043c0.642 0.64 1.043 1.539 1.043 2.518s-0.401 1.878-1.043 2.518z"></path>
</symbol>
<symbol id="icon-spot" viewBox="0 0 32 32">
<path d="M11.947 27.229c-2.175-0.82-4.425-1.665-7.019-1.665-1.285 0-2.545 0.205-3.835 0.625v1.615c0 0.225 0.215 0.385 0.43 0.325 3.93-1.11 6.479-1.49 13.534 1.215v-1.055l-0.425-0.125c-0.89-0.26-1.76-0.59-2.685-0.935z"></path>
<path d="M12.762 7.951v0.005c-0.003-0.002-0.006-0.003-0.010-0.005v3.979l-0.003 1.057-3.58-0.999v-4.997c-0.66-0.089-1.366-0.145-2.132-0.145-2 0-4.349 0.355-7.034 1.335v12.515l-0.003 4.273c0.001-0 0.002-0.001 0.003-0.001v0.011c0.37-0.135 0.735-0.255 1.090-0.355 1.36-0.395 2.634-0.56 3.835-0.56 4.004 0 7.189 1.795 10.129 2.66v-17.453c0 0-0.629-0.537-1.831-1.106-0.147-0.071-0.3-0.142-0.463-0.213z"></path>
<path d="M20.056 27.229c-0.925 0.345-1.795 0.675-2.685 0.935l-0.425 0.125v1.055c7.054-2.705 9.604-2.325 13.533-1.215 0.215 0.060 0.43-0.1 0.43-0.325v-1.615c-1.29-0.42-2.55-0.625-3.835-0.625-2.595-0-4.844 0.845-7.019 1.665z"></path>
<path d="M24.966 6.846c-5.225 0-8.019 2.425-8.019 2.425v17.453c2.94-0.865 6.124-2.66 10.129-2.66 1.2 0 2.475 0.165 3.835 0.56 0.301 0.085 0.611 0.187 0.924 0.298 0.052 0.020 0.104 0.036 0.156 0.057v-0.003c0.003 0.001 0.007 0.002 0.010 0.003v-16.798c-2.685-0.98-5.034-1.335-7.034-1.335z"></path>
<path d="M12.752 3.656l-3.583-1v4.335c1.459 0.197 2.657 0.569 3.583 0.96v-4.295z"></path>
</symbol>
<symbol id="icon-onsen" viewBox="0 0 32 32">
<path d="M25.043 0.127v3.41h-6.374v-3.537h-5.338v3.537h-6.374v-3.473h-5.337v31.936h28.76v-31.873h-5.337zM18.68 16.668c0.088-0.424 0.255-0.838 0.404-1.181 0.15-0.345 0.258-0.613 0.321-0.882 0.065-0.266 0.093-0.535 0.1-0.812 0.009-0.563-0.048-1.072-0.133-1.461-0.083-0.392-0.21-0.729-0.267-1.021-0.058-0.289-0.025-0.504 0.129-0.602s0.355-0.057 0.605 0.109c0.245 0.166 0.575 0.491 0.841 1.021 0.13 0.261 0.238 0.563 0.315 0.886 0.077 0.326 0.126 0.662 0.146 1.037 0.019 0.374-0.003 0.789-0.095 1.214-0.088 0.423-0.255 0.837-0.403 1.179-0.151 0.345-0.258 0.613-0.321 0.881s-0.092 0.537-0.099 0.813c-0.009 0.564 0.048 1.073 0.133 1.461 0.083 0.394 0.21 0.731 0.267 1.021 0.059 0.289 0.025 0.503-0.131 0.602-0.154 0.098-0.352 0.057-0.604-0.109-0.244-0.166-0.574-0.491-0.839-1.020-0.132-0.262-0.239-0.564-0.315-0.887-0.078-0.326-0.129-0.661-0.148-1.037-0.018-0.373 0.002-0.789 0.094-1.213zM14.985 16.838c0.077-0.461 0.237-0.92 0.384-1.311 0.148-0.395 0.258-0.711 0.32-1.029 0.065-0.318 0.090-0.639 0.092-0.957 0-0.651-0.063-1.24-0.157-1.695-0.091-0.459-0.226-0.844-0.284-1.165-0.061-0.319-0.027-0.546 0.133-0.637s0.365-0.024 0.623 0.182c0.254 0.205 0.59 0.587 0.852 1.17s0.422 1.3 0.471 2.1c0.022 0.405 0.009 0.852-0.072 1.313-0.079 0.459-0.238 0.92-0.386 1.31-0.148 0.393-0.257 0.711-0.319 1.029-0.064 0.317-0.088 0.637-0.091 0.957-0.001 0.651 0.061 1.239 0.157 1.694 0.091 0.461 0.225 0.845 0.283 1.167 0.061 0.318 0.026 0.546-0.133 0.637-0.16 0.090-0.366 0.023-0.623-0.183-0.255-0.206-0.588-0.588-0.852-1.17-0.264-0.585-0.422-1.3-0.471-2.101-0.024-0.404-0.008-0.852 0.073-1.311zM11.221 16.668c0.088-0.424 0.254-0.838 0.404-1.181 0.149-0.345 0.257-0.613 0.32-0.882 0.065-0.266 0.094-0.535 0.1-0.811 0.008-0.564-0.048-1.073-0.133-1.462-0.082-0.392-0.209-0.729-0.266-1.021-0.059-0.289-0.025-0.504 0.129-0.602s0.354-0.057 0.604 0.109c0.245 0.166 0.576 0.491 0.84 1.021 0.131 0.261 0.24 0.563 0.316 0.887 0.076 0.325 0.127 0.66 0.146 1.036 0.018 0.374-0.002 0.789-0.094 1.214-0.088 0.423-0.256 0.837-0.404 1.179-0.15 0.345-0.258 0.613-0.321 0.881s-0.092 0.537-0.099 0.813c-0.008 0.564 0.049 1.073 0.133 1.461 0.083 0.394 0.21 0.731 0.268 1.021 0.057 0.289 0.025 0.503-0.13 0.602s-0.354 0.057-0.604-0.109c-0.244-0.166-0.574-0.491-0.84-1.020-0.132-0.262-0.239-0.564-0.316-0.887-0.076-0.326-0.127-0.661-0.146-1.037-0.018-0.373 0.002-0.789 0.094-1.213zM25.336 21.77c-0.27 0.719-0.739 1.34-1.33 1.872-0.89 0.797-2.064 1.41-3.428 1.841-1.365 0.428-2.922 0.668-4.578 0.668s-3.214-0.24-4.578-0.668c-1.363-0.431-2.537-1.044-3.428-1.841-0.591-0.532-1.061-1.153-1.33-1.872-0.154-0.409-0.238-0.849-0.238-1.298 0-0.435 0.076-0.852 0.209-1.233 0.135-0.381 0.505-0.822 0.777-1.085 0.643-0.624 1.334-0.935 1.673-1.117 0.253-0.151 0.573-0.060 0.718 0.204s0.049 0.588-0.194 0.754c-1.603 1.094-1.868 2.403-0.708 3.772 0.347 0.407 0.81 0.731 1.488 1.112 1.112 0.622 3.406 1.171 5.611 1.168 2.204 0.003 4.499-0.546 5.611-1.168 0.68-0.381 1.142-0.705 1.488-1.112 1.159-1.369 0.895-2.679-0.707-3.772-0.244-0.166-0.339-0.489-0.195-0.754 0.145-0.264 0.466-0.355 0.718-0.204 0.339 0.183 1.030 0.493 1.673 1.117 0.272 0.263 0.643 0.704 0.777 1.085 0.133 0.382 0.21 0.799 0.209 1.233 0.001 0.449-0.085 0.889-0.238 1.298z"></path>
</symbol>
<symbol id="icon-fish" viewBox="0 0 32 32">
<path d="M29.592 16.655l2.386-6.163c0.053-0.138 0.009-0.293-0.107-0.382-0.117-0.090-0.278-0.091-0.396-0.004l-6.193 4.568c-1.333-0.157-2.774-3.342-9.12-4.922l1.855-0.265c0.296-0.042 0.556-0.215 0.71-0.472s0.183-0.567 0.081-0.848l-0.933-2.564c-0.114-0.314-0.378-0.549-0.702-0.626s-0.665 0.014-0.908 0.242l-4.245 3.996c-6.868 0.15-12.018 5.679-12.018 7.438 0.233 1.476 3.056 4.867 7.328 6.516 0.446-0.623 0.807-1.225 1.095-1.798 0.841-1.677 1.077-3.117 1.077-4.108 0-0.399-0.039-0.726-0.089-0.954-0.080-0.378 0.16-0.749 0.538-0.829s0.749 0.16 0.83 0.537c0.072 0.341 0.118 0.757 0.118 1.246 0 1.209-0.286 2.863-1.226 4.735-0.264 0.526-0.582 1.070-0.958 1.626 1.469 0.4 3.075 0.581 4.78 0.419l1.266 2.466c0.128 0.25 0.355 0.434 0.627 0.506s0.561 0.025 0.797-0.129l0.966-0.632c0.267-0.174 0.432-0.464 0.448-0.78 0.015-0.316-0.121-0.622-0.368-0.821l-1.294-1.042c6.537-1.559 7.997-4.817 9.345-4.977l6.193 4.568c0.118 0.087 0.279 0.086 0.396-0.003 0.116-0.089 0.16-0.245 0.107-0.382l-2.386-6.164zM4.777 17.122c-0.579 0-1.049-0.471-1.049-1.049s0.47-1.049 1.049-1.049 1.049 0.47 1.049 1.049c0 0.578-0.47 1.049-1.049 1.049z"></path>
</symbol>
<symbol id="icon-ramen" viewBox="0 0 32 32">
<path d="M31.993 14.786l-0.033-0.482c-0.045-0.657-0.345-1.246-0.792-1.661-0.445-0.416-1.051-0.67-1.702-0.67l-0.091 0.003-26.84-0.003c-0.652 0-1.257 0.254-1.703 0.67-0.447 0.415-0.748 1.004-0.791 1.661l-0.040 0.579 0.011 0.096c0.326 2.953 1.452 5.667 3.156 7.914 1.537 2.029 3.545 3.68 5.862 4.796l-0.104 0.8c-0.023 0.153-0.048 0.309-0.069 0.473-0.021 0.167-0.039 0.342-0.039 0.537 0.001 0.237 0.026 0.512 0.142 0.811 0.088 0.222 0.234 0.448 0.424 0.627 0.142 0.134 0.303 0.242 0.468 0.324 0.249 0.123 0.506 0.193 0.774 0.238 0.269 0.044 0.554 0.062 0.872 0.062h8.685c0.377-0 0.708-0.025 1.020-0.090 0.235-0.049 0.462-0.121 0.681-0.238 0.164-0.087 0.323-0.201 0.46-0.341 0.207-0.209 0.351-0.473 0.425-0.718 0.076-0.247 0.093-0.472 0.093-0.673 0-0.194-0.018-0.37-0.039-0.537-0.020-0.164-0.045-0.32-0.068-0.473l-0.085-0.656c2.391-1.091 4.468-2.748 6.057-4.802 1.762-2.275 2.928-5.040 3.261-8.053l0.011-0.096-0.007-0.097zM20.183 29.393h-8.685c-0.223 0-0.391-0.014-0.505-0.031 0.003-0.038 0.008-0.080 0.014-0.128 0.015-0.119 0.038-0.265 0.063-0.43l0.001-0.010 0.174-1.332h9.192l0.174 1.332 0.001 0.010c0.025 0.166 0.048 0.311 0.063 0.43 0.007 0.048 0.011 0.090 0.014 0.128-0.114 0.017-0.283 0.031-0.505 0.031zM27.014 21.706c-1.525 1.971-3.568 3.521-5.921 4.447l-0.739 0.291h-8.977l0.011-0.088-0.762-0.32c-2.281-0.956-4.257-2.503-5.732-4.45-0.458-0.605-0.862-1.253-1.217-1.929h1.024c0.056 0 0.101-0.046 0.101-0.102v-2.314h1.901v1.65h-0.527v-0.965c0-0.056-0.046-0.102-0.102-0.102h-0.664c-0.057 0-0.102 0.046-0.102 0.102v1.629c0 0.056 0.046 0.102 0.102 0.102h2.061c0.056 0 0.101-0.046 0.101-0.102v-2.977c0-0.056-0.046-0.102-0.101-0.102h-3.434c-0.057 0-0.102 0.046-0.102 0.102v2.314h-0.631c-0.087-0.192-0.172-0.386-0.25-0.583h0.273c0.057 0 0.102-0.046 0.102-0.102v-1.629c0-0.056-0.046-0.102-0.102-0.102h-0.852c-0.13-0.537-0.234-1.085-0.299-1.645l0.026-0.377c0.007-0.092 0.044-0.163 0.105-0.222 0.063-0.058 0.139-0.089 0.227-0.090l0.022 0.001 0.035 0.002 26.875-0.003c0.087 0.001 0.163 0.032 0.226 0.090s0.099 0.13 0.106 0.222l0.026 0.376c-0.066 0.561-0.17 1.108-0.3 1.646h-2.226c-0.056 0-0.101 0.046-0.101 0.102v2.314h-1.901v-1.65h0.528v0.966c0 0.056 0.046 0.102 0.101 0.102h0.664c0.057 0 0.102-0.046 0.102-0.102v-1.629c0-0.056-0.046-0.102-0.102-0.102h-2.060c-0.057 0-0.102 0.046-0.102 0.102v2.977c0 0.056 0.046 0.102 0.102 0.102h3.434c0.056 0 0.101-0.046 0.101-0.102v-2.314h1.249c-0.060 0.196-0.121 0.391-0.189 0.583h-0.453c-0.056 0-0.101 0.046-0.101 0.102v1.242c-0.43 0.903-0.949 1.755-1.556 2.539z"></path>
<path d="M15.224 16.475h-3.434c-0.056 0-0.101 0.046-0.101 0.102v2.314h-1.902v-1.65h0.528v0.966c0 0.056 0.046 0.102 0.101 0.102h0.665c0.056 0 0.101-0.046 0.101-0.102v-1.629c0-0.056-0.046-0.102-0.101-0.102h-2.061c-0.056 0-0.101 0.046-0.101 0.102v2.977c0 0.056 0.046 0.102 0.101 0.102h3.435c0.056 0 0.101-0.046 0.101-0.102v-2.314h1.901v1.65h-0.527v-0.965c0-0.056-0.046-0.102-0.102-0.102h-0.665c-0.056 0-0.101 0.046-0.101 0.102v1.629c0 0.056 0.046 0.102 0.101 0.102h2.061c0.057 0 0.102-0.046 0.102-0.102v-2.977c0-0.056-0.046-0.102-0.102-0.102z"></path>
<path d="M22.978 16.475h-3.434c-0.057 0-0.102 0.046-0.102 0.102v2.314h-1.901v-1.65h0.527v0.966c0 0.056 0.046 0.102 0.102 0.102h0.664c0.057 0 0.102-0.046 0.102-0.102v-1.629c0-0.056-0.046-0.102-0.102-0.102h-2.060c-0.057 0-0.102 0.046-0.102 0.102v2.977c0 0.056 0.046 0.102 0.102 0.102h3.434c0.057 0 0.102-0.046 0.102-0.102v-2.314h1.901v1.65h-0.528v-0.965c0-0.056-0.046-0.102-0.101-0.102h-0.665c-0.056 0-0.101 0.046-0.101 0.102v1.629c0 0.056 0.046 0.102 0.101 0.102h2.061c0.056 0 0.101-0.046 0.101-0.102v-2.977c0-0.056-0.046-0.102-0.101-0.102z"></path>
<path d="M9.072 5.6c0.262 0.592 0.378 1.009 0.383 1.461 0.006 0.448-0.099 0.913-0.205 1.319-0.225 0.815-0.398 1.402-0.181 1.551 0.199 0.14 0.749-0.159 1.353-0.977 0.29-0.413 0.603-0.978 0.726-1.738 0.139-0.758-0.067-1.676-0.383-2.351-0.311-0.69-0.562-1.162-0.661-1.597-0.109-0.43-0.104-0.862-0.062-1.266 0.096-0.807 0.235-1.408 0.004-1.538-0.205-0.12-0.749 0.211-1.246 1.139-0.238 0.462-0.443 1.13-0.381 1.902 0.052 0.774 0.396 1.516 0.652 2.096z"></path>
<path d="M15.272 5.6c0.262 0.592 0.378 1.009 0.382 1.461 0.007 0.448-0.098 0.913-0.204 1.319-0.225 0.815-0.398 1.402-0.181 1.551 0.199 0.14 0.749-0.159 1.353-0.977 0.29-0.413 0.603-0.978 0.725-1.738 0.139-0.758-0.067-1.676-0.383-2.351-0.31-0.69-0.561-1.162-0.66-1.597-0.109-0.43-0.104-0.862-0.062-1.266 0.096-0.807 0.235-1.408 0.003-1.538-0.205-0.12-0.748 0.211-1.246 1.139-0.237 0.462-0.442 1.13-0.38 1.902 0.052 0.774 0.396 1.516 0.652 2.096z"></path>
<path d="M21.47 5.6c0.263 0.592 0.379 1.009 0.383 1.461 0.006 0.448-0.098 0.913-0.204 1.319-0.225 0.815-0.398 1.402-0.182 1.551 0.2 0.14 0.75-0.159 1.354-0.977 0.29-0.413 0.603-0.978 0.725-1.738 0.139-0.758-0.067-1.676-0.383-2.351-0.31-0.69-0.561-1.162-0.66-1.597-0.109-0.43-0.104-0.862-0.062-1.266 0.096-0.807 0.235-1.408 0.003-1.538-0.205-0.12-0.748 0.211-1.246 1.139-0.238 0.462-0.442 1.13-0.38 1.902 0.052 0.774 0.396 1.516 0.651 2.096z"></path>
</symbol>
<symbol id="icon-100" viewBox="0 0 32 32">
<path d="M17.409 13.778l-0.655 0.277-0.703 0.971 3.768 1.298-0.995 1.376-3.769-1.299-1.509 2.084-2.342-0.809 1.51-2.083-3.768-1.298 0.996-1.37 3.768 1.295 0.703-0.97-0.076-0.529-3.396-1.17 0.852-1.174 2.337 0.805-0.393-2.879 1.979 0.68 0.516 3.771 4.686-1.982 1.981 0.681-3.576 1.517 2.338 0.804-0.85 1.177z"></path>
<path d="M16 3.444c-8.836 0-16 4.517-16 10.089v4.934c0 5.573 7.164 10.089 16 10.089s16-4.516 16-10.089v-4.934c0-5.572-7.164-10.089-16-10.089zM16 5.608c7.5 0 13.836 3.629 13.836 7.925s-6.336 7.924-13.836 7.924-13.836-3.629-13.836-7.924c0-4.296 6.336-7.925 13.836-7.925z"></path>
</symbol>
<symbol id="icon-kaisendon" viewBox="0 0 32 32">
<path d="M1.933 28.76h28.136v-2.387l-28.136 0.564z"></path>
<path d="M1.933 31.228l28.136 0.565v-2.388h-28.136z"></path>
<path d="M9.568 21.292v1.376c0 1.428 2.88 2.586 6.432 2.586s6.432-1.158 6.432-2.586v-1.376c5.634-2.476 9.568-8.104 9.568-14.653 0-3.552-7.163-6.432-16-6.432-8.836 0-16 2.88-16 6.432 0 6.549 3.936 12.178 9.568 14.653zM2.614 6.639c0-0.14 0.562-1.124 3.047-2.122 2.681-1.077 6.448-1.695 10.339-1.695s7.658 0.618 10.34 1.695c2.484 0.998 3.046 1.982 3.046 2.122s-0.561 1.123-3.046 2.122c-2.682 1.077-6.449 1.695-10.34 1.695s-7.658-0.618-10.339-1.695c-2.485-0.999-3.047-1.982-3.047-2.122z"></path>
</symbol>
<symbol id="icon-surfing" viewBox="0 0 32 32">
<path d="M8.812 18.291c-0.014-0.005-0.6-0.183-1.43-0.362-0.832-0.179-1.903-0.362-2.925-0.364-0.513 0.001-1.015 0.045-1.489 0.182-0.469 0.136-0.936 0.376-1.267 0.814l-0.074 0.099-0.039 0.117c-0.098 0.294-0.144 0.605-0.144 0.919 0.002 0.792 0.281 1.597 0.764 2.411 0.728 1.22 1.933 2.476 3.589 3.697 1.656 1.219 3.766 2.397 6.311 3.415 4.6 1.835 10.032 2.776 13.735 2.78 1.166-0.002 2.161-0.091 2.952-0.304 0.396-0.109 0.746-0.247 1.054-0.46 0.154-0.107 0.297-0.236 0.417-0.398 0.12-0.16 0.213-0.357 0.255-0.567l0.037-0.186-0.054-0.182c-0.203-0.66-0.627-1.29-1.202-1.951-0.864-0.985-2.089-2.014-3.527-2.966-1.438-0.95-3.087-1.818-4.796-2.445l-0.523 1.427c2.105 0.77 4.169 1.968 5.75 3.193 0.79 0.611 1.461 1.23 1.953 1.793 0.494 0.558 0.8 1.072 0.889 1.386l0.728-0.218-0.612-0.123-0.123-0.056-0.009 0.030 0.132 0.026-0.123-0.056 0.052 0.023-0.047-0.034-0.005 0.010 0.052 0.023-0.047-0.034c0.001 0.002-0.059 0.069-0.21 0.14-0.223 0.11-0.621 0.223-1.134 0.295-0.514 0.074-1.145 0.113-1.858 0.112-3.455 0.005-8.797-0.917-13.171-2.671-3.251-1.299-5.724-2.863-7.354-4.355-0.815-0.745-1.418-1.473-1.804-2.124-0.389-0.651-0.553-1.218-0.551-1.634 0-0.167 0.024-0.31 0.067-0.438l-0.721-0.24 0.608 0.456c0.058-0.081 0.2-0.188 0.475-0.268 0.27-0.079 0.647-0.122 1.065-0.121 0.838-0.001 1.835 0.162 2.605 0.329 0.386 0.083 0.716 0.167 0.948 0.229 0.116 0.031 0.208 0.057 0.269 0.075l0.070 0.021 0.021 0.006 0.443-1.453z"></path>
<path d="M21.195 2.338c0 1.291-1.047 2.338-2.338 2.338s-2.338-1.047-2.338-2.338c0-1.291 1.047-2.338 2.338-2.338s2.338 1.047 2.338 2.338z"></path>
<path d="M29.124 12.864l-1.495-3.459c-0.255-0.538-0.694-0.967-1.238-1.209l-2.78-1.235c-1.326-0.589-2.785-0.819-4.229-0.667l-2.113 0.223c-0.818 0.086-1.621 0.294-2.377 0.617l-2.802 1.193-3.285-0.779c-0.57-0.116-1.125 0.252-1.241 0.822-0.116 0.57 0.255 1.065 0.822 1.241l3.061 1.027c0.579 0.176 1.195 0.183 1.777 0.018l3.256-0.842 0.584 2.776-3.934 1.746c-0.844 0.312-1.501 0.987-1.791 1.838l-1.913 5.632c-0.211 0.695 0.18 1.43 0.875 1.641s1.349-0.145 1.641-0.875l2.264-5.479 3.86-1.629c0.128-0.054 0.275-0.023 0.37 0.078s0.118 0.249 0.057 0.373l-1.146 2.347-0.767 5.511c-0.103 0.719 0.396 1.386 1.115 1.489s1.307-0.279 1.488-1.116l1.012-5.299 2.125-2.895c0.833-1.133 1.146-2.566 0.863-3.944l-0.578-2.804 2.727 1.12 1.873 3.41c0.241 0.53 0.864 0.764 1.394 0.523s0.764-0.864 0.523-1.393z"></path>
</symbol>
<symbol id="icon-camp" viewBox="0 0 32 32">
<path d="M28.9 17.782c-1.218-1.727-2.275-3.607-3.147-5.352-1.283-2.566-2.164-4.832-2.544-5.861-1.632 0.208-3.186 0.3-4.625 0.301-4.411-0.001-7.793-0.794-9.438-1.274 2.279 11.026 8.667 18.935 10.298 20.809l12.557-5.047c-1.13-1.012-2.163-2.247-3.1-3.575z"></path>
<path d="M6.652 11.217c-1.488 3.475-3.691 7.857-6.652 11.904l5.441 0.942 2.113-7.208c0 0 1.15 4.728 3.578 4.983l0.076 3.222 6.454 1.117c-2.318-2.883-7.191-9.753-9.418-19.008-0.388 1.084-0.915 2.469-1.59 4.046z"></path>
</symbol>
<symbol id="icon-shop" viewBox="0 0 32 32">
<path d="M18.347 20.489l-0.050-0.037c-0.112-0.106-0.682-0.396-1.104-0.322-0.084 0.005-0.118 0.063-0.033 0.209 0.251 0.43 0.423 0.789 0.445 1.116 0.017 0.246 0.157 0.23 0.204 0.193 0.049-0.040 0.168-0.183 0.268-0.305 0.147 0.165 0.256 0.358 0.32 0.574 0.113 0.384 0.070 0.79-0.123 1.143s-0.509 0.609-0.894 0.722c-0.384 0.113-0.79 0.070-1.142-0.122-0.352-0.193-0.609-0.51-0.722-0.894l-1.003-3.401c0.081-0.072 0.149-0.157 0.2-0.25 0.116-0.212 0.15-0.471 0.077-0.72s-0.243-0.449-0.455-0.564c-0.212-0.115-0.471-0.151-0.72-0.077s-0.448 0.244-0.563 0.455c-0.116 0.211-0.151 0.47-0.077 0.72 0.073 0.25 0.243 0.449 0.455 0.564 0.094 0.051 0.197 0.086 0.304 0.103l1.003 3.401c0.113 0.384 0.070 0.79-0.122 1.143-0.192 0.352-0.51 0.609-0.894 0.722s-0.79 0.070-1.142-0.122c-0.353-0.192-0.609-0.51-0.722-0.893-0.063-0.216-0.077-0.439-0.043-0.656 0.15 0.049 0.328 0.105 0.39 0.111 0.059 0.006 0.185-0.057 0.067-0.273-0.158-0.287-0.209-0.682-0.231-1.179-0.007-0.168-0.067-0.198-0.141-0.157-0.394 0.166-0.715 0.72-0.753 0.869l-0.022 0.059c-0.174 0.47-0.19 0.974-0.048 1.456 0.175 0.594 0.57 1.084 1.113 1.378 0.542 0.296 1.167 0.363 1.762 0.188l0.001-0c0.593-0.175 1.082-0.57 1.378-1.113 0.069-0.126 0.124-0.257 0.167-0.39 0.11 0.089 0.227 0.169 0.353 0.237 0.542 0.296 1.168 0.363 1.761 0.188h0.001c0.594-0.175 1.084-0.57 1.379-1.114 0.296-0.543 0.362-1.168 0.187-1.761-0.142-0.483-0.429-0.896-0.831-1.198zM14.11 18.784c-0.033 0.059-0.084 0.104-0.154 0.125-0.069 0.020-0.137 0.011-0.196-0.021-0.059-0.033-0.104-0.085-0.124-0.154s-0.011-0.137 0.021-0.197c0.032-0.058 0.084-0.103 0.153-0.124s0.137-0.011 0.197 0.021c0.058 0.032 0.103 0.084 0.124 0.153s0.011 0.137-0.021 0.197z"></path>
<path d="M31.448 16.182l-0.041-0.049c-0.088-0.132-0.589-0.556-1.027-0.582-0.085-0.013-0.133 0.036-0.082 0.201 0.151 0.488 0.237 0.887 0.183 1.219-0.041 0.25 0.102 0.267 0.158 0.24 0.058-0.028 0.211-0.143 0.339-0.242 0.108 0.199 0.172 0.418 0.184 0.649 0.023 0.41-0.116 0.805-0.39 1.113-0.275 0.306-0.652 0.488-1.063 0.511-0.41 0.023-0.805-0.116-1.112-0.39s-0.488-0.652-0.511-1.062l-0.202-3.633c0.098-0.053 0.186-0.121 0.259-0.203 0.165-0.184 0.26-0.434 0.245-0.701s-0.137-0.506-0.322-0.67c-0.184-0.165-0.435-0.261-0.701-0.246-0.266 0.014-0.506 0.137-0.67 0.322s-0.261 0.435-0.246 0.701c0.014 0.267 0.137 0.505 0.322 0.67 0.082 0.073 0.177 0.131 0.279 0.173l0.202 3.632c0.023 0.41-0.116 0.806-0.39 1.113s-0.652 0.488-1.062 0.511c-0.411 0.023-0.806-0.116-1.113-0.39-0.307-0.275-0.488-0.652-0.511-1.063-0.013-0.23 0.026-0.455 0.111-0.665 0.139 0.084 0.303 0.182 0.363 0.203 0.058 0.021 0.199-0.012 0.131-0.256-0.091-0.324-0.049-0.731 0.047-1.232 0.032-0.169-0.021-0.213-0.104-0.19-0.432 0.073-0.883 0.55-0.956 0.691l-0.035 0.053c-0.284 0.429-0.419 0.928-0.39 1.443 0.035 0.634 0.315 1.215 0.788 1.638 0.472 0.423 1.082 0.637 1.715 0.601h0.001c0.634-0.035 1.215-0.315 1.637-0.788 0.099-0.11 0.184-0.227 0.259-0.351 0.089 0.114 0.188 0.222 0.297 0.32 0.472 0.423 1.081 0.636 1.715 0.601h0.001c0.634-0.035 1.216-0.314 1.638-0.788 0.422-0.472 0.636-1.081 0.601-1.715-0.029-0.516-0.218-0.996-0.548-1.391zM27.617 13.483c-0.047 0.051-0.109 0.083-0.183 0.088s-0.14-0.022-0.191-0.067c-0.051-0.046-0.084-0.108-0.088-0.183s0.021-0.139 0.067-0.191c0.047-0.051 0.108-0.084 0.183-0.088s0.14 0.021 0.191 0.067c0.051 0.046 0.084 0.109 0.088 0.183 0.004 0.075-0.022 0.139-0.067 0.191z"></path>
<path d="M7.563 11.18c0 0.488-0.396 0.884-0.884 0.884s-0.884-0.396-0.884-0.884c0-0.488 0.396-0.884 0.884-0.884s0.884 0.396 0.884 0.884z"></path>
<path d="M18.79 15.304c1.774-0.845 5.908-0.971 6.288-1.056 0.38-0.084 0.76-1.901 0.295-2.323-3.463-3.548-9.836-6.293-15.707-5.534-4.746 0.615-7.005 3.707-7.543 5.41-0.005-0.005-0.010-0.011-0.015-0.016-0.222-0.223-0.533-0.361-0.873-0.361s-0.651 0.139-0.874 0.361c-0.223 0.223-0.362 0.534-0.362 0.874s0.139 0.65 0.362 0.873c0.223 0.223 0.533 0.362 0.874 0.362s0.651-0.139 0.873-0.362c0.054-0.053 0.101-0.111 0.144-0.174 0.249 0.55 0.602 1.043 1.033 1.483l-2.28 2.646c-0.239 0.279-0.207 0.699 0.072 0.938s0.699 0.206 0.938-0.073l2.291-2.659c2.078 1.436 5.079 2.059 7.429 1.976 2.152-0.076 5.28-1.521 7.054-2.366zM1.706 13.129c-0.121 0.121-0.286 0.195-0.47 0.195s-0.349-0.074-0.47-0.195c-0.121-0.122-0.195-0.285-0.195-0.47s0.074-0.349 0.195-0.471c0.121-0.12 0.286-0.194 0.47-0.195 0.184 0.001 0.349 0.075 0.47 0.195 0.121 0.121 0.195 0.286 0.195 0.471s-0.074 0.349-0.195 0.47zM21.731 11.19c0.254 0 0.459 0.206 0.459 0.459s-0.206 0.46-0.459 0.46c-0.254 0-0.459-0.206-0.459-0.46s0.206-0.459 0.459-0.459zM18.98 9.048c0.27 0 0.49 0.219 0.49 0.49s-0.219 0.49-0.49 0.49c-0.27 0-0.49-0.219-0.49-0.49s0.219-0.49 0.49-0.49zM15.476 9.5c0.375 0 0.678 0.304 0.678 0.678s-0.304 0.678-0.678 0.678c-0.375 0-0.678-0.304-0.678-0.678s0.304-0.678 0.678-0.678zM12.612 7.54c0.333 0 0.603 0.27 0.603 0.603s-0.27 0.603-0.603 0.603c-0.333 0-0.603-0.27-0.603-0.603s0.27-0.603 0.603-0.603zM10.586 10.636c0.351 0.048 0.597 0.37 0.55 0.72s-0.369 0.597-0.72 0.55c-0.351-0.047-0.597-0.369-0.55-0.72s0.369-0.597 0.72-0.55zM6.679 9.374c0.997 0 1.806 0.808 1.806 1.806s-0.809 1.805-1.806 1.805c-0.997 0-1.806-0.808-1.806-1.805s0.809-1.806 1.806-1.806zM11.318 16.916c-2.761 0-5.923-0.936-7.572-2.7 1.607 0.33 3.698 0.326 6.158 0.14 0.081 1.041 0.403 1.82 0.788 1.82 0.403 0 0.736-0.849 0.797-1.959 0.678-0.067 1.379-0.143 2.101-0.227 0.048-0.005 0.095-0.012 0.143-0.017 0.112 0.896 0.41 1.537 0.76 1.537 0.376 0 0.691-0.739 0.782-1.739 0.592-0.082 1.185-0.168 1.777-0.25 0.145 0.626 0.392 1.039 0.673 1.039 0.307 0 0.574-0.495 0.711-1.222 2.209-0.272 4.368-0.412 6.315-0.033-0.018 0.081-0.040 0.157-0.063 0.222-0.115 0.009-0.256 0.020-0.387 0.031-1.402 0.11-4.322 0.338-5.837 1.059-1.394 0.664-4.658 2.218-6.754 2.292-0.128 0.005-0.26 0.007-0.392 0.007z"></path>
</symbol>
<symbol id="icon-parking" viewBox="0 0 32 32">
<path d="M31.27 13.229l-2.127-3.384c-0.719-1.144-1.976-1.838-3.326-1.838h-9.902c-1.666 0-3.262 0.67-4.428 1.859l-2.826 2.882-6.74 1.56c-1.125 0.261-1.921 1.263-1.921 2.418v2.647c0 0.57 0.463 1.034 1.034 1.034h3.583c-0.005 0.071-0.012 0.142-0.012 0.214 0 1.863 1.51 3.372 3.374 3.372 1.862 0 3.372-1.51 3.372-3.372 0-0.072-0.007-0.143-0.012-0.214h10.604c-0.005 0.071-0.012 0.142-0.012 0.214 0 1.863 1.51 3.372 3.372 3.372 1.863 0 3.372-1.51 3.372-3.372 0-0.072-0.006-0.143-0.010-0.214h2.299c0.571 0 1.034-0.463 1.034-1.034v-3.613c-0-0.896-0.253-1.772-0.73-2.531zM7.979 21.964c-0.742 0-1.343-0.603-1.343-1.344s0.601-1.343 1.343-1.343c0.741 0 1.343 0.602 1.343 1.343s-0.602 1.344-1.343 1.344zM16.508 13.485h-6.074l2.325-2.371c0.826-0.842 1.977-1.325 3.157-1.325h0.593v3.695zM23.437 13.485h-5.371v-3.696h5.371v3.695zM25.305 21.964c-0.741 0-1.343-0.603-1.343-1.344s0.602-1.343 1.343-1.343c0.742 0 1.343 0.602 1.343 1.343s-0.601 1.344-1.343 1.344zM24.997 13.485v-3.696h0.821c0.742 0 1.422 0.375 1.817 1.004l1.691 2.691h-4.329z"></path>
</symbol>
<symbol id="icon-shop2" viewBox="0 0 32 32">
<path d="M9.203 12.988c1.329 0 2.405-1.077 2.405-2.405l0.878-9.203h-3.848l-1.841 9.203c0 1.328 1.077 2.405 2.405 2.405z"></path>
<path d="M16 12.988c1.328 0 2.405-1.077 2.405-2.405l-0.481-9.203h-3.848l-0.481 9.203c-0 1.328 1.077 2.405 2.405 2.405z"></path>
<path d="M22.798 12.988c1.328 0 2.405-1.077 2.405-2.405l-1.84-9.203h-3.848l0.878 9.203c0 1.328 1.077 2.405 2.405 2.405z"></path>
<path d="M28.8 1.379h-3.848l2.238 9.203c0 1.124 0.774 2.061 1.817 2.324v15.702h-3.625v-10.624h-9.144v10.624h-13.245v-15.702c1.042-0.264 1.817-1.2 1.817-2.324l2.238-9.203h-3.848l-3.2 9.203c0 0.793 0.389 1.491 0.981 1.929v18.109h30.038v-18.109c0.592-0.438 0.981-1.136 0.981-1.929l-3.2-9.203zM23.873 28.608h-6.125v-9.115h6.125v9.115z"></path>
</symbol>
</defs>
</svg>
