<svg xmlns="http://www.w3.org/2000/svg">
<defs>
<symbol id="spot" viewBox="0 0 24 24">
<path d="M191.155,435.661c-34.797-13.12-70.793-26.638-112.308-26.638c-20.561,0-40.714,3.281-61.353,9.999v25.837
		c0,3.602,3.437,6.16,6.878,5.203c62.873-17.76,103.669-23.842,216.536,19.435v-16.878l-6.796-1.999
		C219.871,446.46,205.95,441.179,191.155,435.661z"/>
<path d="M204.193,127.221v0.074c-0.054-0.028-0.102-0.051-0.16-0.074v63.669l-0.043,16.916l-57.282-15.986v-79.96
		c-10.558-1.422-21.861-2.324-34.106-2.324c-31.997,0-69.59,5.679-112.547,21.357v200.245L0,399.512
		c0.019-0.004,0.035-0.012,0.054-0.016v0.168c5.918-2.16,11.761-4.078,17.44-5.679c21.755-6.319,42.151-8.959,61.353-8.959
		c64.071,0,115.026,28.719,162.061,42.558V200.729v-52.397c0,0-10.066-8.597-29.302-17.698
		C209.251,129.498,206.814,128.358,204.193,127.221z"/>
<path d="M320.899,435.661c-14.795,5.518-28.715,10.799-42.956,14.959l-6.796,1.999v16.878
		c112.866-43.277,153.663-37.195,216.535-19.435c3.441,0.957,6.878-1.602,6.878-5.203v-25.837
		c-20.638-6.718-40.793-9.999-61.353-9.999C391.693,409.022,355.696,422.541,320.899,435.661z"/>
	<path d="M399.454,109.535c-83.593,0-128.306,38.797-128.306,38.797v52.397v226.854
		c47.034-13.838,97.989-42.558,162.061-42.558c19.201,0,39.597,2.64,61.353,8.959c4.823,1.36,9.776,2.988,14.779,4.762
		c0.836,0.32,1.66,0.578,2.5,0.918v-0.054c0.054,0.019,0.106,0.035,0.16,0.054V130.892
		C469.044,115.214,431.45,109.535,399.454,109.535z"/>
	<path d="M204.033,58.502L159.1,45.964l-12.233-3.461v0.047l-0.16-0.047v69.356
		c23.349,3.144,42.514,9.101,57.326,15.362V58.502z"/>
  </symbol>

  <symbol id="shop" viewBox="0 0 24 24">
<path d="M293.546,327.831l-0.799-0.591c-1.796-1.69-10.918-6.332-17.659-5.148c-1.344,0.084-1.886,1.014-0.525,3.339
		c4.02,6.872,6.764,12.621,7.127,17.854c0.279,3.931,2.519,3.686,3.259,3.085c0.777-0.642,2.692-2.924,4.281-4.886
		c2.355,2.638,4.104,5.732,5.123,9.18c1.813,6.146,1.12,12.647-1.962,18.286c-3.069,5.639-8.141,9.738-14.299,11.556
		c-6.142,1.809-12.639,1.116-18.278-1.953c-5.638-3.085-9.739-8.158-11.552-14.304l-16.042-54.417
		c1.298-1.158,2.388-2.519,3.196-4.006c1.851-3.39,2.405-7.533,1.226-11.523c-1.176-3.998-3.888-7.186-7.275-9.02
		c-3.386-1.843-7.532-2.409-11.526-1.226c-3.99,1.175-7.173,3.897-9.012,7.278c-1.856,3.382-2.409,7.524-1.23,11.514
		c1.17,4.007,3.888,7.186,7.278,9.02c1.501,0.82,3.149,1.37,4.86,1.648l16.042,54.409c1.808,6.145,1.12,12.638-1.957,18.285
		c-3.069,5.63-8.154,9.739-14.3,11.556c-6.15,1.809-12.638,1.117-18.277-1.952c-5.643-3.077-9.739-8.158-11.557-14.296
		c-1.014-3.449-1.226-7.017-0.68-10.5c2.406,0.786,5.25,1.674,6.248,1.784c0.952,0.101,2.963-0.905,1.066-4.371
		c-2.532-4.591-3.348-10.906-3.699-18.86c-0.119-2.68-1.069-3.17-2.252-2.52c-6.299,2.664-11.438,11.514-12.043,13.907l-0.35,0.938
		c-2.782,7.516-3.047,15.58-0.77,23.29c2.798,9.502,9.118,17.339,17.808,22.056c8.678,4.742,18.678,5.808,28.189,3.001l0.013-0.008
		c9.485-2.799,17.318-9.122,22.043-17.804c1.098-2.012,1.982-4.108,2.679-6.247c1.755,1.42,3.632,2.697,5.643,3.795
		c8.678,4.743,18.692,5.808,28.181,3.01h0.009c9.497-2.807,17.338-9.122,22.064-17.821c4.73-8.682,5.799-18.691,2.997-28.176
		C304.562,339.269,299.967,332.65,293.546,327.831z M225.752,300.551c-0.52,0.938-1.344,1.657-2.46,1.995
		c-1.112,0.322-2.198,0.17-3.141-0.338c-0.942-0.525-1.661-1.361-1.986-2.469c-0.326-1.099-0.178-2.19,0.338-3.145
		c0.515-0.93,1.343-1.648,2.452-1.978c1.116-0.321,2.194-0.169,3.148,0.338c0.935,0.516,1.653,1.344,1.986,2.452
		C226.408,298.523,226.26,299.605,225.752,300.551z"/>
	<path d="M503.173,258.908l-0.659-0.778c-1.412-2.114-9.418-8.902-16.434-9.307c-1.361-0.212-2.122,0.583-1.31,3.221
		c2.409,7.811,3.795,14.194,2.933,19.502c-0.651,4.007,1.64,4.278,2.528,3.846c0.922-0.448,3.381-2.282,5.428-3.871
		c1.733,3.178,2.748,6.686,2.95,10.381c0.363,6.56-1.852,12.884-6.239,17.803c-4.396,4.895-10.432,7.812-17.01,8.175
		c-6.56,0.364-12.883-1.86-17.794-6.247c-4.912-4.396-7.812-10.432-8.175-16.992l-3.238-58.128c1.564-0.845,2.976-1.944,4.142-3.254
		c2.638-2.942,4.16-6.941,3.923-11.21c-0.228-4.268-2.19-8.09-5.149-10.718c-2.942-2.646-6.958-4.177-11.218-3.931
		c-4.26,0.228-8.09,2.198-10.718,5.148c-2.638,2.941-4.177,6.957-3.931,11.218c0.228,4.277,2.198,8.082,5.148,10.719
		c1.31,1.166,2.832,2.097,4.472,2.773l3.229,58.119c0.372,6.561-1.851,12.892-6.239,17.804c-4.396,4.903-10.432,7.811-16.992,8.174
		c-6.576,0.364-12.892-1.86-17.803-6.239c-4.912-4.404-7.811-10.44-8.183-17.008c-0.203-3.686,0.422-7.278,1.783-10.635
		c2.224,1.352,4.853,2.908,5.816,3.246c0.93,0.329,3.179-0.195,2.097-4.101c-1.454-5.182-0.777-11.692,0.744-19.714
		c0.516-2.705-0.329-3.415-1.665-3.035c-6.916,1.167-14.135,8.8-15.293,11.049l-0.567,0.854c-4.548,6.864-6.712,14.844-6.248,23.087
		c0.567,10.136,5.039,19.444,12.605,26.206c7.55,6.772,17.305,10.187,27.441,9.621h0.017c10.136-0.567,19.435-5.047,26.198-12.605
		c1.582-1.758,2.951-3.635,4.143-5.613c1.42,1.826,3,3.55,4.751,5.123c7.557,6.762,17.296,10.178,27.441,9.612h0.017
		c10.144-0.558,19.451-5.03,26.215-12.604c6.755-7.55,10.178-17.297,9.611-27.433C511.483,272.916,508.457,265.232,503.173,258.908z
		 M441.876,215.727c-0.752,0.811-1.742,1.335-2.925,1.403c-1.192,0.068-2.24-0.347-3.06-1.066c-0.821-0.744-1.344-1.733-1.403-2.925
		c-0.068-1.183,0.33-2.232,1.065-3.06c0.744-0.811,1.733-1.336,2.925-1.403c1.184-0.059,2.232,0.338,3.06,1.065
		c0.812,0.744,1.336,1.75,1.404,2.925C443,213.858,442.594,214.898,441.876,215.727z"/>
	<circle cx="106.872" cy="178.886" r="14.143"/>
	<path d="M300.647,244.859c28.388-13.518,94.529-15.538,100.608-16.9c6.086-1.344,12.165-30.408,4.726-37.17
		c-55.406-56.767-157.37-100.692-251.312-88.536c-75.935,9.84-112.087,59.32-120.685,86.566c-0.084-0.085-0.156-0.178-0.24-0.262
		c-3.559-3.56-8.534-5.783-13.974-5.783c-5.448,0-10.415,2.223-13.982,5.783c-3.563,3.567-5.79,8.538-5.786,13.982
		c-0.004,5.444,2.223,10.407,5.786,13.974c3.568,3.567,8.535,5.79,13.982,5.79c5.44,0,10.416-2.223,13.974-5.79
		c0.858-0.846,1.623-1.784,2.312-2.782c3.986,8.792,9.638,16.688,16.532,23.721L16.1,279.789c-3.825,4.464-3.31,11.184,1.158,15.014
		c4.459,3.821,11.18,3.298,15.005-1.166l36.66-42.539c33.24,22.968,81.261,32.944,118.863,31.609
		C222.226,281.497,272.264,258.376,300.647,244.859z M27.293,210.063c-1.94,1.936-4.574,3.119-7.524,3.119
		c-2.958,0-5.584-1.183-7.528-3.119c-1.936-1.945-3.114-4.566-3.114-7.524s1.179-5.588,3.114-7.532
		c1.944-1.919,4.57-3.111,7.528-3.12c2.951,0.009,5.584,1.201,7.524,3.12c1.931,1.944,3.119,4.573,3.119,7.532
		S29.224,208.118,27.293,210.063z M347.701,179.038c4.057,0,7.346,3.288,7.346,7.337c0,4.058-3.289,7.354-7.346,7.354
		c-4.058,0-7.347-3.296-7.347-7.354C340.354,182.327,343.643,179.038,347.701,179.038z M303.687,144.775
		c4.328,0,7.837,3.508,7.837,7.836c0,4.328-3.509,7.837-7.837,7.837c-4.328,0-7.837-3.508-7.837-7.837
		C295.85,148.283,299.358,144.775,303.687,144.775z M247.614,152.003c5.993,0,10.854,4.861,10.854,10.854
		c0,5.994-4.862,10.854-10.854,10.854c-5.994,0-10.855-4.86-10.855-10.854C236.759,156.863,241.62,152.003,247.614,152.003z
		 M201.786,120.648c5.33,0,9.65,4.32,9.65,9.645c0,5.334-4.321,9.646-9.65,9.646c-5.326,0-9.645-4.312-9.645-9.646
		C192.14,124.968,196.46,120.648,201.786,120.648z M169.383,170.178c5.618,0.761,9.553,5.918,8.804,11.523
		c-0.752,5.613-5.905,9.544-11.518,8.792c-5.61-0.752-9.549-5.9-8.8-11.514C158.621,173.374,163.778,169.434,169.383,170.178z
		 M106.872,149.991c15.956,0,28.895,12.934,28.895,28.895c0,15.952-12.939,28.886-28.895,28.886
		c-15.957,0-28.895-12.934-28.895-28.886C77.977,162.925,90.915,149.991,106.872,149.991z M181.082,270.659
		c-44.17,0-94.774-14.972-121.154-43.208c25.716,5.275,59.164,5.216,98.524,2.24c1.289,16.654,6.446,29.115,12.608,29.115
		c6.441,0,11.78-13.585,12.76-31.346c10.847-1.065,22.06-2.283,33.616-3.635c0.765-0.085,1.526-0.186,2.291-0.271
		c1.792,14.338,6.56,24.6,12.156,24.6c6.01,0,11.057-11.818,12.507-27.829c9.468-1.311,18.957-2.68,28.43-3.999
		c2.316,10.018,6.268,16.629,10.77,16.629c4.908,0,9.177-7.922,11.37-19.545c35.341-4.346,69.887-6.594,101.035-0.524
		c-0.296,1.302-0.642,2.519-1.006,3.551c-1.843,0.152-4.092,0.321-6.188,0.49c-22.44,1.758-69.147,5.41-93.384,16.95
		c-22.3,10.618-74.528,35.489-108.064,36.673C185.305,270.625,183.196,270.659,181.082,270.659z"/>
  </symbol>


<symbol id="shop2" viewBox="0 0 24 24">
<path d="M354.658,92.82c-4.356,0.027-8.114,1.715-10.986,4.558c-2.851,2.872-4.552,6.637-4.559,10.986
		c0.007,4.363,1.708,8.113,4.559,10.985c2.872,2.844,6.629,4.544,10.986,4.572c4.364-0.028,8.107-1.729,10.992-4.572
		c2.83-2.872,4.531-6.622,4.545-10.985c-0.014-4.35-1.715-8.114-4.545-10.986C362.765,94.535,359.021,92.847,354.658,92.82z"/>
	<path d="M431.327,31.772C411.168,11.572,383.23,0,354.658,0c-28.544,0-56.482,11.572-76.55,31.646
		c-20.249,20.158-31.848,48.139-31.827,76.676c-0.021,28.594,11.564,56.573,31.688,76.62c0.265,0.266,0.537,0.53,0.808,0.809v135.45
		c-0.007,10.568-3.973,20.131-11.397,27.576c-7.521,7.5-17.071,11.474-27.624,11.474c-10.554,0-20.11-3.973-27.555-11.404
		c-2.237-2.246-4.154-4.657-5.75-7.236c7.479-3.666,14.164-8.964,19.552-15.669c6.936-8.617,17.635-27.339,11.376-55.89
		c-2.649-12.03,4.182-39.592,6.42-48.64c6.531-26.334-1.645-44.068-9.654-54.315c-10.525-13.439-26.488-21.148-43.796-21.148
		c-3.206,0-6.455,0.264-9.689,0.794c-41.112,5.59-78.522,38.812-92.15,58.135l-1.757,2.342
		c-24.731,33.151-37.8,72.576-37.78,113.995c-0.02,50.997,19.832,98.912,55.842,134.881C140.823,492.147,188.745,512,239.756,512
		h0.035c50.982,0,98.891-19.853,134.845-55.848c36.066-36.01,55.918-83.925,55.897-134.922V185.752
		c0.237-0.238,0.474-0.475,0.704-0.712c20.214-20.158,31.806-48.11,31.792-76.647C463.042,79.771,451.443,51.805,431.327,31.772z
		 M394.947,148.654c-4.531,4.545-9.905,8.281-15.809,11.084V321.23c0.014,37.251-14.478,72.256-40.812,98.549
		c-26.3,26.334-61.292,40.834-98.535,40.834h-0.035c-37.286,0-72.278-14.5-98.578-40.834
		c-26.327-26.293-40.826-61.298-40.813-98.549c-0.013-30.28,9.515-59.068,27.576-83.27l2.258-3.012
		c4.712-8.002,32.698-34.49,58.273-37.389c4.956-1.088,7.877,1.673,5.444,11.488c-7.208,29.095-10.978,52.753-6.734,72.048
		c3.186,14.526-5.165,15.99-8.476,14.596c-3.485-1.449-12.826-7.668-20.668-13.062c-5.681,11.989-8.692,25.052-8.706,38.603
		c0.014,24.104,9.417,46.814,26.488,63.919c17.099,17.064,39.802,26.488,63.934,26.488c24.111,0,46.828-9.425,63.926-26.488
		c17.071-17.105,26.474-39.815,26.488-63.919V159.764c-5.897-2.83-11.278-6.566-15.81-11.111
		c-10.281-10.247-16.701-24.606-16.687-40.289c-0.014-15.67,6.406-30.057,16.687-40.29c10.254-10.261,24.627-16.688,40.297-16.688
		c15.663,0,30.05,6.427,40.29,16.688c10.275,10.233,16.694,24.62,16.688,40.29C411.642,124.048,405.222,138.406,394.947,148.654z"/>
  </symbol>

<symbol id="shop2" viewBox="0 0 24 24">
	<path d="M147.244,207.801c21.256,0,38.485-17.237,38.485-38.485l14.052-147.244h-61.569l-29.454,147.244
		C108.759,190.564,125.988,207.801,147.244,207.801z"/>
	<path d="M256.004,207.801c21.248,0,38.477-17.237,38.477-38.485l-7.689-147.244h-61.576l-7.697,147.244
		C217.518,190.564,234.748,207.801,256.004,207.801z"/>
	<path d="M364.763,207.801c21.249,0,38.478-17.237,38.478-38.485L373.794,22.071h-61.568l14.052,147.244
		C326.278,190.564,343.507,207.801,364.763,207.801z"/>
	<path d="M460.798,22.071h-61.569l35.808,147.244c0,17.988,12.391,32.972,29.075,37.188V457.73h-57.997V287.744H259.818
		V457.73H47.896V206.504c16.675-4.216,29.074-19.201,29.074-37.188l35.801-147.244H51.202L0,169.316
		c0,12.687,6.218,23.85,15.698,30.864v289.75H496.31v-289.75c9.471-7.014,15.69-18.177,15.69-30.864L460.798,22.071z
		 M381.969,457.73h-98.006V311.896h98.006V457.73z"/>
  </symbol>

<symbol id="100yen" viewBox="0 0 24 24">
	<polygon points="278.547,220.453 268.063,224.891 256.813,240.422 317.109,261.188 303.438,280.094 301.188,283.203 
		240.891,262.422 216.75,295.766 179.281,282.828 203.438,249.5 143.156,228.734 145.406,225.641 159.094,206.813 219.375,227.531 
		230.625,212.016 229.406,203.547 175.063,184.828 188.703,166.047 226.094,178.922 219.813,132.859 251.469,143.734 
		259.719,204.063 334.703,172.344 366.406,183.234 309.188,207.5 346.594,220.359 333,239.188 	"/>
	<path d="M256,55.109c-141.375,0-256,72.266-256,161.422v78.938c0,89.172,114.625,161.422,256,161.422
		s256-72.25,256-161.422v-78.938C512,127.375,397.375,55.109,256,55.109z M256,89.734c120,0,221.375,58.063,221.375,126.797
		C477.375,285.25,376,343.313,256,343.313S34.625,285.25,34.625,216.531C34.625,147.797,136,89.734,256,89.734z"/>
  </symbol>

<symbol id="surfing" viewBox="0 0 24 24">
<path d="M140.994,292.662c-0.228-0.073-9.597-2.922-22.883-5.798c-13.304-2.857-30.442-5.788-46.806-5.817
		c-8.2,0.019-16.244,0.722-23.823,2.914c-7.506,2.182-14.975,6.017-20.27,13.03l-1.188,1.58l-0.621,1.872
		c-1.571,4.712-2.31,9.678-2.31,14.7c0.036,12.665,4.502,25.558,12.226,38.579c11.651,19.522,30.928,39.62,57.417,59.152
		c26.499,19.504,60.256,38.35,100.981,54.64C267.314,496.88,354.224,511.936,413.475,512c18.664-0.027,34.571-1.46,47.236-4.867
		c6.337-1.744,11.943-3.944,16.865-7.368c2.456-1.717,4.748-3.78,6.666-6.365c1.917-2.566,3.406-5.707,4.072-9.076l0.594-2.968
		l-0.868-2.913c-3.25-10.555-10.034-20.637-19.23-31.21c-13.824-15.752-33.42-32.224-56.431-47.454
		c-23.001-15.204-49.39-29.092-76.728-39.118l-8.365,22.828c33.685,12.327,66.703,31.484,91.996,51.089
		c12.646,9.779,23.376,19.686,31.246,28.681c7.898,8.93,12.802,17.157,14.226,22.17l11.642-3.488l-11.916-2.384l2.118,0.42
		l-1.972-0.895l-0.146,0.475l2.118,0.42l-1.972-0.895l0.831,0.375l-0.749-0.538l-0.082,0.164l0.831,0.375l-0.749-0.538
		c0.019,0.036-0.95,1.104-3.36,2.246c-3.57,1.753-9.935,3.57-18.144,4.721c-8.227,1.178-18.317,1.808-29.731,1.799
		c-55.28,0.073-140.756-14.674-210.737-42.743c-52.011-20.792-91.585-45.802-117.664-69.68
		c-13.039-11.925-22.681-23.567-28.863-33.977c-6.227-10.409-8.848-19.486-8.812-26.142c0-2.666,0.384-4.958,1.069-7.013
		l-11.532-3.844l9.724,7.296c0.931-1.297,3.205-3.004,7.606-4.282c4.319-1.27,10.354-1.954,17.039-1.936
		c13.414-0.018,29.356,2.584,41.674,5.26c6.173,1.333,11.46,2.676,15.176,3.671c1.862,0.502,3.323,0.914,4.31,1.196l1.114,0.329
		l0.329,0.092L140.994,292.662z"/>
	<circle cx="301.72" cy="37.401" r="37.401"/>
	<path d="M465.988,205.825l-23.924-55.344c-4.072-8.61-11.103-15.477-19.814-19.34l-44.487-19.76
		c-21.221-9.423-44.56-13.102-67.662-10.674l-33.803,3.561c-13.094,1.379-25.932,4.702-38.04,9.871l-44.835,19.093l-52.559-12.456
		c-9.113-1.853-18.006,4.037-19.85,13.15c-1.862,9.113,4.072,17.047,13.148,19.85l48.979,16.428c9.26,2.821,19.12,2.93,28.434,0.292
		l52.102-13.477l9.35,44.414l-62.95,27.941c-13.496,4.986-24.015,15.788-28.654,29.412l-30.607,90.106
		c-3.378,11.113,2.885,22.874,14.007,26.261c11.122,3.378,21.586-2.319,26.261-14.007l36.232-87.659l61.763-26.061
		c2.045-0.858,4.401-0.365,5.917,1.242c1.516,1.606,1.881,3.98,0.914,5.971l-18.336,37.548l-12.272,88.17
		c-1.644,11.505,6.338,22.17,17.842,23.824c11.505,1.644,20.911-4.465,23.814-17.852l16.198-84.791l34.004-46.314
		c13.332-18.134,18.336-41.063,13.806-63.105l-9.241-44.86l43.628,17.924l29.968,54.559c3.854,8.482,13.824,12.226,22.299,8.373
		C466.098,224.26,469.841,214.289,465.988,205.825z"/>
  </symbol>

<symbol id="camp" viewBox="0 0 24 24">
<path d="M462.394,284.515c-19.483-27.624-36.393-57.716-50.349-85.636c-20.524-41.057-34.629-77.306-40.71-93.774
		c-26.107,3.331-50.968,4.808-74.008,4.816c-70.582-0.016-124.685-12.706-151.004-20.389
		c36.469,176.416,138.673,302.965,164.764,332.938L512,341.72C493.916,325.524,477.399,305.767,462.394,284.515z"/>
	<path d="M106.432,179.48C82.625,235.08,47.378,305.199,0,369.951l87.05,15.07L120.851,269.7
		c0,0,18.4,75.646,57.245,79.734l1.209,51.559l103.266,17.873c-37.084-46.12-115.05-156.05-150.692-304.122
		C125.674,132.082,117.233,154.243,106.432,179.48z"/>
  </symbol>

<symbol id="onsen" viewBox="0 0 24 24">
<path d="M400.688,2.031v54.563H298.703V0h-85.406v56.594H111.313V1.031H25.922v55.563v34.203V512h460.156V91.813
		V56.594V2.031H400.688z M298.875,266.688c1.406-6.781,4.078-13.406,6.469-18.891c2.406-5.516,4.125-9.813,5.141-14.109
		c1.047-4.25,1.484-8.563,1.594-12.984c0.141-9.016-0.766-17.156-2.125-23.375c-1.328-6.266-3.359-11.672-4.266-16.328
		c-0.922-4.625-0.406-8.063,2.063-9.625c2.484-1.547,5.672-0.906,9.672,1.75c3.922,2.656,9.203,7.859,13.453,16.328
		c2.078,4.172,3.813,9.016,5.047,14.172c1.234,5.219,2.016,10.594,2.344,16.594c0.297,5.984-0.047,12.625-1.516,19.422
		c-1.406,6.766-4.078,13.391-6.453,18.859c-2.422,5.516-4.125,9.813-5.141,14.094c-1.031,4.281-1.469,8.594-1.578,13
		c-0.141,9.031,0.766,17.172,2.125,23.375c1.328,6.297,3.359,11.703,4.266,16.344c0.938,4.625,0.406,8.047-2.094,9.625
		c-2.469,1.563-5.625,0.906-9.656-1.75c-3.906-2.656-9.188-7.859-13.422-16.313c-2.109-4.188-3.828-9.031-5.047-14.188
		c-1.25-5.219-2.063-10.578-2.375-16.594C297.094,280.125,297.406,273.469,298.875,266.688z M239.766,269.406
		c1.234-7.375,3.797-14.719,6.141-20.969c2.375-6.313,4.125-11.375,5.125-16.469c1.047-5.094,1.438-10.219,1.469-15.313
		c0-10.422-1-19.844-2.516-27.125c-1.453-7.344-3.609-13.5-4.547-18.641c-0.969-5.109-0.438-8.734,2.125-10.188
		c2.563-1.438,5.844-0.391,9.969,2.906c4.063,3.281,9.438,9.391,13.625,18.719c4.203,9.344,6.75,20.797,7.531,33.594
		c0.359,6.484,0.141,13.625-1.156,21c-1.266,7.344-3.813,14.719-6.172,20.953c-2.375,6.281-4.109,11.375-5.109,16.469
		c-1.031,5.078-1.406,10.188-1.453,15.313c-0.016,10.422,0.984,19.828,2.516,27.109c1.453,7.375,3.594,13.516,4.531,18.672
		c0.969,5.094,0.422,8.734-2.125,10.188c-2.563,1.438-5.859,0.375-9.969-2.922c-4.078-3.297-9.406-9.406-13.625-18.719
		c-4.219-9.359-6.75-20.797-7.531-33.609C238.219,283.906,238.469,276.75,239.766,269.406z M179.531,266.688
		c1.406-6.781,4.063-13.406,6.469-18.891c2.391-5.516,4.109-9.813,5.125-14.109c1.047-4.25,1.5-8.563,1.594-12.969
		c0.125-9.031-0.766-17.172-2.125-23.391c-1.313-6.266-3.344-11.672-4.25-16.328c-0.938-4.625-0.406-8.063,2.063-9.625
		c2.469-1.547,5.656-0.906,9.656,1.75c3.922,2.656,9.219,7.859,13.438,16.328c2.094,4.172,3.844,9.016,5.063,14.188
		c1.219,5.203,2.031,10.563,2.344,16.578c0.281,5.984-0.031,12.625-1.5,19.422c-1.406,6.766-4.094,13.391-6.469,18.859
		c-2.406,5.516-4.125,9.813-5.141,14.094c-1.031,4.281-1.469,8.594-1.578,13c-0.125,9.031,0.781,17.172,2.125,23.375
		c1.328,6.297,3.359,11.703,4.281,16.344c0.906,4.625,0.406,8.047-2.078,9.625c-2.484,1.563-5.672,0.906-9.672-1.75
		c-3.906-2.656-9.188-7.859-13.438-16.313c-2.109-4.188-3.828-9.031-5.063-14.188c-1.219-5.219-2.031-10.578-2.344-16.594
		C177.75,280.125,178.063,273.469,179.531,266.688z M405.375,348.313c-4.313,11.5-11.828,21.438-21.281,29.953
		c-14.234,12.75-33.031,22.563-54.844,29.453c-21.844,6.844-46.75,10.688-73.25,10.688s-51.422-3.844-73.25-10.688
		c-21.813-6.891-40.594-16.703-54.844-29.453c-9.453-8.516-16.969-18.453-21.281-29.953c-2.469-6.547-3.813-13.578-3.813-20.766
		c0-6.953,1.219-13.625,3.344-19.734c2.156-6.094,8.078-13.156,12.438-17.359c10.281-9.984,21.344-14.953,26.766-17.875
		c4.047-2.422,9.172-0.953,11.484,3.266c2.297,4.234,0.781,9.406-3.109,12.063c-25.641,17.5-29.891,38.453-11.328,60.359
		c5.547,6.516,12.953,11.703,23.813,17.797c17.797,9.953,54.5,18.734,89.781,18.688c35.266,0.047,71.984-8.734,89.781-18.688
		c10.875-6.094,18.266-11.281,23.813-17.797c18.547-21.906,14.328-42.859-11.313-60.359c-3.906-2.656-5.422-7.828-3.125-12.063
		c2.313-4.219,7.453-5.688,11.484-3.266c5.422,2.922,16.484,7.891,26.766,17.875c4.359,4.203,10.281,11.266,12.438,17.359
		c2.125,6.109,3.359,12.781,3.344,19.734C409.203,334.734,407.828,341.766,405.375,348.313z"/>
  </symbol>

<symbol id="parking" viewBox="0 0 24 24">
	<path d="M500.325,211.661l-34.024-54.143c-11.508-18.302-31.61-29.402-53.216-29.402H254.645
		c-26.654,0-52.195,10.719-70.849,29.745l-45.216,46.107L30.738,228.933C12.733,233.11,0,249.147,0,267.615v42.348
		c0,9.122,7.406,16.538,16.538,16.538h57.336c-0.074,1.141-0.185,2.274-0.185,3.425c0,29.8,24.167,53.958,53.977,53.958
		c29.792,0,53.958-24.158,53.958-53.958c0-1.151-0.111-2.284-0.185-3.425h169.67c-0.074,1.141-0.185,2.274-0.185,3.425
		c0,29.8,24.166,53.958,53.958,53.958c29.81,0,53.958-24.158,53.958-53.958c0-1.151-0.092-2.284-0.166-3.425h36.789
		c9.132,0,16.538-7.416,16.538-16.538v-57.81C512,237.824,507.954,223.801,500.325,211.661z M127.666,351.43
		c-11.879,0-21.494-9.643-21.494-21.504c0-11.871,9.615-21.495,21.494-21.495c11.86,0,21.494,9.624,21.494,21.495
		C149.16,341.786,139.526,351.43,127.666,351.43z M264.13,215.754h-97.188l37.198-37.93c13.216-13.476,31.628-21.198,50.505-21.198
		h9.486V215.754z M374.998,215.754h-85.94v-59.128h85.94V215.754z M404.882,351.43c-11.86,0-21.494-9.643-21.494-21.504
		c0-11.871,9.634-21.495,21.494-21.495c11.879,0,21.494,9.624,21.494,21.495C426.376,341.786,416.761,351.43,404.882,351.43z
		 M399.944,215.754v-59.128h13.142c11.879,0,22.756,6.004,29.067,16.065l27.062,43.063H399.944z"/>
  </symbol>

<symbol id="cafe" viewBox="0 0 24 24">
	<path d="M511.06,166.175c-2.713-17.466-11.377-32.603-23.571-42.68c-12.145-10.134-27.38-15.291-42.704-15.267
		c-7.07-0.016-14.181,1.111-21.096,3.286C410.9,67.28,344.167,45.148,232.442,45.148c-128.255,0-197.248,29.153-193.362,87.468
		c1.908,28.63,11.797,84.754,38.36,136.293c-11.41,4.112-22.182,9.26-31.896,15.496c-11.565,7.454-21.716,16.387-29.619,26.898
		C8.034,321.797,2.411,334,0.548,347.338C0.184,349.913,0,352.512,0,355.102c-0.003,8.075,1.758,16.076,4.941,23.604
		c5.598,13.199,15.312,25.001,28.192,35.463c19.375,15.684,46.121,28.63,79.982,37.915c33.868,9.268,74.897,14.76,122.84,14.768
		c72.724-0.041,129.706-12.643,169.893-32.055c20.081-9.75,36.068-21.225,47.558-34.384c5.738-6.603,10.348-13.648,13.568-21.16
		c3.22-7.503,5.002-15.504,5.002-23.571c0-1.773-0.082-3.538-0.262-5.304c-1.307-13.674-6.652-26.301-14.416-37.138
		c-11.688-16.289-28.639-28.998-48.172-38.266c-6.587-3.106-13.502-5.779-20.628-8.067c1.193-2.354,2.37-4.716,3.498-7.078
		c10.037,3.89,20.367,5.795,30.388,5.77c12.292,0,24.062-2.722,34.654-7.38c15.896-7.012,29.284-18.201,39.043-31.964
		c9.701-13.764,15.896-30.379,15.921-48.262C512,174.086,511.698,170.13,511.06,166.175z M232.442,85.948
		c76.213,0,137.985,15.676,137.985,34.989c0,19.321-61.772,34.981-137.985,34.981c-76.197,0-137.969-15.66-137.969-34.981
		C94.472,101.624,156.244,85.948,232.442,85.948z M408.39,314.564c8.696,5.762,15.676,12.325,20.449,19.002
		c4.789,6.743,7.397,13.428,8.059,20.196c0.065,0.63,0.098,1.276,0.098,1.921c0,2.959-0.621,6.155-2.183,9.8
		c-2.688,6.366-8.492,14.049-18.111,21.741c-14.36,11.58-37.04,22.974-67.387,31.188c-30.346,8.263-68.326,13.469-113.36,13.461
		c-68.944,0.041-121.19-12.218-154.806-28.695c-16.812-8.189-28.887-17.425-36.227-26.006c-3.69-4.282-6.199-8.369-7.751-12.055
		c-1.558-3.702-2.183-6.98-2.196-10.012c0-0.981,0.074-1.937,0.205-2.893c0.952-6.702,3.788-13.314,8.716-19.902
		c7.335-9.832,19.521-19.23,34.666-26.178c5.431-2.5,11.311-4.577,17.351-6.407c6.505,9.292,13.632,18.226,21.585,26.472
		c8.046,8.352,15.582,15.03,22.946,20.506c-7.593,4.446-11.97,9.44-11.97,14.727c0,18.512,52.201,33.526,116.6,33.526
		c64.404,0,116.597-15.014,116.597-33.526c0-8.361-10.707-15.978-28.295-21.854c4.536-3.94,9.187-8.369,14.025-13.379
		c8.443-8.762,15.978-18.275,22.787-28.205C384.526,301.732,397.733,307.478,408.39,314.564z M462.071,192.246
		c-3.269,7.25-9.162,14.262-16.322,19.117c-7.176,4.903-15.332,7.608-23.367,7.601c-4.348-0.025-8.762-0.85-13.372-2.624
		c5.264-16.517,9.13-32.374,11.802-46.48c3.269-5.15,6.93-8.664,10.625-10.993c4.479-2.811,9.089-3.996,13.347-4.004
		c5.026,0.016,9.44,1.626,12.839,4.454c3.351,2.893,6.146,6.914,7.388,14.221c0.23,1.471,0.344,2.958,0.344,4.455
		C465.357,182.562,464.278,187.416,462.071,192.246z"/>
  </symbol>


<symbol id="ramen" viewBox="0 0 24 24">
	<path d="M511.888,236.577l-0.525-7.706c-0.716-10.506-5.519-19.93-12.677-26.571
		c-7.126-6.656-16.813-10.72-27.232-10.72l-1.462,0.048H42.024l-1.48-0.048c-10.434,0-20.105,4.064-27.247,10.72
		c-7.158,6.642-11.961,16.066-12.662,26.571L0,238.128l0.175,1.543c5.217,47.241,23.238,90.664,50.502,126.628
		c24.59,32.472,56.72,58.884,93.798,76.739l-1.67,12.804c-0.366,2.442-0.764,4.939-1.098,7.564
		c-0.334,2.672-0.621,5.479-0.621,8.588c0.016,3.794,0.414,8.2,2.275,12.972c1.4,3.548,3.738,7.166,6.776,10.029
		c2.274,2.147,4.851,3.872,7.492,5.177c3.992,1.972,8.096,3.086,12.391,3.802c4.31,0.7,8.86,0.986,13.95,0.986h138.955
		c6.028-0.008,11.325-0.397,16.32-1.432c3.754-0.779,7.396-1.941,10.896-3.81c2.624-1.392,5.169-3.221,7.365-5.464
		c3.308-3.34,5.614-7.57,6.807-11.492c1.209-3.952,1.496-7.555,1.496-10.769c0-3.109-0.287-5.916-0.621-8.588
		c-0.318-2.625-0.716-5.122-1.082-7.564l-1.368-10.498c38.254-17.457,71.482-43.965,96.916-76.826
		c28.186-36.4,46.844-80.644,52.172-128.847l0.175-1.543L511.888,236.577z M322.925,470.285H183.97c-3.563,0-6.251-0.223-8.08-0.501
		c0.048-0.613,0.127-1.281,0.223-2.044c0.238-1.909,0.604-4.239,1.002-6.887l0.016-0.167l2.78-21.306h147.075l2.779,21.306
		l0.016,0.167c0.398,2.648,0.763,4.978,1.002,6.887c0.112,0.763,0.175,1.439,0.223,2.052
		C329.175,470.07,326.472,470.285,322.925,470.285z M432.231,347.291c-24.4,31.534-57.086,56.339-94.736,71.148l-11.83,4.652
		H182.037l0.183-1.416l-12.2-5.113c-36.504-15.294-68.11-40.052-91.714-71.204c-7.333-9.686-13.787-20.041-19.477-30.865H75.22
		c0.89,0,1.622-0.731,1.622-1.63v-37.021h30.412v26.404h-8.43v-15.445c0-0.898-0.732-1.63-1.638-1.63H86.561
		c-0.906,0-1.638,0.732-1.638,1.63v26.062c0,0.899,0.732,1.63,1.638,1.63h32.974c0.89,0,1.622-0.731,1.622-1.63v-47.638
		c0-0.899-0.732-1.63-1.622-1.63h-54.94c-0.907,0-1.638,0.731-1.638,1.63v37.021H52.868c-1.384-3.078-2.756-6.172-4-9.321h4.37
		c0.907,0,1.638-0.732,1.638-1.63v-26.07c0-0.899-0.731-1.63-1.638-1.63H39.606c-2.076-8.598-3.738-17.361-4.788-26.324l0.414-6.029
		c0.112-1.471,0.7-2.609,1.686-3.547c1.002-0.923,2.227-1.432,3.626-1.44l0.35,0.016l0.557,0.032h429.097l0.541-0.032l0.366-0.016
		c1.4,0.008,2.609,0.517,3.611,1.44c1.002,0.938,1.59,2.084,1.702,3.547l0.414,6.012c-1.05,8.971-2.724,17.736-4.804,26.341h-35.613
		c-0.891,0-1.622,0.731-1.622,1.63v37.021H404.73v-26.404h8.446v15.453c0,0.898,0.731,1.63,1.622,1.63h10.625
		c0.906,0,1.638-0.732,1.638-1.63v-26.07c0-0.899-0.732-1.63-1.638-1.63h-32.958c-0.906,0-1.638,0.731-1.638,1.63v47.638
		c0,0.899,0.731,1.63,1.638,1.63h54.94c0.891,0,1.622-0.731,1.622-1.63v-37.021h19.99c-0.955,3.134-1.937,6.251-3.022,9.329h-7.249
		c-0.891,0-1.622,0.732-1.622,1.63v19.867C450.248,321.119,441.933,334.75,432.231,347.291z"/>
	<path d="M243.585,263.594h-54.939c-0.891,0-1.622,0.731-1.622,1.63v37.021h-30.429v-26.404h8.446v15.453
		c0,0.898,0.732,1.63,1.622,1.63h10.641c0.891,0,1.622-0.732,1.622-1.63v-26.07c0-0.899-0.732-1.63-1.622-1.63h-32.973
		c-0.891,0-1.622,0.731-1.622,1.63v47.638c0,0.899,0.731,1.63,1.622,1.63h54.955c0.89,0,1.622-0.731,1.622-1.63v-37.021h30.412
		v26.404h-8.43v-15.445c0-0.898-0.732-1.63-1.638-1.63h-10.641c-0.89,0-1.622,0.732-1.622,1.63v26.062
		c0,0.899,0.732,1.63,1.622,1.63h32.973c0.907,0,1.638-0.731,1.638-1.63v-47.638C245.224,264.325,244.492,263.594,243.585,263.594z"
		/>
	<path d="M367.653,263.594h-54.94c-0.906,0-1.638,0.731-1.638,1.63v37.021h-30.412v-26.404h8.43v15.453
		c0,0.898,0.732,1.63,1.638,1.63h10.625c0.907,0,1.638-0.732,1.638-1.63v-26.07c0-0.899-0.732-1.63-1.638-1.63h-32.957
		c-0.907,0-1.638,0.731-1.638,1.63v47.638c0,0.899,0.732,1.63,1.638,1.63h54.94c0.906,0,1.638-0.731,1.638-1.63v-37.021h30.412
		v26.404h-8.446v-15.445c0-0.898-0.732-1.63-1.622-1.63h-10.642c-0.89,0-1.622,0.732-1.622,1.63v26.062
		c0,0.899,0.732,1.63,1.622,1.63h32.974c0.89,0,1.622-0.731,1.622-1.63v-47.638C369.275,264.325,368.543,263.594,367.653,263.594z"
		/>
	<path d="M145.158,89.605c4.2,9.465,6.044,16.137,6.124,23.382c0.095,7.174-1.591,14.602-3.276,21.1
		c-3.596,13.034-6.363,22.428-2.895,24.813c3.181,2.235,11.977-2.537,21.648-15.627c4.644-6.609,9.655-15.644,11.612-27.804
		c2.226-12.136-1.066-26.817-6.124-37.618c-4.979-11.047-8.987-18.586-10.578-25.553c-1.75-6.887-1.67-13.798-0.986-20.264
		c1.542-12.908,3.754-22.523,0.064-24.615c-3.276-1.924-11.977,3.372-19.931,18.221c-3.802,7.388-7.094,18.077-6.092,30.436
		C135.552,68.467,141.055,80.34,145.158,89.605z"/>
	<path d="M244.349,89.605c4.199,9.465,6.044,16.137,6.108,23.382c0.111,7.174-1.575,14.602-3.261,21.1
		c-3.595,13.034-6.362,22.428-2.895,24.813c3.181,2.235,11.977-2.537,21.648-15.627c4.645-6.609,9.655-15.644,11.596-27.804
		c2.227-12.136-1.066-26.817-6.124-37.618c-4.963-11.047-8.971-18.586-10.562-25.553c-1.75-6.887-1.67-13.798-0.986-20.264
		c1.543-12.908,3.754-22.523,0.048-24.615c-3.276-1.924-11.961,3.372-19.93,18.221c-3.786,7.388-7.078,18.077-6.076,30.436
		C234.742,68.467,240.245,80.34,244.349,89.605z"/>
	<path d="M343.523,89.605c4.214,9.465,6.06,16.137,6.124,23.382c0.095,7.174-1.574,14.602-3.261,21.1
		c-3.595,13.034-6.362,22.428-2.911,24.813c3.197,2.235,11.994-2.537,21.664-15.627c4.644-6.609,9.654-15.644,11.595-27.804
		c2.227-12.136-1.066-26.817-6.124-37.618c-4.962-11.047-8.971-18.586-10.561-25.553c-1.75-6.887-1.67-13.798-0.986-20.264
		c1.542-12.908,3.753-22.523,0.047-24.615c-3.276-1.924-11.961,3.372-19.93,18.221c-3.802,7.388-7.078,18.077-6.076,30.436
		C333.932,68.467,339.435,80.34,343.523,89.605z"/>
  </symbol>

<symbol id="kaisendon" viewBox="0 0 24 24">
<polygon points="30.922,460.156 481.094,460.156 481.094,421.969 30.922,431 	"/>
	<polygon points="30.922,499.641 481.094,508.688 481.094,470.484 30.922,470.484 	"/>
	<path d="M153.094,340.672v22.016c0,22.844,46.078,41.375,102.906,41.375s102.906-18.531,102.906-41.375v-22.016
		C449.047,301.063,512,211,512,106.219C512,49.391,397.391,3.313,256,3.313C114.625,3.313,0,49.391,0,106.219
		C0,211,62.969,301.063,153.094,340.672z M41.828,106.219c0-2.234,8.984-17.984,48.75-33.953
		C133.469,55.031,193.75,45.141,256,45.141s122.531,9.891,165.438,27.125c39.75,15.969,48.734,31.719,48.734,33.953
		s-8.984,17.969-48.734,33.953C378.531,157.406,318.25,167.297,256,167.297s-122.531-9.891-165.422-27.125
		C50.813,124.188,41.828,108.453,41.828,106.219z"/>
  </symbol>

<symbol id="fish" viewBox="0 0 24 24">
<path d="M473.472,266.477l38.172-98.609c0.844-2.203,0.141-4.688-1.719-6.109c-1.875-1.438-4.453-1.453-6.344-0.063
		l-99.094,73.094c-21.328-2.516-44.391-53.469-145.922-78.75l29.672-4.234c4.734-0.672,8.891-3.438,11.359-7.547
		c2.453-4.094,2.922-9.078,1.297-13.563l-14.922-41.031c-1.828-5.016-6.047-8.781-11.234-10.016s-10.641,0.219-14.531,3.875
		l-67.922,63.938C82.394,149.867,0.003,238.32,0.003,266.477c3.734,23.609,48.891,77.875,117.25,104.25
		c7.141-9.969,12.906-19.594,17.516-28.766c13.453-26.828,17.234-49.875,17.234-65.734c0-6.391-0.625-11.609-1.422-15.266
		c-1.281-6.047,2.563-11.984,8.609-13.266c6.047-1.297,11.984,2.563,13.281,8.594c1.156,5.453,1.891,12.109,1.891,19.938
		c0,19.344-4.578,45.813-19.609,75.766c-4.219,8.422-9.313,17.125-15.328,26.016c23.5,6.406,49.203,9.297,76.484,6.703l20.25,39.453
		c2.047,4,5.688,6.938,10.031,8.094c4.344,1.141,8.969,0.406,12.75-2.063l15.453-10.109c4.266-2.781,6.906-7.422,7.172-12.484
		c0.234-5.063-1.938-9.953-5.891-13.141l-20.703-16.672c104.594-24.938,127.953-77.078,149.516-79.625l99.094,73.094
		c1.891,1.391,4.469,1.375,6.344-0.047c1.859-1.422,2.563-3.922,1.719-6.109L473.472,266.477z M76.425,273.945
		c-9.266,0-16.781-7.531-16.781-16.781c0-9.266,7.516-16.781,16.781-16.781s16.781,7.516,16.781,16.781
		C93.206,266.414,85.69,273.945,76.425,273.945z"/>
  </symbol>
</defs>

</svg>